<svg width="240" height="80" viewBox="0 0 240 80" fill="none" xmlns="http://www.w3.org/2000/svg" xmlns:xlink="http://www.w3.org/1999/xlink">
<path d="M220.27,0L19.069,0C18.336,0 17.611,0 16.88,0.004C16.268,0.008 15.66,0.02 15.042,0.029C13.699,0.045 12.359,0.163 11.034,0.383C9.711,0.607 8.429,1.03 7.232,1.637C6.037,2.249 4.945,3.044 3.995,3.994C3.041,4.941 2.245,6.036 1.639,7.236C1.031,8.434 0.609,9.718 0.389,11.043C0.166,12.366 0.046,13.705 0.03,15.047C0.012,15.66 0.01,16.275 0,16.889L0,63.117C0.01,63.738 0.012,64.34 0.03,64.961C0.046,66.303 0.166,67.641 0.389,68.965C0.609,70.291 1.03,71.575 1.639,72.773C2.245,73.97 3.04,75.06 3.995,76.002C4.941,76.956 6.034,77.752 7.232,78.359C8.429,78.968 9.711,79.393 11.034,79.621C12.359,79.839 13.699,79.957 15.042,79.974C15.66,79.988 16.268,79.996 16.88,79.996C17.611,80 18.336,80 19.069,80L220.27,80C220.988,80 221.718,80 222.438,79.996C223.046,79.996 223.672,79.988 224.282,79.974C225.622,79.958 226.958,79.84 228.282,79.621C229.608,79.392 230.896,78.966 232.098,78.359C233.294,77.751 234.386,76.956 235.332,76.002C236.284,75.056 237.082,73.967 237.696,72.773C238.3,71.574 238.716,70.29 238.934,68.965C239.156,67.641 239.28,66.303 239.304,64.961C239.312,64.34 239.312,63.738 239.312,63.117C239.328,62.39 239.328,61.668 239.328,60.929L239.328,19.072C239.328,18.34 239.328,17.613 239.312,16.889C239.312,16.275 239.312,15.66 239.304,15.047C239.28,13.705 239.156,12.366 238.934,11.043C238.716,9.718 238.298,8.435 237.696,7.236C236.46,4.83 234.504,2.872 232.098,1.637C230.896,1.031 229.608,0.608 228.282,0.383C226.96,0.162 225.622,0.044 224.282,0.029C223.672,0.019 223.046,0.008 222.438,0.004C221.718,0 220.988,0 220.27,0L220.27,0Z" fill="#A6A6A6"/>
<path d="M16.89,78.25C16.28,78.25 15.686,78.242 15.081,78.228C13.829,78.212 12.579,78.103 11.343,77.902C10.19,77.704 9.073,77.334 8.029,76.806C6.995,76.283 6.052,75.596 5.235,74.773C4.407,73.96 3.718,73.016 3.194,71.98C2.665,70.937 2.299,69.82 2.108,68.666C1.903,67.426 1.791,66.172 1.775,64.916C1.763,64.494 1.746,63.09 1.746,63.09L1.746,16.889C1.746,16.889 1.764,15.506 1.775,15.099C1.791,13.845 1.901,12.593 2.106,11.355C2.297,10.198 2.664,9.077 3.193,8.031C3.715,6.996 4.401,6.052 5.224,5.235C6.046,4.411 6.992,3.721 8.028,3.19C9.07,2.664 10.184,2.297 11.335,2.102C12.575,1.9 13.829,1.79 15.086,1.774L16.891,1.75L222.428,1.75L224.254,1.775C225.5,1.79 226.742,1.899 227.97,2.1C229.132,2.298 230.26,2.667 231.312,3.196C233.388,4.266 235.078,5.958 236.142,8.036C236.664,9.075 237.024,10.187 237.212,11.334C237.42,12.582 237.536,13.843 237.56,15.108C237.566,15.675 237.566,16.283 237.566,16.889C237.582,17.639 237.582,18.352 237.582,19.072L237.582,60.929C237.582,61.656 237.582,62.365 237.566,63.08C237.566,63.73 237.566,64.326 237.558,64.939C237.536,66.182 237.42,67.421 237.216,68.646C237.03,69.808 236.666,70.935 236.136,71.986C235.61,73.011 234.924,73.946 234.106,74.758C233.288,75.585 232.344,76.276 231.306,76.803C230.256,77.335 229.132,77.705 227.97,77.902C226.734,78.104 225.484,78.213 224.232,78.228C223.646,78.242 223.034,78.25 222.438,78.25L220.27,78.254L16.89,78.25Z" fill="#000000"/>
<path d="M49.538,40.602C49.559,38.933 50.003,37.296 50.827,35.844C51.651,34.392 52.829,33.172 54.251,32.298C53.347,31.008 52.156,29.946 50.77,29.197C49.384,28.448 47.843,28.032 46.269,27.983C42.91,27.63 39.654,29.992 37.943,29.992C36.198,29.992 33.563,28.018 30.726,28.076C28.89,28.135 27.102,28.669 25.534,29.625C23.966,30.581 22.673,31.927 21.78,33.532C17.912,40.229 20.797,50.071 24.502,55.484C26.356,58.135 28.523,61.096 31.358,60.991C34.132,60.875 35.168,59.222 38.516,59.222C41.834,59.222 42.806,60.991 45.698,60.924C48.675,60.875 50.551,58.261 52.339,55.586C53.671,53.697 54.696,51.609 55.376,49.4C53.647,48.669 52.171,47.445 51.133,45.88C50.095,44.315 49.54,42.48 49.538,40.602L49.538,40.602Z" fill="#FFFFFF"/>
<path d="M44.074,24.423C45.698,22.474 46.497,19.97 46.304,17.441C43.824,17.702 41.533,18.887 39.888,20.761C39.084,21.676 38.468,22.741 38.076,23.894C37.683,25.048 37.522,26.267 37.601,27.483C38.841,27.496 40.068,27.227 41.19,26.697C42.311,26.167 43.297,25.389 44.074,24.423Z" fill="#FFFFFF"/>
<path d="M84.604,54.279L75.138,54.279L72.864,60.992L68.854,60.992L77.821,36.156L81.987,36.156L90.954,60.992L86.876,60.992L84.604,54.279ZM76.118,51.182L83.622,51.182L79.923,40.287L79.819,40.287L76.118,51.182Z" fill="#FFFFFF"/>
<path d="M110.319,51.939C110.319,57.566 107.308,61.181 102.763,61.181C101.611,61.241 100.466,60.976 99.459,60.416C98.451,59.855 97.622,59.023 97.065,58.013L96.979,58.013L96.979,66.982L93.263,66.982L93.263,42.884L96.86,42.884L96.86,45.896L96.929,45.896C97.511,44.891 98.354,44.062 99.369,43.499C100.385,42.935 101.534,42.657 102.694,42.695C107.29,42.695 110.319,46.327 110.319,51.939ZM106.499,51.939C106.499,48.273 104.604,45.863 101.714,45.863C98.874,45.863 96.964,48.324 96.964,51.939C96.964,55.587 98.874,58.031 101.714,58.031C104.604,58.031 106.499,55.638 106.499,51.939Z" fill="#FFFFFF"/>
<path d="M130.249,51.939C130.249,57.566 127.237,61.181 122.692,61.181C121.541,61.241 120.396,60.976 119.388,60.416C118.381,59.855 117.551,59.023 116.995,58.013L116.909,58.013L116.909,66.982L113.192,66.982L113.192,42.884L116.79,42.884L116.79,45.896L116.858,45.896C117.44,44.891 118.284,44.062 119.299,43.499C120.314,42.935 121.463,42.657 122.624,42.695C127.22,42.695 130.249,46.327 130.249,51.939ZM126.429,51.939C126.429,48.273 124.534,45.863 121.644,45.863C118.804,45.863 116.894,48.324 116.894,51.939C116.894,55.587 118.804,58.031 121.644,58.031C124.534,58.031 126.429,55.638 126.429,51.939L126.429,51.939Z" fill="#FFFFFF"/>
<path d="M143.421,54.072C143.696,56.535 146.089,58.152 149.358,58.152C152.491,58.152 154.745,56.535 154.745,54.314C154.745,52.387 153.386,51.232 150.167,50.441L146.948,49.666C142.388,48.564 140.271,46.432 140.271,42.971C140.271,38.685 144.005,35.742 149.308,35.742C154.556,35.742 158.153,38.685 158.274,42.971L154.522,42.971C154.298,40.492 152.249,38.996 149.255,38.996C146.261,38.996 144.212,40.51 144.212,42.713C144.212,44.469 145.52,45.502 148.722,46.293L151.458,46.965C156.554,48.17 158.671,50.217 158.671,53.849C158.671,58.496 154.97,61.406 149.083,61.406C143.575,61.406 139.856,58.564 139.616,54.072L143.421,54.072Z" fill="#FFFFFF"/>
<path d="M166.692,38.6L166.692,42.885L170.136,42.885L170.136,45.828L166.692,45.828L166.692,55.811C166.692,57.361 167.382,58.084 168.895,58.084C169.304,58.077 169.712,58.048 170.118,57.998L170.118,60.924C169.438,61.051 168.746,61.109 168.054,61.096C164.388,61.096 162.958,59.719 162.958,56.207L162.958,45.828L160.325,45.828L160.325,42.885L162.958,42.885L162.958,38.6L166.692,38.6Z" fill="#FFFFFF"/>
<path d="M172.13,51.939C172.13,46.242 175.485,42.662 180.718,42.662C185.968,42.662 189.308,46.242 189.308,51.939C189.308,57.652 185.985,61.217 180.718,61.217C175.452,61.217 172.13,57.652 172.13,51.939ZM185.521,51.939C185.521,48.031 183.73,45.725 180.718,45.725C177.706,45.725 175.917,48.049 175.917,51.939C175.917,55.863 177.706,58.152 180.718,58.152C183.73,58.152 185.52,55.863 185.52,51.939L185.521,51.939Z" fill="#FFFFFF"/>
<path d="M192.372,42.884L195.917,42.884L195.917,45.966L196.003,45.966C196.243,45.003 196.807,44.153 197.6,43.557C198.393,42.961 199.367,42.657 200.358,42.694C200.787,42.693 201.214,42.739 201.632,42.833L201.632,46.31C201.091,46.144 200.527,46.069 199.962,46.085C199.422,46.063 198.884,46.158 198.384,46.364C197.884,46.57 197.435,46.881 197.067,47.277C196.699,47.673 196.421,48.144 196.252,48.657C196.083,49.17 196.028,49.714 196.089,50.251L196.089,60.991L192.372,60.991L192.372,42.884Z" fill="#FFFFFF"/>
<path d="M218.769,55.674C218.269,58.961 215.067,61.217 210.972,61.217C205.704,61.217 202.435,57.687 202.435,52.025C202.435,46.346 205.722,42.662 210.815,42.662C215.825,42.662 218.976,46.104 218.976,51.594L218.976,52.867L206.187,52.867L206.187,53.092C206.128,53.758 206.211,54.43 206.431,55.061C206.652,55.693 207.004,56.27 207.465,56.756C207.925,57.241 208.484,57.622 209.103,57.875C209.723,58.127 210.389,58.245 211.058,58.221C211.936,58.303 212.817,58.1 213.571,57.641C214.324,57.182 214.909,56.492 215.239,55.674L218.769,55.674ZM206.204,50.27L215.257,50.27C215.29,49.67 215.199,49.071 214.99,48.508C214.781,47.946 214.457,47.433 214.04,47.001C213.623,46.57 213.121,46.229 212.567,46.001C212.012,45.772 211.415,45.661 210.815,45.674C210.21,45.67 209.61,45.787 209.05,46.016C208.49,46.245 207.981,46.584 207.552,47.011C207.123,47.438 206.784,47.946 206.552,48.505C206.321,49.065 206.203,49.664 206.204,50.27L206.204,50.27Z" fill="#FFFFFF"/>
<path d="M75.652,17.461C76.432,17.405 77.213,17.523 77.942,17.806C78.67,18.088 79.326,18.529 79.863,19.097C80.401,19.664 80.805,20.343 81.048,21.086C81.291,21.828 81.366,22.616 81.268,23.391C81.268,27.203 79.207,29.395 75.652,29.395L71.342,29.395L71.342,17.461L75.652,17.461ZM73.195,27.707L75.445,27.707C76.002,27.74 76.559,27.649 77.076,27.44C77.593,27.23 78.057,26.909 78.434,26.497C78.811,26.086 79.092,25.596 79.256,25.063C79.419,24.53 79.462,23.967 79.381,23.415C79.456,22.865 79.409,22.306 79.243,21.776C79.077,21.247 78.795,20.761 78.419,20.353C78.043,19.945 77.581,19.626 77.067,19.417C76.553,19.209 75.999,19.117 75.445,19.147L73.195,19.147L73.195,27.707Z" fill="#FFFFFF"/>
<path d="M83.361,24.888C83.305,24.296 83.372,23.699 83.56,23.134C83.748,22.57 84.051,22.052 84.451,21.612C84.851,21.172 85.338,20.82 85.882,20.58C86.426,20.339 87.014,20.215 87.608,20.215C88.203,20.215 88.791,20.339 89.335,20.58C89.878,20.82 90.366,21.172 90.766,21.612C91.165,22.052 91.469,22.57 91.657,23.134C91.844,23.699 91.912,24.296 91.855,24.888C91.913,25.48 91.846,26.078 91.659,26.643C91.472,27.208 91.169,27.728 90.769,28.169C90.369,28.609 89.881,28.962 89.337,29.203C88.792,29.444 88.204,29.568 87.608,29.568C87.013,29.568 86.424,29.444 85.88,29.203C85.336,28.962 84.848,28.609 84.448,28.169C84.048,27.728 83.745,27.208 83.558,26.643C83.371,26.078 83.304,25.48 83.361,24.888L83.361,24.888ZM90.027,24.888C90.027,22.935 89.15,21.794 87.611,21.794C86.066,21.794 85.197,22.935 85.197,24.888C85.197,26.855 86.066,27.988 87.611,27.988C89.15,27.988 90.027,26.848 90.027,24.888L90.027,24.888Z" fill="#FFFFFF"/>
<path d="M103.146,29.394L101.303,29.394L99.441,22.762L99.301,22.762L97.447,29.394L95.621,29.394L93.139,20.389L94.941,20.389L96.555,27.261L96.688,27.261L98.539,20.389L100.244,20.389L102.096,27.261L102.236,27.261L103.842,20.389L105.619,20.389L103.146,29.394Z" fill="#FFFFFF"/>
<path d="M107.707,20.388L109.418,20.388L109.418,21.818L109.551,21.818C109.776,21.304 110.156,20.874 110.638,20.586C111.12,20.299 111.679,20.168 112.238,20.214C112.676,20.181 113.116,20.247 113.526,20.407C113.935,20.567 114.303,20.818 114.602,21.139C114.902,21.461 115.125,21.846 115.255,22.265C115.385,22.685 115.42,23.129 115.355,23.563L115.355,29.393L113.578,29.393L113.578,24.01C113.578,22.562 112.949,21.843 111.635,21.843C111.337,21.829 111.04,21.88 110.764,21.991C110.488,22.103 110.239,22.273 110.035,22.49C109.831,22.706 109.676,22.965 109.581,23.247C109.486,23.529 109.453,23.829 109.484,24.125L109.484,29.394L107.707,29.394L107.707,20.388Z" fill="#FFFFFF"/>
<rect  x="118.188" y="16.873" width="1.777" height="12.521" fill="#FFFFFF"/>
<path d="M122.436,24.888C122.379,24.296 122.447,23.699 122.634,23.134C122.822,22.57 123.126,22.052 123.526,21.612C123.926,21.172 124.413,20.82 124.957,20.58C125.501,20.339 126.089,20.215 126.683,20.215C127.278,20.215 127.866,20.339 128.409,20.58C128.953,20.82 129.441,21.172 129.841,21.612C130.24,22.052 130.544,22.57 130.732,23.134C130.919,23.699 130.987,24.296 130.931,24.888C130.988,25.48 130.921,26.078 130.734,26.643C130.547,27.208 130.243,27.728 129.843,28.169C129.443,28.609 128.956,28.962 128.411,29.203C127.867,29.444 127.278,29.568 126.683,29.568C126.088,29.568 125.499,29.444 124.955,29.203C124.411,28.962 123.923,28.609 123.523,28.169C123.123,27.728 122.819,27.208 122.632,26.643C122.445,26.078 122.378,25.48 122.436,24.888L122.436,24.888ZM129.102,24.888C129.102,22.936 128.225,21.794 126.686,21.794C125.141,21.794 124.272,22.936 124.272,24.888C124.272,26.855 125.141,27.988 126.686,27.988C128.225,27.988 129.102,26.848 129.102,24.888L129.102,24.888Z" fill="#FFFFFF"/>
<path d="M132.802,26.848C132.802,25.226 134.009,24.292 136.151,24.159L138.591,24.018L138.591,23.241C138.591,22.29 137.962,21.753 136.747,21.753C135.755,21.753 135.067,22.117 134.87,22.754L133.149,22.754C133.331,21.207 134.786,20.215 136.829,20.215C139.087,20.215 140.36,21.339 140.36,23.241L140.36,29.394L138.649,29.394L138.649,28.129L138.509,28.129C138.223,28.583 137.823,28.953 137.347,29.201C136.872,29.45 136.339,29.568 135.804,29.543C135.426,29.582 135.044,29.542 134.682,29.424C134.32,29.307 133.988,29.115 133.705,28.861C133.422,28.607 133.195,28.297 133.04,27.95C132.884,27.603 132.803,27.228 132.802,26.848L132.802,26.848ZM138.591,26.078L138.591,25.325L136.392,25.466C135.151,25.549 134.589,25.971 134.589,26.765C134.589,27.575 135.292,28.047 136.259,28.047C136.542,28.075 136.828,28.047 137.1,27.963C137.372,27.878 137.625,27.74 137.842,27.557C138.06,27.373 138.238,27.147 138.367,26.893C138.495,26.639 138.572,26.362 138.591,26.078L138.591,26.078Z" fill="#FFFFFF"/>
<path d="M142.696,24.888C142.696,22.042 144.159,20.239 146.435,20.239C146.997,20.213 147.556,20.348 148.045,20.628C148.534,20.908 148.933,21.321 149.196,21.819L149.329,21.819L149.329,16.873L151.106,16.873L151.106,29.394L149.403,29.394L149.403,27.972L149.263,27.972C148.979,28.467 148.566,28.875 148.068,29.152C147.569,29.429 147.004,29.564 146.435,29.543C144.144,29.543 142.696,27.74 142.696,24.888ZM144.532,24.888C144.532,26.798 145.433,27.947 146.939,27.947C148.437,27.947 149.362,26.781 149.362,24.895C149.362,23.018 148.427,21.836 146.939,21.836C145.442,21.836 144.532,22.993 144.532,24.888L144.532,24.888Z" fill="#FFFFFF"/>
<path d="M158.46,24.888C158.403,24.296 158.471,23.699 158.659,23.134C158.846,22.57 159.15,22.052 159.55,21.612C159.95,21.172 160.437,20.82 160.981,20.58C161.525,20.339 162.113,20.215 162.707,20.215C163.302,20.215 163.89,20.339 164.433,20.58C164.977,20.82 165.464,21.172 165.864,21.612C166.264,22.052 166.568,22.57 166.755,23.134C166.943,23.699 167.011,24.296 166.954,24.888C167.012,25.48 166.945,26.078 166.758,26.643C166.571,27.208 166.267,27.728 165.867,28.169C165.467,28.609 164.979,28.962 164.435,29.203C163.891,29.444 163.302,29.568 162.707,29.568C162.112,29.568 161.523,29.444 160.979,29.203C160.435,28.962 159.947,28.609 159.547,28.169C159.147,27.728 158.844,27.208 158.656,26.643C158.469,26.078 158.402,25.48 158.46,24.888L158.46,24.888ZM165.126,24.888C165.126,22.935 164.249,21.794 162.71,21.794C161.165,21.794 160.296,22.935 160.296,24.888C160.296,26.855 161.165,27.988 162.71,27.988C164.249,27.988 165.126,26.848 165.126,24.888Z" fill="#FFFFFF"/>
<path d="M169.339,20.388L171.05,20.388L171.05,21.818L171.183,21.818C171.408,21.304 171.788,20.874 172.27,20.586C172.751,20.299 173.311,20.168 173.87,20.214C174.308,20.181 174.748,20.247 175.158,20.407C175.567,20.567 175.935,20.818 176.234,21.139C176.533,21.461 176.757,21.846 176.887,22.265C177.017,22.685 177.052,23.129 176.987,23.563L176.987,29.393L175.21,29.393L175.21,24.01C175.21,22.562 174.581,21.843 173.267,21.843C172.969,21.829 172.672,21.88 172.396,21.991C172.12,22.103 171.871,22.273 171.667,22.49C171.463,22.706 171.308,22.965 171.213,23.247C171.118,23.529 171.085,23.829 171.116,24.125L171.116,29.394L169.339,29.394L169.339,20.388Z" fill="#FFFFFF"/>
<path d="M187.03,18.146L187.03,20.43L188.981,20.43L188.981,21.927L187.03,21.927L187.03,26.558C187.03,27.501 187.419,27.914 188.304,27.914C188.53,27.913 188.757,27.9 188.981,27.873L188.981,29.353C188.662,29.41 188.339,29.441 188.015,29.444C186.038,29.444 185.251,28.749 185.251,27.013L185.251,21.927L183.821,21.927L183.821,20.429L185.251,20.429L185.251,18.146L187.03,18.146Z" fill="#FFFFFF"/>
<path d="M191.409,16.873L193.171,16.873L193.171,21.836L193.312,21.836C193.548,21.317 193.938,20.884 194.43,20.595C194.921,20.307 195.489,20.176 196.058,20.223C196.493,20.199 196.929,20.272 197.334,20.436C197.738,20.6 198.102,20.851 198.398,21.172C198.694,21.492 198.916,21.875 199.048,22.291C199.179,22.707 199.217,23.147 199.159,23.58L199.159,29.394L197.38,29.394L197.38,24.018C197.38,22.58 196.71,21.851 195.454,21.851C195.149,21.826 194.841,21.868 194.554,21.974C194.266,22.081 194.005,22.248 193.789,22.466C193.573,22.683 193.408,22.945 193.303,23.234C193.199,23.522 193.159,23.829 193.187,24.135L193.187,29.394L191.409,29.394L191.409,16.873Z" fill="#FFFFFF"/>
<path d="M209.522,26.963C209.281,27.786 208.758,28.498 208.044,28.974C207.331,29.45 206.473,29.661 205.62,29.568C205.027,29.584 204.437,29.47 203.892,29.235C203.347,29 202.86,28.649 202.464,28.207C202.068,27.765 201.773,27.242 201.6,26.674C201.427,26.106 201.379,25.508 201.46,24.92C201.381,24.33 201.43,23.73 201.603,23.161C201.776,22.591 202.069,22.066 202.463,21.62C202.856,21.174 203.341,20.817 203.885,20.575C204.428,20.333 205.017,20.21 205.612,20.215C208.118,20.215 209.63,21.927 209.63,24.755L209.63,25.375L203.271,25.375L203.271,25.475C203.243,25.805 203.284,26.138 203.392,26.451C203.501,26.765 203.673,27.052 203.899,27.295C204.125,27.538 204.399,27.731 204.704,27.862C205.009,27.993 205.337,28.058 205.669,28.055C206.094,28.106 206.525,28.029 206.906,27.835C207.288,27.64 207.603,27.337 207.812,26.963L209.522,26.963ZM203.27,24.06L207.819,24.06C207.842,23.758 207.801,23.455 207.699,23.169C207.597,22.884 207.436,22.623 207.228,22.403C207.019,22.183 206.766,22.01 206.486,21.893C206.207,21.777 205.905,21.721 205.602,21.727C205.295,21.724 204.99,21.781 204.705,21.897C204.421,22.013 204.162,22.185 203.945,22.402C203.727,22.62 203.556,22.878 203.44,23.163C203.324,23.448 203.267,23.753 203.271,24.06L203.27,24.06Z" fill="#FFFFFF"/>
</svg>
