<svg width="240" height="82" viewBox="0 0 240 82" fill="none" xmlns="http://www.w3.org/2000/svg" xmlns:xlink="http://www.w3.org/1999/xlink">
<path d="M219.606,0.407L18.405,0.407C17.672,0.407 16.947,0.407 16.216,0.411C15.604,0.415 14.996,0.427 14.378,0.436C13.035,0.452 11.695,0.57 10.37,0.79C9.047,1.014 7.765,1.437 6.568,2.044C5.373,2.656 4.281,3.451 3.331,4.401C2.377,5.348 1.581,6.443 0.975,7.643C0.367,8.841 -0.055,10.125 -0.275,11.45C-0.498,12.773 -0.618,14.112 -0.634,15.454C-0.652,16.067 -0.654,16.682 -0.664,17.296L-0.664,63.524C-0.654,64.145 -0.652,64.747 -0.634,65.368C-0.618,66.71 -0.498,68.049 -0.275,69.372C-0.055,70.698 0.366,71.982 0.975,73.18C1.581,74.377 2.376,75.467 3.331,76.409C4.277,77.363 5.37,78.159 6.568,78.766C7.765,79.375 9.047,79.8 10.37,80.028C11.695,80.246 13.035,80.364 14.378,80.382C14.996,80.395 15.604,80.403 16.216,80.403C16.947,80.407 17.672,80.407 18.405,80.407L219.606,80.407C220.324,80.407 221.054,80.407 221.774,80.403C222.382,80.403 223.008,80.395 223.618,80.382C224.958,80.365 226.294,80.247 227.618,80.028C228.944,79.799 230.232,79.374 231.434,78.766C232.63,78.159 233.722,77.363 234.668,76.409C235.62,75.464 236.418,74.374 237.032,73.18C237.636,71.981 238.052,70.697 238.27,69.372C238.492,68.048 238.616,66.71 238.64,65.368C238.648,64.747 238.648,64.145 238.648,63.524C238.664,62.798 238.664,62.075 238.664,61.337L238.664,19.479C238.664,18.747 238.664,18.02 238.648,17.296C238.648,16.682 238.648,16.067 238.64,15.454C238.616,14.112 238.492,12.773 238.27,11.45C238.052,10.126 237.634,8.842 237.032,7.643C235.796,5.237 233.84,3.279 231.434,2.044C230.232,1.438 228.944,1.015 227.618,0.79C226.296,0.569 224.958,0.451 223.618,0.436C223.008,0.426 222.382,0.415 221.774,0.411C221.054,0.407 220.324,0.407 219.606,0.407L219.606,0.407Z" fill="#A6A6A6"/>
<path d="M16.226,78.657C15.616,78.657 15.022,78.649 14.417,78.636C13.165,78.619 11.915,78.51 10.679,78.309C9.526,78.111 8.409,77.742 7.365,77.214C6.331,76.69 5.388,76.004 4.571,75.18C3.743,74.367 3.054,73.423 2.53,72.387C2.001,71.345 1.635,70.227 1.444,69.073C1.238,67.833 1.127,66.58 1.111,65.323C1.099,64.901 1.082,63.497 1.082,63.497L1.082,17.296C1.082,17.296 1.1,15.913 1.111,15.507C1.127,14.252 1.237,13 1.442,11.762C1.633,10.605 2,9.484 2.529,8.438C3.051,7.403 3.736,6.459 4.56,5.642C5.382,4.818 6.328,4.128 7.364,3.597C8.406,3.071 9.52,2.704 10.671,2.51C11.911,2.307 13.165,2.197 14.422,2.181L16.227,2.157L221.764,2.157L223.59,2.182C224.836,2.197 226.078,2.306 227.306,2.508C228.468,2.705 229.596,3.074 230.648,3.603C232.724,4.673 234.414,6.365 235.478,8.443C236,9.482 236.36,10.594 236.548,11.741C236.756,12.989 236.872,14.25 236.896,15.515C236.902,16.082 236.902,16.69 236.902,17.296C236.918,18.046 236.918,18.76 236.918,19.479L236.918,61.337C236.918,62.063 236.918,62.772 236.902,63.487C236.902,64.137 236.902,64.733 236.894,65.346C236.872,66.589 236.756,67.828 236.552,69.053C236.366,70.216 236.002,71.342 235.472,72.393C234.946,73.418 234.26,74.354 233.442,75.165C232.624,75.992 231.68,76.683 230.642,77.21C229.592,77.742 228.468,78.112 227.306,78.309C226.07,78.511 224.82,78.62 223.568,78.636C222.982,78.649 222.37,78.657 221.774,78.657L219.606,78.661L16.226,78.657Z" fill="#000000"/>
<path d="M48.874,41.009C48.895,39.34 49.339,37.703 50.163,36.251C50.987,34.799 52.165,33.579 53.587,32.705C52.683,31.415 51.491,30.353 50.106,29.604C48.72,28.855 47.179,28.439 45.604,28.39C42.246,28.037 38.99,30.399 37.279,30.399C35.534,30.399 32.899,28.425 30.062,28.483C28.226,28.542 26.438,29.076 24.87,30.032C23.302,30.988 22.009,32.334 21.116,33.939C17.248,40.636 20.133,50.478 23.838,55.891C25.692,58.542 27.859,61.503 30.693,61.398C33.468,61.282 34.504,59.629 37.852,59.629C41.17,59.629 42.142,61.398 45.034,61.331C48.011,61.282 49.887,58.668 51.675,55.993C53.007,54.104 54.032,52.016 54.712,49.807C52.983,49.076 51.507,47.852 50.469,46.287C49.43,44.722 48.876,42.887 48.874,41.009L48.874,41.009Z" fill="#FFFFFF"/>
<path d="M43.41,24.83C45.034,22.881 45.833,20.377 45.64,17.848C43.16,18.109 40.869,19.294 39.224,21.168C38.42,22.083 37.804,23.148 37.412,24.301C37.019,25.455 36.858,26.674 36.937,27.89C38.177,27.903 39.404,27.634 40.526,27.104C41.647,26.574 42.633,25.796 43.41,24.83Z" fill="#FFFFFF"/>
<path d="M83.94,54.686L74.474,54.686L72.2,61.399L68.19,61.399L77.157,36.563L81.323,36.563L90.29,61.399L86.212,61.399L83.94,54.686ZM75.454,51.589L82.958,51.589L79.259,40.694L79.155,40.694L75.454,51.589Z" fill="#FFFFFF"/>
<path d="M109.655,52.346C109.655,57.973 106.644,61.588 102.099,61.588C100.947,61.648 99.802,61.383 98.795,60.823C97.787,60.263 96.958,59.43 96.401,58.42L96.315,58.42L96.315,67.389L92.599,67.389L92.599,43.291L96.196,43.291L96.196,46.303L96.265,46.303C96.847,45.298 97.69,44.47 98.705,43.906C99.721,43.342 100.87,43.064 102.03,43.102C106.626,43.102 109.655,46.735 109.655,52.346ZM105.835,52.346C105.835,48.68 103.94,46.27 101.05,46.27C98.21,46.27 96.3,48.731 96.3,52.346C96.3,55.994 98.21,58.438 101.05,58.438C103.94,58.438 105.835,56.045 105.835,52.346Z" fill="#FFFFFF"/>
<path d="M129.585,52.346C129.585,57.973 126.573,61.588 122.028,61.588C120.877,61.648 119.732,61.383 118.724,60.823C117.717,60.263 116.887,59.43 116.331,58.42L116.245,58.42L116.245,67.389L112.528,67.389L112.528,43.291L116.126,43.291L116.126,46.303L116.194,46.303C116.776,45.298 117.62,44.47 118.635,43.906C119.65,43.342 120.799,43.064 121.96,43.102C126.556,43.102 129.585,46.735 129.585,52.346ZM125.765,52.346C125.765,48.68 123.87,46.27 120.98,46.27C118.14,46.27 116.23,48.731 116.23,52.346C116.23,55.994 118.14,58.438 120.98,58.438C123.87,58.438 125.765,56.045 125.765,52.346L125.765,52.346Z" fill="#FFFFFF"/>
<path d="M142.757,54.479C143.032,56.942 145.425,58.559 148.694,58.559C151.827,58.559 154.081,56.942 154.081,54.721C154.081,52.794 152.722,51.639 149.503,50.848L146.284,50.073C141.724,48.971 139.607,46.839 139.607,43.378C139.607,39.093 143.341,36.149 148.644,36.149C153.892,36.149 157.489,39.093 157.61,43.378L153.858,43.378C153.634,40.899 151.585,39.403 148.591,39.403C145.597,39.403 143.548,40.917 143.548,43.12C143.548,44.876 144.856,45.909 148.058,46.7L150.794,47.372C155.89,48.577 158.007,50.624 158.007,54.257C158.007,58.903 154.306,61.813 148.419,61.813C142.911,61.813 139.192,58.971 138.952,54.479L142.757,54.479Z" fill="#FFFFFF"/>
<path d="M166.028,39.007L166.028,43.292L169.472,43.292L169.472,46.235L166.028,46.235L166.028,56.218C166.028,57.768 166.718,58.491 168.231,58.491C168.64,58.484 169.048,58.455 169.454,58.405L169.454,61.331C168.774,61.458 168.082,61.516 167.39,61.503C163.724,61.503 162.294,60.126 162.294,56.614L162.294,46.235L159.661,46.235L159.661,43.292L162.294,43.292L162.294,39.007L166.028,39.007Z" fill="#FFFFFF"/>
<path d="M171.466,52.346C171.466,46.649 174.821,43.069 180.054,43.069C185.304,43.069 188.644,46.649 188.644,52.346C188.644,58.059 185.321,61.624 180.054,61.624C174.788,61.624 171.466,58.059 171.466,52.346ZM184.857,52.346C184.857,48.438 183.066,46.132 180.054,46.132C177.042,46.132 175.253,48.456 175.253,52.346C175.253,56.27 177.042,58.559 180.054,58.559C183.066,58.559 184.856,56.27 184.856,52.346L184.857,52.346Z" fill="#FFFFFF"/>
<path d="M191.708,43.291L195.253,43.291L195.253,46.373L195.339,46.373C195.579,45.41 196.143,44.56 196.936,43.964C197.729,43.368 198.703,43.064 199.694,43.102C200.123,43.1 200.55,43.147 200.968,43.24L200.968,46.717C200.427,46.552 199.863,46.476 199.298,46.492C198.758,46.47 198.22,46.565 197.72,46.771C197.22,46.977 196.771,47.288 196.403,47.684C196.035,48.08 195.757,48.551 195.588,49.064C195.419,49.577 195.364,50.121 195.425,50.658L195.425,61.398L191.708,61.398L191.708,43.291Z" fill="#FFFFFF"/>
<path d="M218.104,56.081C217.604,59.368 214.403,61.624 210.308,61.624C205.04,61.624 201.771,58.094 201.771,52.432C201.771,46.753 205.058,43.069 210.151,43.069C215.161,43.069 218.312,46.51 218.312,52.001L218.312,53.274L205.522,53.274L205.522,53.499C205.463,54.165 205.547,54.837 205.767,55.468C205.988,56.1 206.34,56.677 206.801,57.163C207.261,57.648 207.82,58.029 208.439,58.282C209.059,58.534 209.725,58.652 210.394,58.628C211.272,58.71 212.153,58.507 212.907,58.048C213.66,57.589 214.245,56.899 214.575,56.081L218.104,56.081ZM205.54,50.677L214.593,50.677C214.626,50.077 214.535,49.478 214.326,48.915C214.117,48.353 213.793,47.84 213.376,47.408C212.959,46.977 212.457,46.636 211.902,46.408C211.348,46.179 210.751,46.068 210.151,46.081C209.546,46.077 208.946,46.193 208.386,46.423C207.826,46.652 207.317,46.991 206.888,47.418C206.459,47.845 206.12,48.353 205.888,48.912C205.657,49.472 205.538,50.071 205.54,50.677L205.54,50.677Z" fill="#FFFFFF"/>
<path d="M74.988,17.868C75.767,17.812 76.549,17.93 77.278,18.213C78.006,18.496 78.662,18.937 79.199,19.504C79.737,20.071 80.141,20.75 80.384,21.493C80.627,22.236 80.702,23.023 80.604,23.798C80.604,27.61 78.543,29.802 74.988,29.802L70.678,29.802L70.678,17.868L74.988,17.868ZM72.531,28.114L74.781,28.114C75.338,28.147 75.895,28.056 76.412,27.847C76.929,27.638 77.393,27.316 77.77,26.905C78.147,26.493 78.428,26.003 78.592,25.47C78.755,24.937 78.798,24.374 78.717,23.822C78.792,23.272 78.745,22.713 78.579,22.183C78.413,21.654 78.131,21.168 77.755,20.76C77.379,20.352 76.917,20.033 76.403,19.824C75.889,19.616 75.335,19.524 74.781,19.554L72.531,19.554L72.531,28.114Z" fill="#FFFFFF"/>
<path d="M82.697,25.295C82.641,24.703 82.708,24.106 82.896,23.542C83.084,22.978 83.387,22.459 83.787,22.019C84.187,21.579 84.674,21.227 85.218,20.987C85.762,20.746 86.35,20.622 86.944,20.622C87.539,20.622 88.127,20.746 88.671,20.987C89.214,21.227 89.702,21.579 90.102,22.019C90.501,22.459 90.805,22.978 90.993,23.542C91.18,24.106 91.248,24.703 91.191,25.295C91.249,25.887 91.182,26.485 90.995,27.05C90.808,27.615 90.504,28.135 90.104,28.576C89.704,29.017 89.217,29.369 88.672,29.61C88.128,29.851 87.54,29.976 86.944,29.976C86.349,29.976 85.76,29.851 85.216,29.61C84.672,29.369 84.184,29.017 83.784,28.576C83.384,28.135 83.081,27.615 82.894,27.05C82.706,26.485 82.64,25.887 82.697,25.295L82.697,25.295ZM89.363,25.295C89.363,23.343 88.486,22.201 86.947,22.201C85.402,22.201 84.533,23.343 84.533,25.295C84.533,27.263 85.402,28.395 86.947,28.395C88.486,28.395 89.363,27.255 89.363,25.295L89.363,25.295Z" fill="#FFFFFF"/>
<path d="M102.482,29.802L100.639,29.802L98.777,23.169L98.637,23.169L96.783,29.802L94.957,29.802L92.475,20.796L94.277,20.796L95.891,27.668L96.023,27.668L97.875,20.796L99.58,20.796L101.432,27.668L101.572,27.668L103.178,20.796L104.955,20.796L102.482,29.802Z" fill="#FFFFFF"/>
<path d="M107.043,20.795L108.754,20.795L108.754,22.225L108.887,22.225C109.112,21.712 109.492,21.281 109.974,20.993C110.456,20.706 111.015,20.575 111.574,20.621C112.012,20.588 112.452,20.654 112.862,20.814C113.271,20.974 113.639,21.225 113.938,21.546C114.237,21.868 114.461,22.253 114.591,22.673C114.721,23.092 114.756,23.536 114.691,23.971L114.691,29.801L112.914,29.801L112.914,24.417C112.914,22.97 112.285,22.25 110.971,22.25C110.673,22.236 110.376,22.287 110.1,22.398C109.824,22.51 109.575,22.68 109.371,22.897C109.167,23.114 109.012,23.372 108.917,23.654C108.822,23.936 108.789,24.236 108.82,24.532L108.82,29.801L107.043,29.801L107.043,20.795Z" fill="#FFFFFF"/>
<rect  x="117.523" y="17.28" width="1.777" height="12.521" fill="#FFFFFF"/>
<path d="M121.772,25.295C121.715,24.703 121.783,24.106 121.97,23.542C122.158,22.977 122.462,22.459 122.862,22.019C123.262,21.579 123.749,21.227 124.293,20.987C124.836,20.746 125.425,20.622 126.019,20.622C126.614,20.622 127.202,20.746 127.745,20.987C128.289,21.227 128.777,21.579 129.177,22.019C129.576,22.459 129.88,22.977 130.068,23.542C130.255,24.106 130.323,24.703 130.267,25.295C130.324,25.887 130.257,26.485 130.07,27.05C129.883,27.615 129.579,28.135 129.179,28.576C128.779,29.017 128.292,29.369 127.747,29.61C127.203,29.851 126.614,29.975 126.019,29.975C125.424,29.975 124.835,29.851 124.291,29.61C123.747,29.369 123.259,29.017 122.859,28.576C122.459,28.135 122.155,27.615 121.968,27.05C121.781,26.485 121.714,25.887 121.772,25.295L121.772,25.295ZM128.438,25.295C128.438,23.343 127.561,22.201 126.022,22.201C124.477,22.201 123.608,23.343 123.608,25.295C123.608,27.263 124.477,28.395 126.022,28.395C127.561,28.395 128.438,27.255 128.438,25.295L128.438,25.295Z" fill="#FFFFFF"/>
<path d="M132.138,27.255C132.138,25.634 133.345,24.699 135.487,24.566L137.927,24.426L137.927,23.648C137.927,22.697 137.298,22.16 136.083,22.16C135.091,22.16 134.403,22.524 134.206,23.161L132.485,23.161C132.667,21.614 134.122,20.622 136.165,20.622C138.423,20.622 139.696,21.746 139.696,23.648L139.696,29.802L137.985,29.802L137.985,28.536L137.845,28.536C137.559,28.99 137.158,29.36 136.683,29.608C136.208,29.857 135.675,29.975 135.14,29.95C134.762,29.989 134.379,29.949 134.018,29.831C133.656,29.714 133.324,29.522 133.041,29.268C132.758,29.014 132.531,28.704 132.376,28.357C132.22,28.01 132.139,27.635 132.138,27.255L132.138,27.255ZM137.927,26.485L137.927,25.732L135.728,25.873C134.487,25.956 133.925,26.378 133.925,27.172C133.925,27.982 134.628,28.454 135.595,28.454C135.878,28.483 136.164,28.454 136.436,28.37C136.708,28.286 136.961,28.148 137.178,27.964C137.396,27.78 137.574,27.555 137.703,27.301C137.831,27.046 137.908,26.769 137.927,26.485L137.927,26.485Z" fill="#FFFFFF"/>
<path d="M142.032,25.295C142.032,22.449 143.495,20.646 145.771,20.646C146.333,20.62 146.892,20.755 147.381,21.035C147.87,21.315 148.269,21.728 148.532,22.226L148.665,22.226L148.665,17.28L150.442,17.28L150.442,29.802L148.739,29.802L148.739,28.379L148.599,28.379C148.315,28.874 147.902,29.282 147.404,29.559C146.905,29.836 146.34,29.971 145.771,29.95C143.48,29.95 142.032,28.147 142.032,25.295ZM143.868,25.295C143.868,27.205 144.769,28.354 146.274,28.354C147.772,28.354 148.698,27.188 148.698,25.303C148.698,23.426 147.763,22.243 146.274,22.243C144.778,22.243 143.868,23.4 143.868,25.295L143.868,25.295Z" fill="#FFFFFF"/>
<path d="M157.796,25.295C157.739,24.703 157.807,24.106 157.995,23.542C158.182,22.978 158.486,22.459 158.886,22.019C159.286,21.579 159.773,21.227 160.317,20.987C160.86,20.746 161.448,20.622 162.043,20.622C162.637,20.622 163.225,20.746 163.769,20.987C164.313,21.227 164.8,21.579 165.2,22.019C165.6,22.459 165.904,22.978 166.091,23.542C166.279,24.106 166.347,24.703 166.29,25.295C166.348,25.887 166.281,26.485 166.094,27.05C165.906,27.615 165.603,28.135 165.203,28.576C164.803,29.017 164.315,29.369 163.771,29.61C163.227,29.851 162.638,29.976 162.043,29.976C161.448,29.976 160.859,29.851 160.315,29.61C159.771,29.369 159.283,29.017 158.883,28.576C158.483,28.135 158.179,27.615 157.992,27.05C157.805,26.485 157.738,25.887 157.796,25.295L157.796,25.295ZM164.462,25.295C164.462,23.343 163.585,22.201 162.046,22.201C160.501,22.201 159.632,23.343 159.632,25.295C159.632,27.263 160.501,28.395 162.046,28.395C163.585,28.395 164.462,27.255 164.462,25.295Z" fill="#FFFFFF"/>
<path d="M168.675,20.795L170.386,20.795L170.386,22.225L170.519,22.225C170.744,21.712 171.124,21.281 171.606,20.993C172.087,20.706 172.647,20.575 173.206,20.621C173.644,20.588 174.084,20.654 174.493,20.814C174.903,20.974 175.271,21.225 175.57,21.546C175.869,21.868 176.092,22.253 176.223,22.673C176.353,23.092 176.388,23.536 176.323,23.971L176.323,29.801L174.546,29.801L174.546,24.417C174.546,22.97 173.917,22.25 172.603,22.25C172.305,22.236 172.008,22.287 171.732,22.398C171.456,22.51 171.207,22.68 171.003,22.897C170.799,23.114 170.644,23.372 170.549,23.654C170.454,23.936 170.421,24.236 170.452,24.532L170.452,29.801L168.675,29.801L168.675,20.795Z" fill="#FFFFFF"/>
<path d="M186.366,18.553L186.366,20.837L188.317,20.837L188.317,22.334L186.366,22.334L186.366,26.965C186.366,27.908 186.755,28.321 187.64,28.321C187.866,28.32 188.092,28.307 188.317,28.28L188.317,29.76C187.998,29.818 187.675,29.848 187.351,29.851C185.374,29.851 184.587,29.156 184.587,27.42L184.587,22.334L183.157,22.334L183.157,20.837L184.587,20.837L184.587,18.553L186.366,18.553Z" fill="#FFFFFF"/>
<path d="M190.745,17.28L192.507,17.28L192.507,22.243L192.647,22.243C192.884,21.724 193.274,21.291 193.766,21.002C194.257,20.714 194.825,20.584 195.393,20.63C195.829,20.606 196.265,20.679 196.67,20.843C197.074,21.007 197.438,21.258 197.734,21.579C198.03,21.9 198.252,22.282 198.383,22.698C198.515,23.114 198.553,23.554 198.495,23.987L198.495,29.802L196.716,29.802L196.716,24.426C196.716,22.987 196.046,22.259 194.79,22.259C194.485,22.233 194.177,22.275 193.89,22.382C193.602,22.488 193.341,22.655 193.125,22.873C192.909,23.09 192.744,23.352 192.639,23.641C192.535,23.929 192.495,24.236 192.523,24.542L192.523,29.801L190.745,29.801L190.745,17.28Z" fill="#FFFFFF"/>
<path d="M208.858,27.37C208.617,28.193 208.094,28.905 207.38,29.381C206.667,29.857 205.809,30.068 204.956,29.975C204.363,29.991 203.773,29.877 203.228,29.642C202.683,29.407 202.196,29.056 201.8,28.614C201.404,28.172 201.109,27.649 200.936,27.081C200.762,26.513 200.715,25.915 200.796,25.327C200.717,24.737 200.765,24.137 200.938,23.568C201.111,22.998 201.405,22.473 201.798,22.027C202.192,21.581 202.677,21.224 203.221,20.982C203.764,20.739 204.353,20.617 204.948,20.622C207.454,20.622 208.966,22.334 208.966,25.162L208.966,25.782L202.606,25.782L202.606,25.882C202.579,26.212 202.62,26.545 202.728,26.858C202.837,27.172 203.009,27.459 203.235,27.702C203.461,27.945 203.735,28.138 204.04,28.269C204.344,28.4 204.673,28.465 205.005,28.462C205.43,28.513 205.861,28.436 206.242,28.242C206.624,28.047 206.939,27.744 207.147,27.37L208.858,27.37ZM202.606,24.467L207.155,24.467C207.178,24.165 207.136,23.862 207.035,23.576C206.933,23.291 206.772,23.03 206.563,22.81C206.355,22.59 206.102,22.417 205.822,22.3C205.542,22.184 205.241,22.127 204.938,22.134C204.631,22.131 204.326,22.188 204.041,22.304C203.756,22.42 203.498,22.592 203.28,22.809C203.063,23.027 202.892,23.285 202.776,23.57C202.66,23.855 202.602,24.16 202.606,24.467L202.606,24.467Z" fill="#FFFFFF"/>
</svg>
