<svg width="46" height="52" viewBox="0 0 46 52" fill="none" xmlns="http://www.w3.org/2000/svg" xmlns:xlink="http://www.w3.org/1999/xlink">
<path d="M21.44,24.84L0.14,47.44C0.373,48.295 0.799,49.084 1.385,49.748C1.972,50.412 2.703,50.933 3.523,51.269C4.342,51.605 5.228,51.749 6.112,51.688C6.996,51.628 7.854,51.365 8.62,50.92L8.62,50.92L32.62,37.08L21.44,24.84Z" fill="#EA4335"/>
<path d="M42.98,21L32.62,15L20.98,25.38L32.66,37.08L42.96,31.08C43.876,30.59 44.641,29.86 45.175,28.969C45.708,28.078 45.99,27.059 45.99,26.02C45.99,24.981 45.708,23.962 45.175,23.071C44.641,22.18 43.876,21.45 42.96,20.96L42.98,21Z" fill="#FBBC04"/>
<path d="M0.14,4.561C0.034,5.033 -0.013,5.517 0,6.001L0,46.001C0.004,46.5 0.071,46.998 0.2,47.481L22.2,25.481L0.14,4.561Z" fill="#4285F4"/>
<path d="M21.6,25.999L32.62,14.979L8.62,1.099C7.718,0.563 6.689,0.28 5.64,0.279C4.375,0.283 3.146,0.702 2.141,1.471C1.137,2.241 0.413,3.319 0.08,4.539L0.08,4.539L21.6,25.999Z" fill="#34A853"/>
</svg>
