<svg width="46" height="50" viewBox="0 0 46 50" fill="none" xmlns="http://www.w3.org/2000/svg" xmlns:xlink="http://www.w3.org/1999/xlink">
<path d="M21.44,21.247L0.14,43.847C0.373,44.702 0.799,45.492 1.385,46.156C1.972,46.82 2.703,47.34 3.523,47.676C4.342,48.012 5.228,48.156 6.112,48.095C6.996,48.035 7.854,47.772 8.62,47.327L8.62,47.327L32.62,33.487L21.44,21.247Z" fill="#EA4335"/>
<path d="M42.98,17.407L32.62,11.407L20.98,21.787L32.66,33.487L42.96,27.487C43.876,26.997 44.641,26.267 45.175,25.376C45.708,24.485 45.99,23.466 45.99,22.427C45.99,21.389 45.708,20.369 45.175,19.478C44.641,18.587 43.876,17.858 42.96,17.367L42.98,17.407Z" fill="#FBBC04"/>
<path d="M0.14,0.968C0.034,1.44 -0.013,1.924 0,2.408L0,42.408C0.004,42.908 0.071,43.405 0.2,43.888L22.2,21.888L0.14,0.968Z" fill="#4285F4"/>
</svg>
