<svg width="128" height="130" viewBox="0 0 128 130" fill="none" xmlns="http://www.w3.org/2000/svg" xmlns:xlink="http://www.w3.org/1999/xlink">
<path d="M106,107.074L106,108.574C106.741,108.574 107.371,108.032 107.483,107.3C107.595,106.567 107.155,105.863 106.448,105.642L106,107.074ZM20.667,107.074L19.167,107.074C19.167,107.902 19.838,108.574 20.667,108.574L20.667,107.074ZM20.667,80.407L21.114,78.975C20.659,78.833 20.163,78.916 19.778,79.198C19.394,79.481 19.167,79.93 19.167,80.407L20.667,80.407ZM106,107.074L105.553,108.505C106.008,108.648 106.504,108.565 106.889,108.282C107.273,107.999 107.5,107.551 107.5,107.074L106,107.074ZM51.143,23.507L51.571,24.945L51.571,24.945L51.143,23.507ZM20.667,80.407L19.167,80.407C19.167,81.063 19.593,81.643 20.219,81.839L20.667,80.407ZM105.553,108.505C106.343,108.752 107.185,108.312 107.432,107.521C107.679,106.73 107.238,105.889 106.448,105.642L105.553,108.505ZM21.114,78.975C20.323,78.728 19.482,79.169 19.235,79.959C18.988,80.75 19.429,81.591 20.219,81.839L21.114,78.975ZM106,105.574L20.667,105.574L20.667,108.574L106,108.574L106,105.574ZM22.167,107.074L22.167,80.407L19.167,80.407L19.167,107.074L22.167,107.074ZM20.219,81.839L105.553,108.505L106.448,105.642L21.114,78.975L20.219,81.839ZM107.5,107.074L107.5,64.407L104.5,64.407L104.5,107.074L107.5,107.074ZM107.5,64.407C107.5,40.014 87.726,20.24 63.333,20.24L63.333,23.24C86.069,23.24 104.5,41.671 104.5,64.407L107.5,64.407ZM63.333,20.24C58.951,20.24 54.715,20.879 50.715,22.069L51.571,24.945C55.296,23.836 59.244,23.24 63.333,23.24L63.333,20.24ZM50.715,22.069C32.472,27.499 19.167,44.397 19.167,64.407L22.167,64.407C22.167,45.76 34.565,30.006 51.571,24.945L50.715,22.069ZM19.167,64.407L19.167,80.407L22.167,80.407L22.167,64.407L19.167,64.407ZM20.219,81.839L105.553,108.505L106.448,105.642L21.114,78.975L20.219,81.839ZM106.448,105.642L21.114,78.975L20.219,81.839L105.553,108.505L106.448,105.642Z" fill="#78350F"/>
<line x1="83.167" y1="48.407" x2="83.167" y2="53.741" stroke="#78350F" stroke-width="1.5" stroke-miterlimit="3.999327" stroke-linecap="round"/>
<line x1="61.833" y1="43.074" x2="61.833" y2="48.408" stroke="#78350F" stroke-width="1.5" stroke-miterlimit="3.999327" stroke-linecap="round"/>
<line x1="40.5" y1="37.74" x2="40.5" y2="43.074" stroke="#78350F" stroke-width="1.5" stroke-miterlimit="3.999327" stroke-linecap="round"/>
</svg>
