<svg width="130" height="128" viewBox="0 0 130 128" fill="none" xmlns="http://www.w3.org/2000/svg" xmlns:xlink="http://www.w3.org/1999/xlink">
<path d="M107.333,106.666L107.333,108.166C108.074,108.166 108.704,107.625 108.816,106.893C108.928,106.16 108.488,105.456 107.781,105.235L107.333,106.666ZM22,106.666L20.5,106.666C20.5,107.495 21.172,108.166 22,108.166L22,106.666ZM22,80L22.447,78.568C21.992,78.426 21.496,78.508 21.111,78.791C20.727,79.074 20.5,79.522 20.5,80L22,80ZM107.333,106.666L106.886,108.098C107.341,108.24 107.837,108.158 108.222,107.875C108.606,107.592 108.833,107.144 108.833,106.666L107.333,106.666ZM52.476,23.1L52.904,24.538L52.904,24.538L52.476,23.1ZM22,80L20.5,80C20.5,80.656 20.926,81.236 21.553,81.431L22,80ZM106.886,108.098C107.677,108.345 108.518,107.904 108.765,107.114C109.012,106.323 108.571,105.482 107.781,105.235L106.886,108.098ZM22.447,78.568C21.657,78.321 20.815,78.762 20.568,79.552C20.321,80.343 20.762,81.184 21.553,81.431L22.447,78.568ZM107.333,105.166L22,105.166L22,108.166L107.333,108.166L107.333,105.166ZM23.5,106.666L23.5,80L20.5,80L20.5,106.666L23.5,106.666ZM21.553,81.431L106.886,108.098L107.781,105.235L22.447,78.568L21.553,81.431ZM108.833,106.666L108.833,64L105.833,64L105.833,106.666L108.833,106.666ZM108.833,64C108.833,39.607 89.059,19.833 64.667,19.833L64.667,22.833C87.403,22.833 105.833,41.264 105.833,64L108.833,64ZM64.667,19.833C60.284,19.833 56.048,20.472 52.048,21.662L52.904,24.538C56.629,23.429 60.577,22.833 64.667,22.833L64.667,19.833ZM52.048,21.662C33.805,27.092 20.5,43.99 20.5,64L23.5,64C23.5,45.353 35.898,29.599 52.904,24.538L52.048,21.662ZM20.5,64L20.5,80L23.5,80L23.5,64L20.5,64ZM21.553,81.431L106.886,108.098L107.781,105.235L22.447,78.568L21.553,81.431ZM107.781,105.235L22.447,78.568L21.553,81.431L106.886,108.098L107.781,105.235Z" fill="#78350F"/>
<line x1="84.5" y1="48" x2="84.5" y2="53.333" stroke="#78350F" stroke-width="1.5" stroke-miterlimit="3.999327" stroke-linecap="round"/>
<line x1="63.167" y1="42.667" x2="63.167" y2="48" stroke="#78350F" stroke-width="1.5" stroke-miterlimit="3.999327" stroke-linecap="round"/>
<line x1="41.833" y1="37.333" x2="41.833" y2="42.666" stroke="#78350F" stroke-width="1.5" stroke-miterlimit="3.999327" stroke-linecap="round"/>
</svg>
