<svg width="48" height="50" viewBox="0 0 48 50" fill="none" xmlns="http://www.w3.org/2000/svg" xmlns:xlink="http://www.w3.org/1999/xlink">
<path d="M31.034,4.407L14.894,4.407C11.74,4.411 8.717,5.666 6.487,7.896C4.257,10.126 3.003,13.15 3,16.303L3,32.443C3.004,35.597 4.258,38.62 6.488,40.85C8.719,43.08 11.742,44.334 14.896,44.337L31.036,44.337C34.19,44.333 37.213,43.079 39.443,40.849C41.673,38.619 42.927,35.595 42.93,32.441L42.93,16.301C42.926,13.148 41.672,10.124 39.442,7.894C37.211,5.664 34.188,4.41 31.034,4.407L31.034,4.407ZM38.914,32.441C38.914,33.476 38.71,34.501 38.314,35.457C37.918,36.413 37.338,37.281 36.606,38.013C35.874,38.745 35.006,39.325 34.05,39.721C33.094,40.117 32.069,40.321 31.034,40.321L14.894,40.321C12.804,40.321 10.801,39.49 9.323,38.012C7.846,36.535 7.016,34.531 7.016,32.441L7.016,16.301C7.017,14.212 7.847,12.208 9.325,10.731C10.802,9.253 12.806,8.423 14.896,8.423L31.036,8.423C33.126,8.424 35.129,9.254 36.607,10.732C38.084,12.21 38.914,14.214 38.914,16.303L38.914,32.443L38.914,32.441Z" fill="#E2E8F0"/>
<path d="M22.964,14.045C20.227,14.049 17.603,15.139 15.668,17.074C13.733,19.01 12.644,21.634 12.64,24.371C12.643,27.109 13.732,29.734 15.668,31.67C17.604,33.606 20.228,34.695 22.966,34.699C25.704,34.696 28.329,33.607 30.266,31.671C32.202,29.734 33.291,27.109 33.294,24.371C33.29,21.633 32.2,19.009 30.263,17.074C28.327,15.138 25.702,14.05 22.964,14.047L22.964,14.045ZM22.964,30.683C21.29,30.683 19.686,30.018 18.502,28.835C17.319,27.652 16.654,26.047 16.654,24.373C16.654,22.7 17.319,21.095 18.502,19.911C19.686,18.728 21.29,18.063 22.964,18.063C24.638,18.063 26.242,18.728 27.426,19.911C28.609,21.095 29.274,22.7 29.274,24.373C29.274,26.047 28.609,27.652 27.426,28.835C26.242,30.018 24.638,30.683 22.964,30.683L22.964,30.683Z" fill="#E2E8F0"/>
<path d="M33.312,16.597C34.678,16.597 35.786,15.49 35.786,14.123C35.786,12.757 34.678,11.649 33.312,11.649C31.946,11.649 30.838,12.757 30.838,14.123C30.838,15.49 31.946,16.597 33.312,16.597Z" fill="#E2E8F0"/>
</svg>
