<svg width="128" height="128" viewBox="0 0 128 128" fill="none" xmlns="http://www.w3.org/2000/svg" xmlns:xlink="http://www.w3.org/1999/xlink">
<path d="M11.5,106.666L11.5,48L8.5,48L8.5,106.666L11.5,106.666ZM11.5,48C11.5,42.937 15.604,38.833 20.667,38.833L20.667,35.833C13.947,35.833 8.5,41.28 8.5,48L11.5,48ZM20.667,38.833L106,38.833L106,35.833L20.667,35.833L20.667,38.833ZM106,38.833C111.063,38.833 115.167,42.937 115.167,48L118.167,48C118.167,41.28 112.72,35.833 106,35.833L106,38.833ZM115.167,48L115.167,106.666L118.167,106.666L118.167,48L115.167,48ZM115.167,106.666C115.167,111.729 111.063,115.833 106,115.833L106,118.833C112.72,118.833 118.167,113.386 118.167,106.666L115.167,106.666ZM106,115.833L20.667,115.833L20.667,118.833L106,118.833L106,115.833ZM20.667,115.833C15.604,115.833 11.5,111.729 11.5,106.666L8.5,106.666C8.5,113.386 13.947,118.833 20.667,118.833L20.667,115.833Z" fill="#78350F"/>
<path d="M45.727,12.272C45.142,11.687 44.192,11.687 43.606,12.272C43.02,12.858 43.02,13.808 43.606,14.394L45.727,12.272ZM63.333,32L62.273,33.06C62.554,33.342 62.936,33.5 63.333,33.5C63.731,33.5 64.113,33.342 64.394,33.06L63.333,32ZM83.061,14.394C83.647,13.808 83.647,12.858 83.061,12.272C82.475,11.687 81.525,11.687 80.939,12.272L83.061,14.394ZM43.606,14.394L62.273,33.06L64.394,30.939L45.727,12.272L43.606,14.394ZM64.394,33.06L83.061,14.394L80.939,12.272L62.273,30.939L64.394,33.06Z" fill="#78350F"/>
</svg>
