<svg width="128" height="130" viewBox="0 0 128 130" fill="none" xmlns="http://www.w3.org/2000/svg" xmlns:xlink="http://www.w3.org/1999/xlink">
<path d="M11.5,107.074L11.5,48.407L8.5,48.407L8.5,107.074L11.5,107.074ZM11.5,48.407C11.5,43.344 15.604,39.24 20.667,39.24L20.667,36.24C13.947,36.24 8.5,41.687 8.5,48.407L11.5,48.407ZM20.667,39.24L106,39.24L106,36.24L20.667,36.24L20.667,39.24ZM106,39.24C111.063,39.24 115.167,43.344 115.167,48.407L118.167,48.407C118.167,41.687 112.72,36.24 106,36.24L106,39.24ZM115.167,48.407L115.167,107.074L118.167,107.074L118.167,48.407L115.167,48.407ZM115.167,107.074C115.167,112.136 111.063,116.24 106,116.24L106,119.24C112.72,119.24 118.167,113.793 118.167,107.074L115.167,107.074ZM106,116.24L20.667,116.24L20.667,119.24L106,119.24L106,116.24ZM20.667,116.24C15.604,116.24 11.5,112.136 11.5,107.074L8.5,107.074C8.5,113.793 13.947,119.24 20.667,119.24L20.667,116.24Z" fill="#78350F"/>
<path d="M45.727,12.68C45.142,12.094 44.192,12.094 43.606,12.68C43.02,13.265 43.02,14.215 43.606,14.801L45.727,12.68ZM63.333,32.407L62.273,33.468C62.554,33.749 62.936,33.907 63.333,33.907C63.731,33.907 64.113,33.749 64.394,33.468L63.333,32.407ZM83.061,14.801C83.647,14.215 83.647,13.265 83.061,12.68C82.475,12.094 81.525,12.094 80.939,12.68L83.061,14.801ZM43.606,14.801L62.273,33.468L64.394,31.346L45.727,12.68L43.606,14.801ZM64.394,33.468L83.061,14.801L80.939,12.68L62.273,31.346L64.394,33.468Z" fill="#78350F"/>
</svg>
