<svg width="48" height="48" viewBox="0 0 48 48" fill="none" xmlns="http://www.w3.org/2000/svg" xmlns:xlink="http://www.w3.org/1999/xlink">
<path d="M32.034,4L15.894,4C12.74,4.004 9.717,5.258 7.487,7.488C5.257,9.719 4.003,12.742 4,15.896L4,32.036C4.004,35.19 5.258,38.213 7.488,40.443C9.719,42.673 12.742,43.927 15.896,43.93L32.036,43.93C35.19,43.926 38.213,42.672 40.443,40.442C42.673,38.211 43.927,35.188 43.93,32.034L43.93,15.894C43.926,12.74 42.672,9.717 40.442,7.487C38.211,5.257 35.188,4.003 32.034,4L32.034,4ZM39.914,32.034C39.914,33.069 39.71,34.094 39.314,35.05C38.918,36.006 38.338,36.874 37.606,37.606C36.874,38.338 36.006,38.918 35.05,39.314C34.094,39.71 33.069,39.914 32.034,39.914L15.894,39.914C13.804,39.913 11.801,39.083 10.323,37.605C8.846,36.128 8.016,34.124 8.016,32.034L8.016,15.894C8.017,13.804 8.847,11.801 10.325,10.323C11.802,8.846 13.806,8.016 15.896,8.016L32.036,8.016C34.126,8.017 36.129,8.847 37.607,10.325C39.084,11.802 39.914,13.806 39.914,15.896L39.914,32.036L39.914,32.034Z" fill="#E2E8F0"/>
<path d="M23.964,13.638C21.227,13.642 18.603,14.732 16.668,16.667C14.733,18.603 13.644,21.227 13.64,23.964C13.643,26.702 14.732,29.327 16.668,31.263C18.604,33.199 21.228,34.288 23.966,34.292C26.704,34.289 29.329,33.2 31.266,31.264C33.202,29.327 34.291,26.702 34.294,23.964C34.29,21.226 33.2,18.602 31.263,16.666C29.327,14.731 26.702,13.643 23.964,13.64L23.964,13.638ZM23.964,30.276C22.29,30.276 20.686,29.611 19.502,28.428C18.319,27.244 17.654,25.64 17.654,23.966C17.654,22.292 18.319,20.688 19.502,19.504C20.686,18.321 22.29,17.656 23.964,17.656C25.638,17.656 27.242,18.321 28.426,19.504C29.609,20.688 30.274,22.292 30.274,23.966C30.274,25.64 29.609,27.244 28.426,28.428C27.242,29.611 25.638,30.276 23.964,30.276L23.964,30.276Z" fill="#E2E8F0"/>
<path d="M34.312,16.19C35.678,16.19 36.786,15.082 36.786,13.716C36.786,12.35 35.678,11.242 34.312,11.242C32.946,11.242 31.838,12.35 31.838,13.716C31.838,15.082 32.946,16.19 34.312,16.19Z" fill="#E2E8F0"/>
</svg>
