<svg width="40" height="40" viewBox="0 0 40 40" fill="none" xmlns="http://www.w3.org/2000/svg" xmlns:xlink="http://www.w3.org/1999/xlink">
<path d="M4.504,16C4.168,17.307 3.999,18.651 4,20C4,21.38 4.176,22.72 4.504,24L10.2,24C9.93,21.34 9.93,18.66 10.2,16L4.504,16ZM6.14,12L10.832,12C11.364,9.566 12.132,7.386 13.074,5.572C10.17,6.971 7.754,9.21 6.14,12L6.14,12ZM35.496,16L29.8,16C30.07,18.66 30.07,21.34 29.8,24L35.496,24C36.169,21.376 36.169,18.624 35.496,16ZM33.86,12C32.246,9.21 29.83,6.971 26.926,5.572C27.87,7.386 28.636,9.566 29.168,12L33.86,12ZM14.224,16C14.074,17.328 13.999,18.664 14,20C14,21.37 14.076,22.71 14.224,24L25.776,24C26.077,21.342 26.077,18.658 25.776,16L14.224,16ZM14.94,12L25.06,12C24.696,10.497 24.171,9.037 23.494,7.646C22.238,5.136 20.894,4 20,4C19.104,4 17.762,5.136 16.506,7.646C15.876,8.91 15.346,10.38 14.94,12ZM6.14,28C7.754,30.79 10.17,33.029 13.074,34.428C12.13,32.614 11.364,30.434 10.832,28L6.14,28L6.14,28ZM33.86,28L29.168,28C28.636,30.434 27.868,32.614 26.926,34.428C29.83,33.029 32.246,30.79 33.86,28ZM14.94,28C15.346,29.62 15.876,31.09 16.506,32.354C17.762,34.864 19.106,36 20,36C20.896,36 22.238,34.864 23.494,32.354C24.124,31.09 24.654,29.62 25.06,28L14.94,28L14.94,28ZM20,40C8.954,40 0,31.046 0,20C0,8.954 8.954,0 20,0C31.046,0 40,8.954 40,20C40,31.046 31.046,40 20,40Z" fill="#E2E8F0"/>
</svg>
