<svg width="40" height="40" viewBox="0 0 40 40" fill="none" xmlns="http://www.w3.org/2000/svg" xmlns:xlink="http://www.w3.org/1999/xlink">
<path d="M38.918,23.845L38.918,38.603L30.362,38.603L30.362,24.833C30.362,21.373 29.124,19.013 26.028,19.013C23.664,19.013 22.256,20.605 21.638,22.143C21.412,22.693 21.354,23.459 21.354,24.229L21.354,38.603L12.794,38.603C12.794,38.603 12.91,15.283 12.794,12.865L21.354,12.865L21.354,16.513L21.298,16.597L21.354,16.597L21.354,16.513C22.49,14.763 24.52,12.261 29.066,12.261C34.696,12.261 38.918,15.941 38.918,23.845L38.918,23.845ZM3.842,0.459C0.916,0.459 -1,2.379 -1,4.905C-1,7.375 0.86,9.353 3.73,9.353L3.786,9.353C6.772,9.353 8.626,7.375 8.626,4.905C8.574,2.379 6.774,0.459 3.844,0.459L3.842,0.459ZM-0.492,38.603L8.064,38.603L8.064,12.865L-0.492,12.865L-0.492,38.603Z" fill="#E2E8F0"/>
</svg>
