<svg width="62" height="64" viewBox="0 0 62 64" fill="none" xmlns="http://www.w3.org/2000/svg" xmlns:xlink="http://www.w3.org/1999/xlink">
<path d="M0,32.696L0.003,32.376L0.009,32.055L0.019,31.734L0.032,31.413L0.048,31.093L0.068,30.772L0.091,30.451L0.117,30.131L0.146,29.81L0.179,29.49L0.215,29.17L0.254,28.85L0.297,28.53L0.343,28.211L0.392,27.892L0.445,27.573L0.5,27.255L0.559,26.937L0.622,26.619L0.687,26.302L0.756,25.986L0.828,25.67L0.904,25.355L0.983,25.04L1.065,24.726L1.15,24.413L1.238,24.1L1.33,23.788L1.425,23.477L1.523,23.167L1.624,22.858L1.729,22.549L1.837,22.241L1.948,21.935L2.062,21.629L2.179,21.324L2.3,21.02L2.423,20.718L2.55,20.416L2.68,20.116L2.813,19.816L2.95,19.518L3.089,19.221L3.231,18.926L3.377,18.631L3.525,18.338L3.677,18.047L3.832,17.756L3.99,17.468L4.15,17.18L4.314,16.894L4.481,16.609L4.651,16.326L4.823,16.045L4.999,15.765L5.178,15.487L5.359,15.21L5.544,14.935L5.731,14.662L5.921,14.391L6.114,14.121L6.31,13.853L6.509,13.587L6.71,13.323L6.914,13.06L7.121,12.8L7.331,12.541L7.544,12.285L7.759,12.03L7.977,11.777L8.198,11.527L8.421,11.278L8.647,11.032L8.875,10.788L9.106,10.545L9.34,10.305L9.576,10.068L9.815,9.832L10.056,9.599L10.3,9.368L10.546,9.139L10.795,8.913L11.046,8.689L11.299,8.467L11.555,8.248L11.813,8.031L12.074,7.816L12.337,7.605L12.602,7.395L12.869,7.188L13.139,6.984L13.41,6.782L13.684,6.583L13.96,6.386L14.238,6.192L14.519,6.001L14.801,5.812L15.085,5.626L15.372,5.443L15.66,5.263L15.95,5.085L16.243,4.91L16.537,4.738L16.833,4.569L17.131,4.402L17.43,4.238L17.732,4.078L18.035,3.92L18.34,3.765L18.647,3.613L18.955,3.464L19.265,3.318L19.577,3.175L19.89,3.034L20.205,2.897L20.521,2.763L20.839,2.632L21.158,2.504L21.479,2.379L21.801,2.258L22.124,2.139L22.449,2.023L22.775,1.911L23.102,1.802L23.431,1.696L23.76,1.593L24.092,1.493L24.424,1.397L24.757,1.303L25.091,1.213L25.427,1.127L25.763,1.043L26.1,0.963L26.439,0.886L26.778,0.812L27.118,0.742L27.459,0.675L27.8,0.611L28.143,0.55L28.486,0.493L28.83,0.439L29.175,0.389L29.52,0.342L29.866,0.298L30.213,0.258L30.56,0.221L30.907,0.187L31.255,0.157L31.604,0.13L31.953,0.107L33.828,0L33.936,9.038L33.997,9.037L34.256,9.037L34.515,9.039L34.774,9.044L35.033,9.051L35.292,9.061L35.552,9.073L35.811,9.088L36.071,9.106L36.33,9.126L36.589,9.148L36.848,9.173L37.107,9.201L37.366,9.231L37.625,9.264L37.883,9.299L38.141,9.337L38.399,9.378L38.657,9.421L38.914,9.467L39.171,9.515L39.428,9.565L39.684,9.619L39.94,9.674L40.196,9.733L40.45,9.794L40.705,9.857L40.959,9.923L41.212,9.991L41.465,10.062L41.717,10.136L41.969,10.212L42.22,10.29L42.47,10.371L42.72,10.455L42.968,10.541L43.216,10.629L43.464,10.72L43.71,10.814L43.956,10.91L44.2,11.008L44.444,11.109L44.687,11.212L44.929,11.318L45.17,11.426L45.41,11.537L45.649,11.65L45.888,11.765L46.124,11.883L46.36,12.003L46.595,12.125L46.829,12.25L47.061,12.378L47.292,12.507L47.522,12.639L47.751,12.773L47.979,12.91L48.205,13.049L48.43,13.19L48.653,13.333L48.876,13.479L49.096,13.627L49.316,13.777L49.534,13.93L49.751,14.084L49.966,14.241L50.179,14.4L50.391,14.561L50.602,14.725L50.811,14.89L51.018,15.058L51.224,15.228L51.428,15.4L51.63,15.574L51.831,15.75L52.03,15.928L52.227,16.108L52.422,16.29L52.616,16.474L52.808,16.66L52.998,16.848L53.187,17.039L53.373,17.231L53.558,17.425L53.74,17.62L53.921,17.818L54.1,18.018L54.276,18.219L54.451,18.423L54.624,18.628L54.795,18.835L54.964,19.044L55.131,19.254L55.295,19.466L55.458,19.68L55.618,19.896L55.776,20.113L55.933,20.332L56.087,20.553L56.238,20.775L56.388,20.999L56.535,21.224L56.68,21.451L56.823,21.68L56.964,21.909L57.102,22.141L57.238,22.374L57.372,22.608L57.503,22.844L57.632,23.081L57.759,23.32L57.883,23.56L58.004,23.801L58.124,24.044L58.241,24.288L58.355,24.533L58.467,24.779L58.577,25.027L58.684,25.276L58.788,25.526L58.891,25.777L58.99,26.029L59.087,26.283L59.181,26.537L59.273,26.792L59.363,27.049L59.449,27.307L59.533,27.565L59.615,27.824L59.694,28.085L59.77,28.346L59.844,28.608L59.914,28.871L59.983,29.135L60.048,29.4L60.111,29.665L60.171,29.931L60.229,30.198L60.284,30.465L60.336,30.734L60.385,31.002L60.432,31.272L60.476,31.542L60.517,31.812L60.555,32.084L60.591,32.355L60.623,32.627L60.653,32.9L60.681,33.173L60.705,33.446L60.727,33.72L60.746,33.994L60.762,34.268L60.775,34.543L60.786,34.818L60.793,35.093L60.798,35.368L60.8,35.644L60.799,35.919L60.796,36.195L60.789,36.471L60.78,36.747L60.768,37.023L60.753,37.299L60.735,37.575L60.714,37.851L60.691,38.127L60.664,38.403L60.635,38.678L60.603,38.954L60.568,39.229L60.53,39.504L60.49,39.779L60.446,40.054L60.4,40.328L60.351,40.602L60.299,40.875L60.244,41.149L60.187,41.421L60.126,41.694L60.063,41.966L59.997,42.237L59.928,42.508L59.857,42.778L59.782,43.048L59.705,43.317L59.625,43.586L59.542,43.854L59.456,44.121L59.368,44.387L59.277,44.653L59.183,44.918L59.086,45.182L58.987,45.445L58.884,45.708L58.779,45.969L58.672,46.23L58.561,46.489L58.448,46.748L58.332,47.006L58.214,47.263L58.092,47.518L57.969,47.773L57.842,48.027L57.713,48.279L57.581,48.53L57.446,48.78L57.309,49.029L57.169,49.277L57.027,49.523L56.882,49.768L56.735,50.012L56.584,50.254L56.432,50.495L56.276,50.735L56.119,50.973L55.959,51.21L55.796,51.445L55.631,51.679L55.463,51.912L55.293,52.143L55.12,52.372L54.945,52.6L54.768,52.825L54.588,53.05L54.405,53.273L54.221,53.494L54.034,53.713L53.844,53.931L53.653,54.146L53.459,54.36L53.263,54.573L53.064,54.783L52.864,54.992L52.661,55.198L52.455,55.403L52.248,55.606L52.039,55.807L51.827,56.006L51.613,56.203L51.397,56.398L51.179,56.591L50.959,56.782L50.737,56.971L50.513,57.157L50.286,57.342L50.058,57.524L49.828,57.705L49.596,57.883L49.362,58.059L49.126,58.232L48.888,58.404L48.648,58.573L48.407,58.74L48.163,58.905L47.918,59.067L47.671,59.227L47.422,59.385L47.172,59.54L46.92,59.693L46.666,59.843L46.41,59.992L46.153,60.137L45.895,60.28L45.634,60.421L45.372,60.559L45.109,60.695L44.844,60.828L44.578,60.959L44.31,61.087L44.041,61.212L43.77,61.335L43.498,61.455L43.224,61.573L42.95,61.688L42.674,61.8L42.396,61.91L42.118,62.017L41.838,62.122L41.557,62.223L41.275,62.322L40.992,62.419L40.707,62.512L40.422,62.603L40.135,62.691L39.848,62.776L39.559,62.859L39.27,62.938L38.979,63.015L38.688,63.089L38.396,63.16L38.102,63.229L37.808,63.294L37.514,63.357L37.218,63.417L36.922,63.474L36.625,63.528L36.327,63.579L36.029,63.627L35.73,63.673L35.43,63.715L35.13,63.755L34.83,63.791L34.528,63.825L34.227,63.856L33.925,63.883L33.622,63.908L33.319,63.93L33.016,63.949L32.712,63.965L32.409,63.978L32.105,63.988L31.8,63.995L31.496,63.999L31.191,64L30.886,63.998L30.581,63.993L30.276,63.985L29.971,63.974L29.666,63.96L29.361,63.944L29.056,63.924L28.751,63.901L28.446,63.875L28.141,63.846L27.836,63.814L27.532,63.779L27.228,63.741L26.924,63.7L26.62,63.656L26.317,63.609L26.014,63.559L25.712,63.507L25.409,63.451L25.108,63.392L24.806,63.33L24.506,63.265L24.205,63.197L23.906,63.126L23.607,63.053L23.308,62.976L23.011,62.896L22.714,62.814L22.417,62.728L22.122,62.64L21.827,62.548L21.533,62.454L21.24,62.356L20.948,62.256L20.656,62.153L20.366,62.047L20.076,61.938L19.788,61.826L19.501,61.711L19.214,61.594L18.929,61.473L18.645,61.35L18.362,61.224L18.08,61.095L17.799,60.963L17.52,60.829L17.242,60.691L16.965,60.551L16.689,60.408L16.415,60.262L16.142,60.114L15.871,59.963L15.601,59.809L15.332,59.652L15.065,59.493L14.8,59.331L14.536,59.166L14.274,58.999L14.013,58.829L13.754,58.656L13.496,58.481L13.241,58.303L12.987,58.123L12.734,57.94L12.484,57.755L12.235,57.566L11.988,57.376L11.743,57.183L11.5,56.987L11.259,56.789L11.019,56.589L10.782,56.386L10.546,56.181L10.313,55.973L10.082,55.763L9.852,55.55L9.625,55.336L9.4,55.119L9.177,54.899L8.956,54.677L8.738,54.454L8.521,54.227L8.307,53.999L8.095,53.768L7.885,53.536L7.678,53.301L7.473,53.064L7.27,52.825L7.07,52.584L6.872,52.34L6.676,52.095L6.483,51.848L6.293,51.598L6.105,51.347L5.919,51.094L5.736,50.838L5.555,50.581L5.377,50.322L5.202,50.062L5.029,49.799L4.859,49.535L4.691,49.268L4.526,49L4.364,48.731L4.204,48.459L4.047,48.186L3.893,47.912L3.742,47.635L3.593,47.357L3.448,47.078L3.305,46.797L3.165,46.514L3.027,46.23L2.893,45.944L2.761,45.658L2.633,45.369L2.507,45.08L2.384,44.788L2.264,44.496L2.147,44.202L2.033,43.907L1.922,43.611L1.814,43.314L1.709,43.015L1.607,42.715L1.508,42.414L1.412,42.112L1.319,41.809L1.229,41.505L1.142,41.2L1.059,40.894L0.978,40.587L0.901,40.28L0.826,39.971L0.755,39.661L0.687,39.351L0.622,39.039L0.561,38.727L0.502,38.415L0.447,38.101L0.395,37.787L0.346,37.472L0.3,37.157L0.258,36.841L0.218,36.525L0.182,36.208L0.149,35.89L0.12,35.572L0.093,35.254L0.07,34.935L0.05,34.616L0.034,34.297L0.02,33.977L0.01,33.657L0.004,33.337L0,33.017L0,32.696ZM31.005,9.227L30.932,3.067L30.863,3.074L30.545,3.107L30.227,3.144L29.91,3.184L29.594,3.227L29.279,3.274L28.964,3.323L28.649,3.375L28.336,3.431L28.023,3.489L27.71,3.55L27.4,3.615L27.089,3.682L26.779,3.753L26.47,3.826L26.163,3.903L25.856,3.982L25.55,4.065L25.244,4.15L24.941,4.238L24.638,4.329L24.336,4.424L24.035,4.521L23.736,4.621L23.437,4.724L23.14,4.829L22.844,4.938L22.55,5.049L22.256,5.163L21.965,5.28L21.674,5.4L21.384,5.523L21.096,5.648L20.81,5.777L20.525,5.907L20.242,6.041L19.959,6.177L19.679,6.316L19.4,6.458L19.123,6.602L18.847,6.749L18.573,6.899L18.301,7.051L18.03,7.206L17.761,7.363L17.494,7.524L17.228,7.686L16.965,7.851L16.703,8.018L16.443,8.189L16.185,8.361L15.929,8.536L15.675,8.713L15.422,8.893L15.172,9.075L14.924,9.259L14.677,9.446L14.433,9.635L14.191,9.827L13.951,10.02L13.713,10.216L13.477,10.414L13.243,10.614L13.012,10.817L12.782,11.022L12.555,11.228L12.33,11.437L12.108,11.648L11.887,11.861L11.669,12.076L11.454,12.294L11.24,12.513L11.029,12.734L10.821,12.957L10.614,13.182L10.41,13.409L10.209,13.638L10.01,13.868L9.813,14.101L9.619,14.335L9.428,14.571L9.239,14.809L9.052,15.049L8.868,15.29L8.687,15.533L8.508,15.777L8.332,16.023L8.158,16.271L7.987,16.521L7.819,16.772L7.653,17.024L7.49,17.278L7.33,17.533L7.173,17.79L7.018,18.048L6.866,18.308L6.716,18.569L6.57,18.831L6.426,19.094L6.284,19.359L6.146,19.625L6.011,19.893L5.878,20.161L5.748,20.431L5.621,20.701L5.497,20.973L5.375,21.246L5.257,21.52L5.141,21.795L5.028,22.071L4.918,22.348L4.811,22.626L4.707,22.905L4.606,23.184L4.508,23.465L4.413,23.746L4.32,24.028L4.231,24.311L4.144,24.595L4.061,24.879L3.98,25.164L3.902,25.449L3.828,25.736L3.756,26.022L3.687,26.31L3.621,26.597L3.559,26.886L3.499,27.175L3.442,27.464L3.388,27.753L3.337,28.043L3.29,28.334L3.245,28.624L3.203,28.915L3.164,29.206L3.128,29.498L3.095,29.789L3.066,30.081L3.039,30.373L3.015,30.665L2.994,30.957L2.976,31.249L2.962,31.541L2.95,31.833L2.941,32.125L2.935,32.417L2.932,32.709L2.933,33.001L2.936,33.292L2.942,33.584L2.951,33.875L2.963,34.166L2.978,34.457L2.996,34.747L3.017,35.037L3.041,35.327L3.068,35.616L3.098,35.905L3.131,36.193L3.167,36.481L3.206,36.768L3.247,37.055L3.292,37.342L3.339,37.627L3.389,37.912L3.443,38.197L3.499,38.481L3.558,38.764L3.62,39.046L3.684,39.328L3.752,39.608L3.822,39.888L3.896,40.168L3.972,40.446L4.05,40.723L4.132,41L4.217,41.275L4.304,41.55L4.394,41.823L4.487,42.096L4.582,42.367L4.68,42.637L4.781,42.907L4.885,43.175L4.991,43.442L5.1,43.707L5.212,43.972L5.326,44.235L5.443,44.497L5.563,44.758L5.685,45.017L5.809,45.275L5.937,45.532L6.067,45.787L6.199,46.041L6.334,46.294L6.471,46.545L6.611,46.794L6.754,47.042L6.899,47.289L7.046,47.534L7.196,47.777L7.348,48.019L7.503,48.259L7.66,48.497L7.819,48.734L7.98,48.969L8.144,49.203L8.311,49.434L8.479,49.664L8.65,49.892L8.823,50.119L8.998,50.343L9.176,50.566L9.355,50.786L9.537,51.005L9.721,51.222L9.907,51.437L10.095,51.651L10.286,51.862L10.478,52.071L10.672,52.278L10.869,52.483L11.067,52.686L11.267,52.888L11.469,53.086L11.674,53.283L11.88,53.478L12.088,53.671L12.298,53.861L12.509,54.05L12.723,54.236L12.938,54.42L13.155,54.602L13.374,54.781L13.594,54.959L13.816,55.133L14.04,55.306L14.266,55.477L14.493,55.645L14.721,55.811L14.952,55.974L15.183,56.135L15.417,56.294L15.652,56.451L15.888,56.605L16.126,56.756L16.365,56.905L16.605,57.052L16.847,57.197L17.091,57.339L17.335,57.478L17.581,57.615L17.828,57.749L18.076,57.881L18.326,58.011L18.577,58.138L18.829,58.262L19.082,58.384L19.336,58.503L19.591,58.62L19.847,58.734L20.105,58.846L20.363,58.955L20.622,59.061L20.882,59.165L21.144,59.266L21.406,59.365L21.668,59.461L21.932,59.554L22.197,59.645L22.462,59.733L22.728,59.819L22.995,59.901L23.262,59.982L23.53,60.059L23.799,60.134L24.068,60.206L24.338,60.275L24.609,60.342L24.88,60.406L25.152,60.468L25.424,60.526L25.696,60.582L25.969,60.635L26.242,60.686L26.516,60.734L26.79,60.779L27.064,60.821L27.338,60.861L27.613,60.898L27.888,60.932L28.163,60.964L28.439,60.993L28.714,61.019L28.99,61.042L29.266,61.063L29.541,61.081L29.817,61.096L30.093,61.109L30.368,61.119L30.644,61.126L30.92,61.13L31.195,61.132L31.471,61.131L31.746,61.127L32.021,61.121L32.295,61.112L32.57,61.1L32.844,61.086L33.118,61.069L33.392,61.049L33.665,61.027L33.938,61.002L34.21,60.974L34.482,60.943L34.753,60.91L35.024,60.875L35.295,60.836L35.565,60.795L35.834,60.752L36.103,60.706L36.371,60.657L36.638,60.605L36.905,60.552L37.171,60.495L37.436,60.436L37.701,60.374L37.965,60.31L38.228,60.243L38.49,60.174L38.751,60.102L39.011,60.027L39.271,59.95L39.529,59.871L39.787,59.789L40.043,59.705L40.299,59.618L40.553,59.529L40.807,59.437L41.059,59.343L41.31,59.246L41.56,59.147L41.809,59.046L42.057,58.942L42.303,58.836L42.548,58.728L42.792,58.617L43.035,58.504L43.277,58.388L43.517,58.271L43.756,58.151L43.993,58.028L44.229,57.904L44.464,57.777L44.696,57.648L44.928,57.517L45.158,57.384L45.387,57.248L45.614,57.11L45.84,56.97L46.064,56.828L46.286,56.684L46.507,56.538L46.727,56.389L46.944,56.239L47.16,56.087L47.374,55.932L47.586,55.776L47.797,55.618L48.006,55.457L48.214,55.295L48.419,55.131L48.622,54.965L48.824,54.796L49.024,54.626L49.222,54.455L49.419,54.281L49.613,54.106L49.805,53.928L49.996,53.749L50.184,53.569L50.371,53.386L50.556,53.202L50.738,53.016L50.919,52.828L51.097,52.639L51.274,52.448L51.448,52.255L51.62,52.061L51.791,51.865L51.959,51.668L52.125,51.469L52.289,51.269L52.45,51.068L52.61,50.864L52.767,50.66L52.923,50.453L53.076,50.246L53.226,50.037L53.375,49.827L53.521,49.616L53.665,49.403L53.807,49.189L53.946,48.973L54.084,48.756L54.219,48.539L54.351,48.32L54.481,48.099L54.609,47.878L54.735,47.656L54.858,47.432L54.979,47.208L55.097,46.982L55.213,46.755L55.327,46.528L55.438,46.299L55.547,46.069L55.654,45.839L55.758,45.607L55.859,45.375L55.958,45.142L56.055,44.908L56.149,44.673L56.241,44.438L56.33,44.201L56.417,43.964L56.501,43.726L56.583,43.488L56.663,43.249L56.739,43.01L56.814,42.769L56.886,42.528L56.955,42.287L57.022,42.045L57.086,41.802L57.148,41.559L57.207,41.316L57.264,41.072L57.318,40.828L57.37,40.583L57.419,40.338L57.465,40.092L57.509,39.847L57.551,39.601L57.589,39.355L57.626,39.109L57.66,38.862L57.691,38.616L57.72,38.368L57.746,38.122L57.769,37.874L57.79,37.627L57.809,37.38L57.825,37.133L57.838,36.885L57.849,36.638L57.858,36.391L57.864,36.144L57.867,35.897L57.868,35.65L57.866,35.403L57.861,35.156L57.855,34.91L57.845,34.664L57.833,34.418L57.819,34.172L57.802,33.927L57.783,33.682L57.761,33.437L57.736,33.193L57.709,32.949L57.68,32.705L57.648,32.462L57.614,32.22L57.577,31.977L57.538,31.736L57.496,31.495L57.452,31.254L57.405,31.014L57.356,30.775L57.305,30.536L57.251,30.299L57.195,30.061L57.136,29.825L57.075,29.588L57.012,29.354L56.946,29.119L56.878,28.885L56.807,28.653L56.735,28.421L56.659,28.19L56.582,27.96L56.502,27.73L56.42,27.502L56.336,27.274L56.249,27.048L56.16,26.823L56.069,26.598L55.975,26.375L55.88,26.153L55.782,25.931L55.682,25.712L55.579,25.492L55.475,25.275L55.368,25.058L55.26,24.842L55.149,24.628L55.036,24.415L54.92,24.203L54.804,23.993L54.684,23.783L54.563,23.575L54.439,23.368L54.314,23.164L54.186,22.959L54.057,22.757L53.925,22.555L53.792,22.356L53.656,22.158L53.519,21.961L53.38,21.765L53.238,21.571L53.095,21.379L52.95,21.188L52.803,20.999L52.655,20.811L52.504,20.625L52.352,20.441L52.198,20.258L52.042,20.076L51.884,19.897L51.725,19.719L51.564,19.542L51.4,19.368L51.236,19.195L51.07,19.024L50.902,18.854L50.733,18.687L50.562,18.521L50.389,18.356L50.215,18.194L50.039,18.034L49.862,17.875L49.683,17.718L49.503,17.564L49.321,17.41L49.138,17.259L48.953,17.11L48.767,16.962L48.58,16.817L48.391,16.673L48.2,16.531L48.009,16.392L47.816,16.254L47.622,16.119L47.427,15.985L47.23,15.853L47.033,15.724L46.834,15.596L46.634,15.47L46.432,15.347L46.23,15.225L46.026,15.106L45.822,14.988L45.616,14.873L45.409,14.76L45.201,14.649L44.992,14.54L44.783,14.433L44.572,14.328L44.36,14.225L44.148,14.125L43.934,14.027L43.72,13.931L43.505,13.837L43.282,13.742L43.072,13.655L42.854,13.568L42.637,13.483L42.417,13.399L42.198,13.319L41.977,13.24L41.756,13.164L41.534,13.089L41.312,13.017L41.089,12.948L40.866,12.88L40.642,12.815L40.417,12.752L40.192,12.691L39.967,12.633L39.741,12.576L39.514,12.522L39.288,12.471L39.06,12.421L38.833,12.374L38.605,12.329L38.377,12.286L38.149,12.245L37.92,12.207L37.691,12.171L37.462,12.138L37.233,12.106L37.003,12.077L36.774,12.05L36.544,12.026L36.314,12.004L36.084,11.983L35.854,11.966L35.624,11.95L35.394,11.937L35.165,11.926L34.934,11.917L34.705,11.911L34.475,11.907L34.245,11.905L34.016,11.905L33.969,11.906L34.042,18.021L34.172,18.02L34.34,18.021L34.508,18.024L34.676,18.028L34.844,18.034L35.012,18.042L35.18,18.051L35.349,18.062L35.517,18.075L35.685,18.089L35.854,18.105L36.022,18.123L36.19,18.142L36.358,18.163L36.526,18.185L36.694,18.21L36.862,18.236L37.03,18.264L37.198,18.293L37.365,18.324L37.532,18.357L37.699,18.391L37.866,18.427L38.033,18.465L38.199,18.504L38.365,18.546L38.531,18.588L38.696,18.633L38.861,18.679L39.026,18.727L39.19,18.776L39.354,18.827L39.518,18.88L39.681,18.934L39.844,18.991L40.006,19.048L40.168,19.108L40.329,19.169L40.49,19.231L40.651,19.296L40.811,19.362L40.97,19.429L41.128,19.498L41.287,19.569L41.444,19.642L41.601,19.716L41.757,19.791L41.913,19.869L42.068,19.948L42.222,20.028L42.375,20.11L42.528,20.194L42.68,20.279L42.831,20.365L42.982,20.454L43.132,20.544L43.28,20.635L43.428,20.728L43.576,20.823L43.722,20.919L43.867,21.016L44.012,21.115L44.156,21.216L44.298,21.318L44.44,21.421L44.581,21.526L44.721,21.633L44.86,21.741L44.998,21.85L45.134,21.961L45.27,22.073L45.405,22.187L45.539,22.302L45.671,22.418L45.803,22.536L45.933,22.656L46.062,22.776L46.191,22.898L46.317,23.022L46.443,23.147L46.568,23.273L46.691,23.4L46.813,23.529L46.934,23.659L47.054,23.79L47.172,23.923L47.289,24.057L47.405,24.192L47.52,24.328L47.633,24.466L47.745,24.605L47.856,24.745L47.965,24.886L48.072,25.028L48.179,25.172L48.284,25.317L48.388,25.463L48.49,25.61L48.59,25.758L48.69,25.907L48.787,26.057L48.884,26.209L48.979,26.361L49.072,26.515L49.164,26.669L49.254,26.825L49.343,26.981L49.43,27.139L49.516,27.298L49.6,27.457L49.682,27.618L49.763,27.779L49.843,27.941L49.92,28.105L49.996,28.269L50.071,28.434L50.144,28.6L50.215,28.766L50.284,28.934L50.352,29.102L50.418,29.271L50.482,29.441L50.545,29.612L50.606,29.783L50.665,29.955L50.723,30.128L50.779,30.302L50.833,30.476L50.885,30.651L50.936,30.826L50.984,31.002L51.031,31.179L51.077,31.356L51.12,31.534L51.162,31.713L51.201,31.892L51.239,32.071L51.276,32.251L51.31,32.432L51.342,32.613L51.373,32.794L51.402,32.976L51.429,33.158L51.454,33.341L51.477,33.524L51.498,33.708L51.518,33.891L51.535,34.075L51.551,34.26L51.565,34.444L51.577,34.629L51.587,34.815L51.595,35L51.601,35.186L51.606,35.372L51.608,35.558L51.608,35.744L51.607,35.93L51.604,36.116L51.598,36.303L51.591,36.49L51.582,36.676L51.571,36.863L51.558,37.05L51.543,37.237L51.526,37.423L51.508,37.61L51.487,37.797L51.464,37.983L51.44,38.17L51.413,38.356L51.384,38.542L51.354,38.728L51.322,38.914L51.287,39.1L51.251,39.286L51.213,39.471L51.173,39.656L51.131,39.841L51.087,40.025L51.041,40.21L50.993,40.394L50.943,40.577L50.892,40.76L50.838,40.943L50.783,41.125L50.725,41.308L50.666,41.489L50.604,41.67L50.541,41.851L50.476,42.031L50.409,42.21L50.34,42.389L50.269,42.568L50.197,42.746L50.122,42.923L50.046,43.1L49.968,43.276L49.887,43.452L49.805,43.626L49.721,43.8L49.636,43.974L49.548,44.147L49.459,44.319L49.367,44.49L49.274,44.66L49.179,44.83L49.083,44.998L48.984,45.166L48.884,45.333L48.782,45.5L48.678,45.665L48.572,45.829L48.465,45.993L48.356,46.155L48.245,46.317L48.132,46.477L48.018,46.637L47.901,46.796L47.784,46.953L47.664,47.11L47.543,47.265L47.42,47.419L47.295,47.572L47.169,47.724L47.041,47.876L46.912,48.025L46.78,48.174L46.648,48.321L46.513,48.468L46.377,48.612L46.24,48.756L46.101,48.899L45.96,49.04L45.818,49.18L45.674,49.319L45.528,49.456L45.382,49.592L45.233,49.726L45.084,49.86L44.932,49.991L44.78,50.122L44.625,50.251L44.47,50.379L44.313,50.505L44.154,50.629L43.994,50.752L43.833,50.874L43.671,50.994L43.507,51.113L43.342,51.23L43.175,51.346L43.007,51.46L42.838,51.572L42.668,51.683L42.496,51.793L42.323,51.9L42.149,52.006L41.974,52.111L41.797,52.213L41.619,52.314L41.44,52.414L41.26,52.512L41.079,52.608L40.897,52.702L40.714,52.794L40.529,52.885L40.344,52.974L40.157,53.061L39.97,53.147L39.781,53.23L39.592,53.312L39.401,53.392L39.21,53.471L39.018,53.547L38.824,53.622L38.63,53.694L38.435,53.765L38.24,53.834L38.043,53.901L37.845,53.967L37.647,54.03L37.448,54.091L37.248,54.151L37.047,54.208L36.846,54.264L36.644,54.317L36.441,54.369L36.238,54.419L36.034,54.467L35.829,54.512L35.624,54.556L35.418,54.598L35.212,54.638L35.005,54.676L34.797,54.712L34.589,54.745L34.381,54.777L34.172,54.807L33.963,54.835L33.753,54.86L33.543,54.884L33.332,54.905L33.121,54.925L32.91,54.942L32.699,54.958L32.487,54.971L32.275,54.982L32.062,54.991L31.85,54.998L31.637,55.003L31.424,55.006L31.211,55.007L30.997,55.006L30.784,55.002L30.57,54.997L30.357,54.989L30.143,54.979L29.929,54.968L29.716,54.954L29.502,54.938L29.288,54.919L29.075,54.899L28.861,54.877L28.648,54.852L28.435,54.826L28.221,54.797L28.008,54.766L27.796,54.733L27.583,54.698L27.37,54.661L27.158,54.621L26.946,54.58L26.735,54.536L26.524,54.491L26.313,54.443L26.102,54.393L25.892,54.341L25.682,54.287L25.473,54.231L25.264,54.173L25.055,54.112L24.847,54.05L24.64,53.985L24.433,53.919L24.227,53.85L24.021,53.779L23.816,53.707L23.611,53.632L23.407,53.555L23.204,53.476L23.001,53.395L22.8,53.312L22.598,53.226L22.398,53.139L22.199,53.05L22,52.959L21.802,52.866L21.605,52.771L21.408,52.673L21.213,52.574L21.018,52.473L20.825,52.37L20.632,52.265L20.44,52.158L20.25,52.048L20.06,51.938L19.871,51.825L19.684,51.71L19.497,51.593L19.312,51.474L19.127,51.354L18.944,51.231L18.762,51.107L18.581,50.981L18.401,50.853L18.223,50.723L18.046,50.591L17.869,50.458L17.695,50.322L17.521,50.185L17.349,50.046L17.178,49.906L17.009,49.763L16.84,49.619L16.674,49.473L16.508,49.325L16.344,49.176L16.182,49.025L16.021,48.872L15.861,48.717L15.703,48.561L15.547,48.403L15.392,48.244L15.238,48.083L15.086,47.92L14.936,47.756L14.787,47.59L14.64,47.423L14.494,47.254L14.35,47.083L14.208,46.911L14.068,46.738L13.929,46.563L13.792,46.386L13.656,46.208L13.523,46.029L13.391,45.848L13.261,45.666L13.132,45.483L13.006,45.298L12.881,45.112L12.759,44.924L12.638,44.735L12.518,44.545L12.401,44.353L12.286,44.16L12.173,43.967L12.061,43.771L11.952,43.575L11.844,43.377L11.739,43.178L11.635,42.978L11.533,42.777L11.434,42.575L11.336,42.372L11.241,42.167L11.147,41.962L11.056,41.755L10.966,41.548L10.879,41.339L10.794,41.13L10.711,40.919L10.63,40.708L10.551,40.496L10.474,40.282L10.399,40.068L10.327,39.853L10.257,39.637L10.189,39.421L10.123,39.204L10.059,38.985L9.998,38.766L9.938,38.547L9.881,38.326L9.826,38.105L9.774,37.884L9.724,37.661L9.675,37.438L9.63,37.215L9.586,36.99L9.545,36.766L9.506,36.54L9.469,36.315L9.435,36.088L9.403,35.862L9.373,35.634L9.346,35.407L9.32,35.179L9.298,34.95L9.277,34.722L9.259,34.492L9.243,34.263L9.23,34.033L9.219,33.804L9.21,33.573L9.204,33.343L9.2,33.112L9.198,32.882L9.199,32.651L9.202,32.42L9.207,32.189L9.215,31.957L9.226,31.726L9.238,31.495L9.253,31.264L9.271,31.032L9.29,30.801L9.313,30.57L9.337,30.339L9.364,30.108L9.393,29.877L9.425,29.646L9.459,29.416L9.496,29.185L9.535,28.955L9.576,28.726L9.62,28.496L9.666,28.267L9.714,28.038L9.765,27.809L9.818,27.581L9.874,27.353L9.932,27.126L9.992,26.899L10.054,26.672L10.12,26.447L10.187,26.221L10.257,25.996L10.329,25.772L10.403,25.548L10.48,25.325L10.559,25.102L10.64,24.88L10.724,24.659L10.81,24.439L10.899,24.219L10.989,24L11.082,23.781L11.178,23.564L11.275,23.347L11.375,23.131L11.477,22.916L11.582,22.702L11.688,22.489L11.797,22.277L11.908,22.066L12.022,21.855L12.137,21.646L12.255,21.438L12.375,21.23L12.498,21.024L12.622,20.819L12.749,20.615L12.877,20.412L13.008,20.21L13.141,20.01L13.276,19.811L13.414,19.612L13.553,19.416L13.695,19.22L13.838,19.026L13.984,18.832L14.132,18.641L14.281,18.45L14.433,18.261L14.587,18.074L14.743,17.888L14.901,17.703L15.061,17.52L15.222,17.338L15.386,17.157L15.552,16.979L15.72,16.801L15.889,16.625L16.06,16.451L16.234,16.279L16.409,16.108L16.586,15.938L16.765,15.771L16.946,15.605L17.128,15.44L17.312,15.278L17.498,15.117L17.686,14.957L17.876,14.8L18.067,14.644L18.26,14.49L18.455,14.338L18.651,14.188L18.849,14.04L19.049,13.893L19.25,13.749L19.452,13.606L19.657,13.465L19.863,13.326L20.07,13.189L20.279,13.054L20.49,12.921L20.702,12.79L20.915,12.661L21.13,12.535L21.346,12.41L21.564,12.287L21.783,12.166L22.003,12.047L22.225,11.931L22.448,11.816L22.672,11.704L22.898,11.594L23.125,11.486L23.353,11.38L23.582,11.276L23.813,11.175L24.045,11.075L24.277,10.978L24.511,10.884L24.746,10.791L24.982,10.701L25.22,10.613L25.458,10.527L25.697,10.444L25.937,10.362L26.178,10.284L26.42,10.207L26.663,10.133L26.907,10.061L27.152,9.992L27.397,9.924L27.644,9.86L27.891,9.797L28.139,9.737L28.388,9.68L28.637,9.625L28.887,9.572L29.138,9.522L29.389,9.474L29.641,9.429L29.894,9.386L30.147,9.345L30.401,9.307L30.655,9.272L30.91,9.239L31.005,9.227ZM31.112,18.298L31.039,12.115L30.83,12.144L30.606,12.178L30.381,12.214L30.158,12.252L29.935,12.292L29.712,12.334L29.49,12.379L29.269,12.425L29.048,12.474L28.828,12.525L28.609,12.578L28.39,12.633L28.172,12.691L27.962,12.748L27.739,12.811L27.523,12.875L27.308,12.94L27.094,13.008L26.881,13.078L26.668,13.15L26.457,13.223L26.246,13.299L26.037,13.377L25.828,13.457L25.62,13.539L25.414,13.622L25.208,13.708L25.003,13.796L24.8,13.885L24.597,13.977L24.396,14.071L24.195,14.166L23.996,14.263L23.797,14.363L23.601,14.464L23.405,14.567L23.211,14.671L23.017,14.778L22.825,14.886L22.634,14.997L22.444,15.109L22.256,15.223L22.068,15.338L21.883,15.456L21.698,15.575L21.516,15.696L21.334,15.818L21.154,15.942L20.974,16.068L20.797,16.196L20.621,16.325L20.446,16.456L20.273,16.588L20.102,16.722L19.931,16.858L19.763,16.995L19.596,17.134L19.43,17.275L19.266,17.416L19.104,17.56L18.943,17.705L18.784,17.851L18.626,17.999L18.47,18.148L18.316,18.298L18.163,18.45L18.012,18.604L17.863,18.759L17.715,18.915L17.569,19.072L17.425,19.231L17.282,19.391L17.141,19.553L17.003,19.715L16.866,19.879L16.73,20.045L16.596,20.211L16.465,20.378L16.335,20.547L16.206,20.717L16.08,20.888L15.956,21.06L15.833,21.233L15.712,21.408L15.593,21.583L15.476,21.759L15.361,21.937L15.248,22.115L15.137,22.294L15.027,22.475L14.92,22.656L14.814,22.838L14.711,23.022L14.609,23.205L14.509,23.39L14.412,23.576L14.316,23.762L14.222,23.95L14.131,24.138L14.041,24.327L13.953,24.516L13.867,24.707L13.784,24.898L13.702,25.089L13.622,25.282L13.545,25.475L13.469,25.668L13.396,25.863L13.324,26.057L13.255,26.253L13.187,26.449L13.122,26.645L13.059,26.842L12.997,27.04L12.938,27.237L12.881,27.436L12.826,27.634L12.773,27.833L12.723,28.033L12.674,28.232L12.627,28.433L12.583,28.633L12.54,28.834L12.5,29.035L12.462,29.236L12.425,29.437L12.391,29.639L12.359,29.841L12.329,30.043L12.302,30.245L12.276,30.447L12.252,30.65L12.231,30.852L12.211,31.055L12.194,31.257L12.179,31.46L12.166,31.662L12.155,31.865L12.146,32.067L12.139,32.27L12.134,32.472L12.131,32.674L12.131,32.876L12.132,33.078L12.135,33.28L12.141,33.482L12.149,33.683L12.158,33.884L12.17,34.085L12.184,34.286L12.2,34.486L12.218,34.686L12.238,34.886L12.26,35.085L12.284,35.284L12.31,35.483L12.338,35.681L12.368,35.879L12.4,36.076L12.434,36.273L12.47,36.469L12.508,36.665L12.548,36.861L12.59,37.055L12.634,37.25L12.68,37.443L12.728,37.636L12.778,37.829L12.829,38.021L12.883,38.212L12.939,38.402L12.996,38.592L13.056,38.781L13.117,38.97L13.18,39.157L13.245,39.344L13.312,39.53L13.381,39.715L13.452,39.9L13.524,40.083L13.598,40.266L13.674,40.448L13.752,40.629L13.832,40.809L13.914,40.988L13.997,41.166L14.082,41.343L14.169,41.52L14.257,41.695L14.348,41.869L14.44,42.043L14.533,42.215L14.629,42.386L14.726,42.556L14.825,42.725L14.925,42.893L15.027,43.06L15.131,43.225L15.236,43.39L15.343,43.553L15.452,43.715L15.562,43.876L15.673,44.036L15.787,44.195L15.901,44.352L16.018,44.508L16.135,44.663L16.255,44.816L16.375,44.968L16.498,45.119L16.621,45.269L16.746,45.417L16.873,45.564L17.001,45.71L17.13,45.854L17.261,45.996L17.393,46.138L17.526,46.278L17.661,46.416L17.797,46.553L17.935,46.689L18.073,46.823L18.213,46.956L18.354,47.087L18.497,47.217L18.64,47.345L18.785,47.472L18.931,47.597L19.078,47.721L19.227,47.843L19.376,47.964L19.527,48.083L19.678,48.2L19.831,48.316L19.985,48.431L20.14,48.543L20.296,48.654L20.453,48.764L20.611,48.872L20.77,48.978L20.929,49.082L21.09,49.185L21.252,49.286L21.415,49.386L21.578,49.484L21.743,49.58L21.908,49.674L22.074,49.767L22.241,49.858L22.408,49.948L22.577,50.035L22.746,50.121L22.916,50.205L23.087,50.288L23.258,50.369L23.43,50.448L23.603,50.525L23.777,50.6L23.951,50.674L24.125,50.746L24.301,50.816L24.476,50.884L24.653,50.951L24.83,51.016L25.007,51.079L25.185,51.14L25.364,51.199L25.543,51.257L25.722,51.312L25.902,51.366L26.082,51.419L26.263,51.469L26.444,51.517L26.625,51.564L26.806,51.609L26.988,51.652L27.171,51.693L27.353,51.733L27.536,51.771L27.719,51.806L27.902,51.84L28.085,51.872L28.269,51.903L28.453,51.931L28.636,51.958L28.82,51.983L29.004,52.006L29.189,52.027L29.373,52.046L29.557,52.064L29.741,52.079L29.926,52.093L30.11,52.105L30.294,52.115L30.478,52.124L30.663,52.13L30.847,52.135L31.031,52.138L31.214,52.139L31.398,52.138L31.582,52.136L31.765,52.132L31.948,52.126L32.131,52.118L32.314,52.108L32.496,52.097L32.678,52.083L32.86,52.068L33.041,52.052L33.223,52.033L33.404,52.013L33.584,51.991L33.764,51.967L33.944,51.941L34.123,51.914L34.302,51.885L34.48,51.854L34.659,51.821L34.836,51.787L35.013,51.751L35.19,51.714L35.365,51.674L35.541,51.633L35.715,51.59L35.89,51.546L36.063,51.5L36.236,51.452L36.408,51.403L36.58,51.352L36.751,51.299L36.921,51.245L37.091,51.189L37.26,51.131L37.428,51.072L37.595,51.011L37.762,50.949L37.928,50.885L38.093,50.819L38.257,50.752L38.42,50.683L38.583,50.613L38.744,50.541L38.905,50.468L39.065,50.393L39.224,50.317L39.382,50.239L39.539,50.16L39.695,50.079L39.851,49.997L40.005,49.913L40.158,49.828L40.31,49.741L40.461,49.653L40.612,49.564L40.761,49.473L40.908,49.381L41.056,49.288L41.201,49.193L41.346,49.096L41.49,48.999L41.632,48.9L41.773,48.8L41.914,48.698L42.053,48.596L42.191,48.491L42.328,48.386L42.463,48.28L42.597,48.172L42.73,48.062L42.862,47.952L42.992,47.84L43.122,47.728L43.249,47.614L43.376,47.499L43.502,47.383L43.626,47.266L43.749,47.148L43.87,47.028L43.99,46.908L44.109,46.786L44.226,46.663L44.342,46.54L44.457,46.415L44.57,46.289L44.682,46.162L44.793,46.034L44.902,45.906L45.009,45.776L45.116,45.645L45.22,45.514L45.324,45.381L45.426,45.248L45.526,45.114L45.625,44.979L45.722,44.843L45.818,44.706L45.913,44.568L46.006,44.43L46.097,44.291L46.187,44.151L46.276,44.01L46.363,43.869L46.448,43.727L46.532,43.584L46.614,43.44L46.695,43.296L46.774,43.151L46.852,43.005L46.928,42.859L47.002,42.712L47.075,42.565L47.146,42.417L47.216,42.269L47.284,42.119L47.351,41.97L47.416,41.819L47.479,41.669L47.541,41.518L47.601,41.366L47.659,41.214L47.716,41.062L47.772,40.909L47.825,40.755L47.877,40.602L47.927,40.448L47.976,40.293L48.023,40.138L48.069,39.984L48.113,39.828L48.155,39.672L48.195,39.516L48.234,39.36L48.272,39.204L48.307,39.047L48.341,38.89L48.374,38.733L48.404,38.576L48.433,38.419L48.461,38.261L48.486,38.104L48.511,37.946L48.533,37.788L48.554,37.631L48.573,37.473L48.591,37.314L48.606,37.157L48.621,36.999L48.633,36.841L48.644,36.683L48.654,36.525L48.661,36.367L48.668,36.21L48.672,36.052L48.675,35.894L48.676,35.737L48.676,35.579L48.674,35.422L48.67,35.265L48.665,35.108L48.658,34.952L48.649,34.796L48.639,34.639L48.628,34.483L48.614,34.328L48.6,34.172L48.583,34.018L48.565,33.863L48.545,33.708L48.524,33.554L48.502,33.4L48.477,33.247L48.452,33.094L48.424,32.942L48.395,32.79L48.365,32.638L48.333,32.487L48.299,32.336L48.264,32.186L48.228,32.036L48.19,31.887L48.15,31.738L48.109,31.59L48.066,31.442L48.022,31.295L47.977,31.148L47.93,31.002L47.882,30.857L47.832,30.712L47.78,30.568L47.728,30.425L47.674,30.282L47.618,30.14L47.561,29.998L47.503,29.857L47.443,29.718L47.382,29.578L47.319,29.44L47.256,29.302L47.19,29.165L47.124,29.028L47.056,28.893L46.986,28.758L46.916,28.625L46.844,28.492L46.771,28.359L46.697,28.228L46.621,28.098L46.544,27.968L46.465,27.839L46.386,27.712L46.305,27.584L46.224,27.459L46.14,27.334L46.056,27.21L45.97,27.086L45.884,26.964L45.796,26.843L45.707,26.723L45.616,26.604L45.525,26.486L45.433,26.369L45.339,26.252L45.244,26.137L45.148,26.023L45.052,25.91L44.954,25.798L44.855,25.687L44.755,25.578L44.654,25.469L44.552,25.362L44.449,25.255L44.345,25.15L44.24,25.045L44.134,24.943L44.027,24.841L43.919,24.74L43.81,24.64L43.7,24.542L43.59,24.445L43.478,24.349L43.366,24.254L43.253,24.16L43.139,24.068L43.024,23.977L42.908,23.887L42.791,23.798L42.674,23.711L42.556,23.624L42.437,23.539L42.318,23.456L42.197,23.373L42.076,23.292L41.954,23.212L41.832,23.134L41.708,23.056L41.585,22.98L41.46,22.905L41.335,22.832L41.209,22.76L41.083,22.689L40.956,22.62L40.828,22.552L40.7,22.485L40.572,22.419L40.443,22.355L40.313,22.292L40.183,22.231L40.052,22.171L39.92,22.112L39.789,22.054L39.657,21.998L39.524,21.944L39.391,21.89L39.258,21.838L39.124,21.788L38.99,21.738L38.856,21.691L38.72,21.644L38.585,21.599L38.45,21.555L38.314,21.513L38.178,21.472L38.041,21.432L37.905,21.394L37.768,21.358L37.631,21.322L37.494,21.288L37.356,21.256L37.218,21.224L37.08,21.195L36.942,21.166L36.804,21.139L36.666,21.113L36.527,21.089L36.389,21.066L36.25,21.045L36.112,21.025L35.972,21.006L35.834,20.989L35.695,20.973L35.556,20.958L35.417,20.945L35.278,20.933L35.14,20.923L35.001,20.914L34.862,20.906L34.724,20.9L34.585,20.895L34.447,20.891L34.308,20.889L34.17,20.888L34.076,20.889L34.147,26.929L34.19,26.93L34.269,26.931L34.349,26.933L34.429,26.935L34.508,26.939L34.588,26.943L34.668,26.948L34.748,26.954L34.828,26.961L34.908,26.969L34.988,26.977L35.068,26.987L35.149,26.997L35.229,27.008L35.309,27.02L35.39,27.033L35.47,27.046L35.55,27.061L35.63,27.076L35.711,27.092L35.791,27.109L35.871,27.127L35.951,27.146L36.031,27.165L36.111,27.185L36.191,27.207L36.27,27.229L36.35,27.252L36.43,27.276L36.509,27.3L36.588,27.326L36.667,27.352L36.746,27.379L36.825,27.407L36.904,27.436L36.982,27.466L37.06,27.497L37.138,27.528L37.216,27.56L37.294,27.594L37.371,27.628L37.448,27.663L37.525,27.698L37.602,27.735L37.678,27.772L37.754,27.81L37.83,27.85L37.906,27.889L37.981,27.93L38.056,27.972L38.13,28.014L38.204,28.057L38.278,28.101L38.352,28.146L38.425,28.192L38.498,28.239L38.57,28.286L38.642,28.334L38.714,28.383L38.785,28.433L38.856,28.484L38.926,28.535L38.996,28.587L39.065,28.64L39.134,28.694L39.203,28.748L39.271,28.804L39.339,28.86L39.406,28.917L39.472,28.974L39.538,29.033L39.604,29.092L39.669,29.152L39.733,29.212L39.797,29.274L39.861,29.336L39.924,29.399L39.986,29.463L40.048,29.527L40.108,29.592L40.169,29.658L40.229,29.725L40.288,29.792L40.347,29.86L40.405,29.928L40.462,29.998L40.519,30.068L40.575,30.139L40.63,30.21L40.685,30.282L40.739,30.355L40.792,30.428L40.845,30.502L40.897,30.577L40.948,30.652L40.998,30.728L41.048,30.805L41.097,30.882L41.145,30.96L41.193,31.038L41.24,31.117L41.285,31.197L41.331,31.277L41.375,31.358L41.419,31.439L41.462,31.521L41.504,31.603L41.545,31.686L41.585,31.77L41.625,31.854L41.663,31.938L41.701,32.023L41.738,32.109L41.775,32.195L41.81,32.282L41.844,32.369L41.878,32.456L41.911,32.544L41.943,32.633L41.973,32.722L42.004,32.811L42.033,32.901L42.061,32.991L42.088,33.081L42.115,33.172L42.14,33.264L42.165,33.356L42.188,33.448L42.211,33.54L42.233,33.633L42.253,33.727L42.273,33.82L42.292,33.914L42.31,34.008L42.327,34.103L42.343,34.198L42.358,34.293L42.372,34.388L42.385,34.484L42.397,34.58L42.408,34.676L42.418,34.773L42.427,34.87L42.435,34.967L42.442,35.064L42.448,35.161L42.453,35.259L42.457,35.356L42.46,35.454L42.461,35.552L42.462,35.651L42.462,35.749L42.461,35.848L42.459,35.946L42.455,36.045L42.451,36.144L42.446,36.243L42.439,36.342L42.432,36.441L42.423,36.54L42.413,36.639L42.403,36.738L42.391,36.838L42.378,36.937L42.364,37.036L42.35,37.136L42.334,37.235L42.316,37.334L42.298,37.433L42.279,37.532L42.259,37.631L42.238,37.73L42.215,37.829L42.192,37.928L42.167,38.027L42.142,38.126L42.115,38.224L42.087,38.322L42.058,38.42L42.028,38.519L41.998,38.616L41.966,38.714L41.932,38.812L41.898,38.909L41.863,39.006L41.827,39.103L41.789,39.199L41.751,39.296L41.712,39.392L41.671,39.488L41.629,39.583L41.587,39.679L41.543,39.773L41.498,39.868L41.452,39.962L41.406,40.056L41.358,40.15L41.309,40.243L41.259,40.336L41.208,40.428L41.156,40.521L41.102,40.612L41.048,40.704L40.993,40.794L40.937,40.885L40.88,40.975L40.821,41.064L40.762,41.153L40.702,41.242L40.641,41.33L40.578,41.418L40.515,41.505L40.451,41.591L40.386,41.677L40.319,41.763L40.252,41.848L40.184,41.932L40.115,42.016L40.045,42.099L39.974,42.181L39.902,42.263L39.829,42.344L39.755,42.425L39.68,42.505L39.604,42.585L39.527,42.664L39.45,42.742L39.371,42.819L39.292,42.896L39.211,42.972L39.13,43.047L39.048,43.121L38.965,43.195L38.881,43.268L38.796,43.341L38.711,43.412L38.624,43.483L38.537,43.553L38.449,43.622L38.36,43.691L38.27,43.759L38.179,43.825L38.088,43.891L37.996,43.956L37.903,44.021L37.809,44.084L37.714,44.147L37.619,44.209L37.523,44.27L37.426,44.33L37.328,44.389L37.23,44.447L37.131,44.504L37.031,44.56L36.93,44.616L36.829,44.67L36.727,44.724L36.624,44.776L36.521,44.828L36.417,44.879L36.313,44.928L36.207,44.977L36.102,45.024L35.995,45.071L35.888,45.117L35.78,45.161L35.672,45.205L35.563,45.248L35.454,45.289L35.344,45.33L35.233,45.369L35.122,45.408L35.01,45.445L34.898,45.481L34.785,45.516L34.672,45.55L34.559,45.583L34.444,45.615L34.33,45.646L34.215,45.676L34.099,45.704L33.983,45.732L33.867,45.758L33.75,45.783L33.633,45.807L33.516,45.83L33.398,45.852L33.279,45.873L33.161,45.892L33.042,45.91L32.922,45.928L32.803,45.944L32.683,45.958L32.563,45.972L32.442,45.984L32.321,45.996L32.2,46.006L32.079,46.015L31.958,46.022L31.836,46.029L31.714,46.034L31.592,46.038L31.47,46.041L31.347,46.042L31.225,46.043L31.102,46.042L30.979,46.04L30.856,46.036L30.733,46.032L30.61,46.026L30.486,46.019L30.363,46.011L30.24,46.002L30.116,45.991L29.993,45.979L29.869,45.966L29.746,45.951L29.623,45.936L29.499,45.919L29.376,45.9L29.252,45.881L29.129,45.86L29.006,45.838L28.883,45.815L28.76,45.791L28.637,45.765L28.514,45.738L28.392,45.71L28.269,45.68L28.147,45.65L28.025,45.618L27.903,45.585L27.781,45.55L27.66,45.515L27.539,45.478L27.418,45.439L27.297,45.4L27.177,45.359L27.057,45.317L26.937,45.274L26.817,45.23L26.698,45.184L26.579,45.137L26.461,45.089L26.343,45.04L26.225,44.989L26.108,44.937L25.991,44.884L25.875,44.83L25.759,44.775L25.643,44.718L25.528,44.66L25.413,44.601L25.299,44.541L25.186,44.479L25.073,44.417L24.96,44.353L24.848,44.288L24.737,44.221L24.626,44.154L24.516,44.085L24.406,44.016L24.297,43.945L24.188,43.873L24.08,43.799L23.973,43.725L23.867,43.649L23.761,43.573L23.656,43.495L23.551,43.416L23.448,43.336L23.344,43.255L23.242,43.172L23.141,43.089L23.04,43.005L22.94,42.919L22.841,42.832L22.742,42.745L22.645,42.656L22.548,42.566L22.452,42.475L22.357,42.383L22.262,42.29L22.169,42.196L22.077,42.101L21.985,42.005L21.894,41.908L21.804,41.81L21.716,41.711L21.628,41.611L21.541,41.509L21.455,41.408L21.37,41.304L21.286,41.2L21.203,41.096L21.12,40.99L21.039,40.883L20.959,40.776L20.88,40.667L20.803,40.558L20.726,40.447L20.65,40.336L20.575,40.224L20.501,40.111L20.429,39.997L20.357,39.883L20.287,39.767L20.218,39.651L20.15,39.534L20.083,39.416L20.017,39.298L19.953,39.178L19.889,39.058L19.827,38.937L19.766,38.816L19.706,38.693L19.648,38.57L19.59,38.446L19.534,38.322L19.479,38.197L19.425,38.071L19.373,37.944L19.322,37.817L19.272,37.69L19.223,37.561L19.176,37.432L19.13,37.303L19.085,37.172L19.041,37.042L18.999,36.91L18.959,36.779L18.919,36.646L18.881,36.513L18.844,36.38L18.809,36.246L18.774,36.112L18.742,35.977L18.71,35.841L18.68,35.706L18.652,35.569L18.624,35.433L18.599,35.296L18.574,35.158L18.551,35.021L18.529,34.883L18.509,34.744L18.49,34.605L18.473,34.466L18.457,34.327L18.442,34.187L18.429,34.047L18.418,33.907L18.407,33.766L18.399,33.625L18.391,33.484L18.385,33.343L18.381,33.202L18.378,33.06L18.376,32.919L18.376,32.777L18.378,32.635L18.381,32.492L18.385,32.35L18.391,32.208L18.398,32.065L18.407,31.923L18.417,31.78L18.429,31.638L18.443,31.495L18.457,31.353L18.474,31.21L18.491,31.068L18.511,30.925L18.531,30.783L18.554,30.64L18.577,30.498L18.603,30.356L18.629,30.214L18.658,30.072L18.687,29.93L18.719,29.789L18.751,29.647L18.785,29.506L18.821,29.365L18.858,29.224L18.897,29.084L18.937,28.943L18.979,28.803L19.022,28.664L19.067,28.524L19.113,28.385L19.16,28.246L19.21,28.108L19.26,27.969L19.312,27.832L19.366,27.694L19.421,27.557L19.477,27.421L19.535,27.285L19.595,27.149L19.656,27.014L19.718,26.879L19.782,26.745L19.847,26.611L19.913,26.478L19.981,26.345L20.051,26.213L20.122,26.082L20.194,25.951L20.268,25.821L20.343,25.691L20.42,25.562L20.498,25.433L20.577,25.306L20.658,25.179L20.741,25.052L20.824,24.926L20.909,24.801L20.996,24.677L21.083,24.553L21.172,24.431L21.263,24.309L21.354,24.187L21.448,24.067L21.542,23.947L21.638,23.829L21.735,23.711L21.833,23.594L21.933,23.477L22.034,23.362L22.136,23.248L22.24,23.134L22.344,23.021L22.45,22.91L22.558,22.799L22.666,22.689L22.776,22.58L22.887,22.473L22.999,22.366L23.113,22.26L23.227,22.155L23.343,22.052L23.46,21.949L23.578,21.848L23.697,21.747L23.818,21.648L23.939,21.549L24.062,21.452L24.186,21.356L24.311,21.261L24.436,21.167L24.564,21.075L24.692,20.983L24.821,20.893L24.951,20.804L25.082,20.716L25.215,20.63L25.348,20.544L25.482,20.46L25.617,20.377L25.754,20.296L25.891,20.215L26.029,20.136L26.168,20.059L26.308,19.982L26.449,19.907L26.591,19.833L26.734,19.761L26.877,19.69L27.022,19.62L27.167,19.552L27.313,19.485L27.46,19.419L27.608,19.355L27.756,19.292L27.905,19.231L28.055,19.171L28.206,19.112L28.358,19.055L28.51,18.999L28.663,18.945L28.817,18.892L28.971,18.841L29.126,18.792L29.281,18.743L29.438,18.696L29.595,18.651L29.752,18.608L29.91,18.565L30.069,18.524L30.228,18.485L30.388,18.448L30.548,18.412L30.708,18.377L30.87,18.344L31.031,18.313L31.112,18.298ZM33.1,29.914L31.255,30.355L31.147,21.22L31.06,21.239L30.929,21.27L30.799,21.302L30.669,21.336L30.539,21.37L30.41,21.406L30.282,21.443L30.154,21.481L30.026,21.521L29.9,21.561L29.773,21.604L29.648,21.647L29.523,21.691L29.398,21.736L29.274,21.783L29.151,21.831L29.028,21.88L28.906,21.93L28.785,21.982L28.664,22.034L28.544,22.088L28.425,22.142L28.306,22.198L28.189,22.255L28.071,22.313L27.955,22.372L27.839,22.432L27.724,22.493L27.61,22.556L27.497,22.619L27.384,22.684L27.273,22.749L27.161,22.816L27.051,22.883L26.942,22.951L26.834,23.021L26.726,23.091L26.619,23.163L26.513,23.235L26.408,23.309L26.304,23.383L26.201,23.458L26.098,23.535L25.997,23.612L25.896,23.69L25.797,23.768L25.698,23.848L25.6,23.929L25.503,24.011L25.408,24.093L25.313,24.176L25.219,24.26L25.126,24.345L25.034,24.431L24.943,24.518L24.853,24.605L24.764,24.693L24.676,24.782L24.589,24.872L24.503,24.962L24.418,25.054L24.335,25.145L24.252,25.238L24.17,25.332L24.09,25.425L24.01,25.52L23.932,25.615L23.854,25.712L23.778,25.808L23.703,25.905L23.628,26.004L23.556,26.102L23.484,26.201L23.413,26.301L23.343,26.401L23.274,26.502L23.207,26.604L23.141,26.705L23.076,26.808L23.012,26.911L22.949,27.014L22.887,27.119L22.826,27.223L22.767,27.328L22.708,27.433L22.652,27.539L22.596,27.645L22.541,27.752L22.487,27.859L22.435,27.967L22.383,28.075L22.333,28.183L22.284,28.292L22.237,28.4L22.19,28.51L22.145,28.619L22.101,28.729L22.058,28.84L22.016,28.95L21.975,29.061L21.936,29.172L21.898,29.283L21.861,29.395L21.825,29.507L21.79,29.619L21.757,29.731L21.725,29.843L21.694,29.956L21.664,30.068L21.636,30.181L21.608,30.294L21.582,30.407L21.557,30.521L21.533,30.634L21.511,30.747L21.489,30.861L21.469,30.975L21.45,31.088L21.432,31.202L21.416,31.316L21.4,31.429L21.386,31.543L21.373,31.656L21.362,31.77L21.351,31.884L21.342,31.997L21.333,32.111L21.326,32.225L21.32,32.338L21.316,32.451L21.312,32.564L21.31,32.678L21.309,32.791L21.309,32.903L21.31,33.016L21.312,33.129L21.316,33.241L21.321,33.353L21.326,33.465L21.333,33.577L21.342,33.688L21.351,33.8L21.361,33.911L21.373,34.022L21.385,34.132L21.399,34.243L21.414,34.352L21.43,34.462L21.447,34.572L21.466,34.681L21.485,34.79L21.505,34.898L21.527,35.006L21.55,35.114L21.573,35.221L21.598,35.328L21.624,35.435L21.651,35.541L21.679,35.647L21.708,35.752L21.738,35.857L21.769,35.961L21.802,36.065L21.835,36.169L21.869,36.272L21.904,36.375L21.941,36.477L21.978,36.578L22.016,36.68L22.056,36.78L22.096,36.88L22.137,36.98L22.179,37.079L22.223,37.177L22.267,37.275L22.312,37.372L22.358,37.469L22.405,37.565L22.453,37.661L22.502,37.756L22.552,37.85L22.602,37.944L22.654,38.036L22.706,38.129L22.76,38.221L22.814,38.312L22.869,38.402L22.925,38.492L22.982,38.581L23.04,38.669L23.098,38.757L23.157,38.844L23.217,38.93L23.278,39.016L23.34,39.101L23.402,39.185L23.466,39.268L23.53,39.351L23.595,39.433L23.66,39.514L23.727,39.594L23.794,39.674L23.862,39.752L23.93,39.831L23.999,39.908L24.069,39.984L24.14,40.06L24.211,40.135L24.283,40.208L24.356,40.282L24.429,40.354L24.503,40.425L24.578,40.496L24.653,40.566L24.729,40.635L24.805,40.703L24.882,40.77L24.96,40.837L25.038,40.902L25.116,40.967L25.196,41.031L25.276,41.094L25.356,41.156L25.437,41.217L25.518,41.277L25.6,41.336L25.683,41.395L25.766,41.452L25.849,41.509L25.933,41.565L26.017,41.619L26.102,41.673L26.187,41.726L26.272,41.778L26.358,41.829L26.445,41.88L26.532,41.929L26.619,41.977L26.706,42.025L26.794,42.071L26.882,42.116L26.971,42.161L27.06,42.205L27.149,42.247L27.239,42.289L27.328,42.33L27.418,42.369L27.509,42.408L27.6,42.446L27.69,42.483L27.782,42.519L27.873,42.554L27.965,42.588L28.056,42.621L28.149,42.653L28.241,42.684L28.333,42.715L28.426,42.744L28.518,42.772L28.611,42.8L28.704,42.826L28.797,42.851L28.891,42.876L28.984,42.899L29.077,42.922L29.171,42.943L29.264,42.964L29.358,42.983L29.452,43.002L29.546,43.02L29.64,43.036L29.733,43.052L29.827,43.067L29.921,43.081L30.015,43.093L30.109,43.105L30.203,43.116L30.296,43.126L30.39,43.135L30.484,43.144L30.578,43.151L30.671,43.157L30.765,43.162L30.858,43.167L30.951,43.17L31.044,43.172L31.137,43.174L31.23,43.175L31.323,43.174L31.415,43.173L31.508,43.171L31.6,43.168L31.692,43.164L31.784,43.159L31.876,43.153L31.967,43.147L32.059,43.139L32.149,43.131L32.24,43.121L32.331,43.111L32.421,43.1L32.511,43.088L32.601,43.075L32.69,43.061L32.78,43.047L32.868,43.031L32.957,43.015L33.045,42.998L33.133,42.98L33.22,42.961L33.308,42.941L33.395,42.92L33.481,42.899L33.567,42.877L33.653,42.854L33.738,42.83L33.824,42.805L33.908,42.78L33.992,42.753L34.076,42.726L34.159,42.698L34.242,42.67L34.324,42.64L34.406,42.61L34.488,42.579L34.569,42.548L34.65,42.515L34.73,42.482L34.81,42.448L34.889,42.413L34.967,42.378L35.046,42.342L35.123,42.305L35.2,42.267L35.277,42.229L35.353,42.19L35.429,42.15L35.504,42.11L35.578,42.069L35.652,42.027L35.725,41.985L35.798,41.942L35.87,41.898L35.942,41.854L36.013,41.809L36.083,41.764L36.153,41.717L36.222,41.671L36.291,41.623L36.359,41.575L36.426,41.527L36.493,41.477L36.559,41.428L36.624,41.377L36.689,41.326L36.753,41.275L36.817,41.223L36.88,41.17L36.942,41.117L37.003,41.064L37.064,41.01L37.124,40.955L37.184,40.9L37.242,40.844L37.3,40.788L37.358,40.732L37.415,40.675L37.471,40.617L37.526,40.559L37.58,40.501L37.635,40.442L37.688,40.383L37.74,40.323L37.792,40.263L37.843,40.202L37.893,40.141L37.943,40.08L37.992,40.018L38.04,39.956L38.087,39.894L38.134,39.831L38.179,39.768L38.224,39.705L38.269,39.641L38.312,39.577L38.355,39.512L38.398,39.448L38.439,39.383L38.479,39.317L38.519,39.252L38.558,39.186L38.597,39.12L38.634,39.053L38.671,38.987L38.707,38.92L38.742,38.853L38.776,38.786L38.81,38.718L38.843,38.65L38.875,38.582L38.907,38.514L38.937,38.446L38.967,38.378L38.996,38.309L39.024,38.24L39.052,38.171L39.079,38.102L39.105,38.032L39.13,37.964L39.154,37.894L39.178,37.824L39.2,37.755L39.223,37.685L39.244,37.616L39.264,37.545L39.284,37.476L39.303,37.405L39.321,37.336L39.339,37.265L39.355,37.195L39.371,37.125L39.386,37.055L39.401,36.984L39.414,36.915L39.427,36.844L39.439,36.774L39.45,36.704L39.461,36.634L39.471,36.564L39.48,36.494L39.488,36.424L39.496,36.354L39.502,36.284L39.508,36.214L39.514,36.145L39.518,36.075L39.522,36.006L39.525,35.936L39.527,35.867L39.529,35.798L39.53,35.729L39.53,35.66L39.529,35.591L39.528,35.523L39.526,35.455L39.523,35.386L39.52,35.319L39.516,35.25L39.511,35.183L39.505,35.115L39.499,35.048L39.492,34.98L39.484,34.914L39.476,34.847L39.467,34.781L39.457,34.714L39.447,34.649L39.436,34.583L39.424,34.517L39.412,34.452L39.399,34.388L39.385,34.323L39.371,34.258L39.356,34.194L39.34,34.131L39.324,34.067L39.307,34.004L39.289,33.941L39.271,33.878L39.252,33.816L39.233,33.754L39.213,33.693L39.192,33.632L39.171,33.571L39.15,33.51L39.127,33.45L39.104,33.39L39.081,33.331L39.056,33.272L39.032,33.213L39.007,33.155L38.981,33.097L38.955,33.04L38.928,32.982L38.9,32.926L38.872,32.869L38.844,32.813L38.815,32.758L38.785,32.703L38.755,32.648L38.725,32.594L38.694,32.54L38.662,32.487L38.63,32.434L38.598,32.382L38.565,32.33L38.531,32.279L38.497,32.228L38.463,32.177L38.428,32.127L38.393,32.077L38.357,32.028L38.321,31.979L38.284,31.931L38.248,31.884L38.21,31.836L38.172,31.79L38.134,31.743L38.095,31.698L38.056,31.652L38.017,31.608L37.977,31.564L37.937,31.52L37.897,31.476L37.856,31.434L37.815,31.392L37.773,31.35L37.731,31.309L37.689,31.269L37.647,31.229L37.603,31.189L37.56,31.15L37.517,31.112L37.473,31.074L37.429,31.036L37.385,31L37.34,30.963L37.295,30.928L37.25,30.892L37.205,30.858L37.159,30.824L37.113,30.79L37.067,30.757L37.021,30.725L36.974,30.693L36.928,30.662L36.88,30.631L36.833,30.601L36.786,30.571L36.738,30.542L36.69,30.514L36.643,30.486L36.594,30.458L36.546,30.432L36.498,30.405L36.449,30.38L36.4,30.354L36.352,30.33L36.302,30.306L36.253,30.282L36.204,30.26L36.155,30.237L36.105,30.216L36.056,30.194L36.006,30.174L35.956,30.154L35.907,30.134L35.857,30.115L35.807,30.097L35.757,30.079L35.707,30.062L35.657,30.045L35.607,30.029L35.557,30.013L35.506,29.998L35.456,29.984L35.406,29.97L35.356,29.957L35.306,29.944L35.256,29.932L35.205,29.92L35.155,29.909L35.105,29.898L35.055,29.888L35.005,29.879L34.955,29.87L34.905,29.861L34.855,29.853L34.805,29.846L34.756,29.839L34.706,29.833L34.656,29.827L34.607,29.822L34.557,29.817L34.508,29.813L34.459,29.809L34.409,29.806L34.36,29.803L34.311,29.801L34.263,29.799L34.214,29.798L34.166,29.797L34.117,29.797L34.069,29.798L34.021,29.799L33.973,29.8L33.925,29.802L33.878,29.804L33.83,29.807L33.783,29.81L33.736,29.814L33.689,29.818L33.643,29.823L33.596,29.828L33.55,29.833L33.504,29.84L33.458,29.846L33.412,29.853L33.367,29.86L33.322,29.868L33.277,29.877L33.232,29.885L33.188,29.895L33.143,29.904L33.1,29.914Z" clip-rule="evenodd" fill-rule="evenodd" fill="#475569"/>
</svg>
