<svg width="44" height="64" viewBox="0 0 44 64" fill="none" xmlns="http://www.w3.org/2000/svg" xmlns:xlink="http://www.w3.org/1999/xlink">
<path d="M19.611,39.963L19.611,56.205C19.611,56.828 19.364,57.425 18.923,57.865C18.483,58.305 17.886,58.552 17.264,58.552C16.641,58.552 16.044,58.305 15.604,57.865C15.163,57.425 14.916,56.828 14.916,56.205L14.916,39.986C15.57,40.463 16.353,40.73 17.163,40.75C18.044,40.775 18.909,40.497 19.611,39.963ZM39.604,35.269C39.008,35.269 38.437,35.505 38.016,35.926C37.594,36.348 37.358,36.919 37.358,37.515L37.358,40.345C37.358,40.968 37.605,41.565 38.045,42.005C38.485,42.446 39.082,42.693 39.705,42.693C40.328,42.693 40.925,42.446 41.365,42.005C41.805,41.565 42.053,40.968 42.053,40.345L42.053,37.627C42.07,37.305 42.018,36.983 41.9,36.683C41.782,36.383 41.6,36.111 41.368,35.888C41.136,35.664 40.858,35.493 40.554,35.386C40.249,35.279 39.925,35.239 39.604,35.269ZM9.817,46.119C9.008,46.094 8.226,45.828 7.57,45.355L7.57,61.641C7.57,62.267 7.819,62.867 8.261,63.309C8.704,63.752 9.304,64 9.929,64C10.555,64 11.155,63.752 11.597,63.309C12.039,62.867 12.288,62.267 12.288,61.641L12.288,45.467C11.554,45.941 10.689,46.17 9.817,46.119ZM32.281,30.394C31.976,30.379 31.672,30.425 31.387,30.532C31.101,30.638 30.84,30.801 30.619,31.011C30.399,31.221 30.223,31.474 30.103,31.754C29.983,32.034 29.922,32.336 29.922,32.64L29.922,45.153C29.922,45.778 30.171,46.378 30.613,46.821C31.055,47.263 31.655,47.511 32.281,47.511C32.906,47.511 33.506,47.263 33.949,46.821C34.391,46.378 34.64,45.778 34.64,45.153L34.64,32.797C34.657,32.473 34.605,32.149 34.485,31.847C34.366,31.545 34.183,31.273 33.948,31.049C33.713,30.824 33.432,30.654 33.125,30.549C32.818,30.443 32.492,30.406 32.168,30.439L32.281,30.394ZM24.823,35.201C23.977,35.195 23.153,34.929 22.464,34.437L22.464,50.769C22.464,51.394 22.712,51.994 23.155,52.437C23.597,52.879 24.197,53.127 24.823,53.127C25.448,53.127 26.048,52.879 26.491,52.437C26.933,51.994 27.181,51.394 27.181,50.769L27.181,34.46C26.469,34.991 25.599,35.267 24.71,35.246L24.823,35.201ZM4.717,47.714L4.717,2.089C4.712,1.533 4.486,1.002 4.091,0.611C3.696,0.219 3.162,0 2.606,0L2.112,0C1.555,0 1.022,0.219 0.626,0.611C0.231,1.002 0.006,1.533 0,2.089L0,47.714C0,48.274 0.222,48.811 0.618,49.207C1.014,49.603 1.552,49.825 2.112,49.825L2.606,49.825C3.166,49.825 3.703,49.603 4.099,49.207C4.495,48.811 4.717,48.274 4.717,47.714ZM10.064,44.389L9.57,44.389C9.01,44.389 8.473,44.167 8.077,43.77C7.681,43.374 7.458,42.837 7.458,42.277L7.458,7.525C7.464,6.969 7.689,6.438 8.084,6.047C8.48,5.656 9.014,5.436 9.57,5.436L10.064,5.436C10.62,5.436 11.154,5.656 11.549,6.047C11.944,6.438 12.17,6.969 12.176,7.525L12.176,42.322C12.176,42.882 11.953,43.419 11.557,43.815C11.161,44.211 10.624,44.434 10.064,44.434L10.064,44.389ZM17.499,39.042L16.983,39.042C16.429,39.042 15.897,38.822 15.506,38.431C15.114,38.039 14.894,37.508 14.894,36.953L14.894,12.917C14.891,12.641 14.943,12.367 15.046,12.11C15.15,11.854 15.303,11.621 15.497,11.425C15.692,11.229 15.923,11.073 16.178,10.966C16.433,10.86 16.707,10.805 16.983,10.805L17.499,10.805C18.056,10.811 18.587,11.036 18.978,11.432C19.369,11.827 19.589,12.361 19.589,12.917L19.589,36.953C19.589,37.508 19.368,38.039 18.977,38.431C18.585,38.822 18.054,39.042 17.499,39.042ZM24.935,33.539L24.463,33.539C23.907,33.539 23.373,33.32 22.978,32.928C22.583,32.537 22.358,32.006 22.352,31.45L22.352,18.51C22.333,18.222 22.374,17.933 22.472,17.661C22.57,17.389 22.723,17.14 22.92,16.929C23.118,16.719 23.357,16.551 23.623,16.436C23.888,16.322 24.174,16.263 24.463,16.264L24.958,16.264C25.518,16.264 26.055,16.486 26.451,16.882C26.847,17.278 27.069,17.816 27.069,18.376L27.069,31.405C27.072,31.684 27.02,31.961 26.915,32.22C26.81,32.478 26.655,32.714 26.459,32.912C26.262,33.111 26.029,33.268 25.771,33.376C25.513,33.484 25.237,33.539 24.958,33.539L24.935,33.539ZM32.393,28.709L31.899,28.709C31.339,28.709 30.802,28.487 30.406,28.091C30.01,27.695 29.787,27.157 29.787,26.597L29.787,23.25C29.793,22.694 30.018,22.163 30.414,21.772C30.809,21.38 31.343,21.161 31.899,21.161L32.393,21.161C32.949,21.161 33.483,21.38 33.878,21.772C34.274,22.163 34.499,22.694 34.505,23.25L34.505,26.597C34.505,27.154 34.285,27.687 33.894,28.083C33.503,28.478 32.972,28.703 32.416,28.709L32.393,28.709Z" fill="#475569"/>
</svg>
