<svg width="40" height="34" viewBox="0 0 40 34" fill="none" xmlns="http://www.w3.org/2000/svg" xmlns:xlink="http://www.w3.org/1999/xlink">
<path d="M40,3.814C38.501,4.469 36.913,4.898 35.288,5.088C36.994,4.086 38.276,2.498 38.896,0.62C37.28,1.561 35.517,2.223 33.682,2.58C32.909,1.77 31.979,1.127 30.95,0.688C29.92,0.25 28.811,0.026 27.692,0.03C23.16,0.03 19.486,3.65 19.486,8.11C19.486,8.742 19.558,9.36 19.698,9.95C16.447,9.795 13.264,8.965 10.352,7.511C7.44,6.058 4.864,4.013 2.786,1.508C2.058,2.737 1.675,4.14 1.678,5.568C1.679,6.904 2.014,8.218 2.651,9.393C3.288,10.567 4.207,11.564 5.326,12.294C4.025,12.252 2.752,11.905 1.61,11.28L1.61,11.38C1.61,15.296 4.44,18.562 8.19,19.306C7.485,19.493 6.759,19.588 6.03,19.588C5.5,19.588 4.986,19.538 4.484,19.438C5.02,21.054 6.046,22.463 7.42,23.469C8.793,24.475 10.446,25.028 12.148,25.052C9.228,27.301 5.644,28.516 1.958,28.506C1.294,28.506 0.642,28.466 0,28.394C3.762,30.775 8.125,32.037 12.578,32.03C27.672,32.03 35.924,19.716 35.924,9.038L35.896,7.992C37.506,6.859 38.896,5.444 40,3.814L40,3.814Z" fill="#E2E8F0"/>
</svg>
