<svg width="40" height="40" viewBox="0 0 40 40" fill="none" xmlns="http://www.w3.org/2000/svg" xmlns:xlink="http://www.w3.org/1999/xlink">
<path d="M16,39.6C6.872,37.746 0,29.676 0,20C0,8.954 8.954,0 20,0C31.046,0 40,8.954 40,20C40,29.676 33.128,37.746 24,39.6L24,35.496C27.771,34.522 31.057,32.207 33.242,28.984C35.428,25.761 36.363,21.851 35.872,17.988C35.382,14.125 33.499,10.573 30.577,7.999C27.655,5.424 23.894,4.004 20,4.004C16.106,4.004 12.345,5.424 9.423,7.999C6.501,10.573 4.618,14.125 4.128,17.988C3.637,21.851 4.572,25.761 6.758,28.984C8.943,32.207 12.229,34.522 16,35.496L16,39.6ZM16,31.318C13.331,30.374 11.082,28.518 9.649,26.076C8.217,23.634 7.694,20.765 8.173,17.975C8.651,15.185 10.101,12.654 12.265,10.83C14.43,9.005 17.169,8.004 20,8.004C22.831,8.004 25.57,9.005 27.735,10.83C29.899,12.654 31.348,15.185 31.827,17.975C32.306,20.765 31.783,23.634 30.351,26.076C28.918,28.518 26.669,30.374 24,31.318L24,26.93C25.525,26.049 26.717,24.69 27.391,23.063C28.065,21.436 28.183,19.632 27.727,17.931C27.272,16.23 26.267,14.727 24.87,13.655C23.473,12.583 21.761,12.002 20,12.002C18.239,12.002 16.527,12.583 15.13,13.655C13.733,14.727 12.728,16.23 12.273,17.931C11.817,19.632 11.935,21.436 12.609,23.063C13.283,24.69 14.475,26.049 16,26.93L16,31.318L16,31.318ZM22,23.464L22,40L18,40L18,23.464C17.237,23.024 16.641,22.344 16.304,21.531C15.968,20.717 15.908,19.815 16.136,18.965C16.364,18.114 16.866,17.363 17.565,16.826C18.264,16.29 19.119,16 20,16C20.881,16 21.736,16.29 22.435,16.826C23.134,17.363 23.636,18.114 23.864,18.965C24.092,19.815 24.032,20.717 23.696,21.531C23.359,22.344 22.763,23.024 22,23.464L22,23.464Z" fill="#0F172A"/>
</svg>
