<svg width="36" height="32" viewBox="0 0 36 32" fill="none" xmlns="http://www.w3.org/2000/svg" xmlns:xlink="http://www.w3.org/1999/xlink">
<path d="M14,32C12.939,32 11.922,31.579 11.172,30.828C10.421,30.078 10,29.061 10,28C10,26.939 10.421,25.922 11.172,25.172C11.922,24.421 12.939,24 14,24C15.061,24 16.078,24.421 16.828,25.172C17.579,25.922 18,26.939 18,28C18,29.061 17.579,30.078 16.828,30.828C16.078,31.579 15.061,32 14,32ZM28,32C26.939,32 25.922,31.579 25.172,30.828C24.421,30.078 24,29.061 24,28C24,26.939 24.421,25.922 25.172,25.172C25.922,24.421 26.939,24 28,24C29.061,24 30.078,24.421 30.828,25.172C31.579,25.922 32,26.939 32,28C32,29.061 31.579,30.078 30.828,30.828C30.078,31.579 29.061,32 28,32ZM1.924,3.846C1.425,3.83 0.951,3.62 0.604,3.261C0.256,2.903 0.062,2.423 0.062,1.923C0.062,1.423 0.256,0.944 0.604,0.585C0.951,0.226 1.425,0.016 1.924,0L4.226,0C6.03,0 7.59,1.252 7.982,3.012L10.488,14.296C10.88,16.056 12.44,17.308 14.244,17.308L29.268,17.308L32.152,5.768L13.462,5.768C12.967,5.745 12.501,5.533 12.159,5.175C11.817,4.817 11.626,4.341 11.626,3.846C11.626,3.351 11.817,2.875 12.159,2.517C12.501,2.159 12.967,1.947 13.462,1.924L32.152,1.924C32.737,1.924 33.314,2.057 33.839,2.313C34.365,2.57 34.825,2.942 35.185,3.403C35.544,3.864 35.794,4.401 35.916,4.973C36.037,5.545 36.026,6.137 35.884,6.704L33,18.24C32.792,19.072 32.312,19.811 31.636,20.339C30.959,20.867 30.126,21.154 29.268,21.154L14.244,21.154C12.494,21.154 10.795,20.557 9.43,19.462C8.065,18.367 7.114,16.839 6.734,15.13L4.226,3.846L1.924,3.846Z" fill="#FFFFFF"/>
</svg>
