<svg width="270" height="80" viewBox="0 0 270 80" fill="none" xmlns="http://www.w3.org/2000/svg" xmlns:xlink="http://www.w3.org/1999/xlink">
<path d="M260,1.6C262.228,1.6 264.364,2.485 265.94,4.06C267.516,5.636 268.4,7.772 268.4,10L268.4,70C268.4,72.228 267.516,74.364 265.94,75.94C264.364,77.515 262.228,78.4 260,78.4L10,78.4C7.772,78.4 5.636,77.515 4.06,75.94C2.485,74.364 1.6,72.228 1.6,70L1.6,10C1.6,7.772 2.485,5.636 4.06,4.06C5.636,2.485 7.772,1.6 10,1.6L260,1.6ZM260,0L10,0C7.348,0 4.804,1.054 2.929,2.929C1.054,4.804 0,7.348 0,10L0,70C0,72.652 1.054,75.196 2.929,77.071C4.804,78.946 7.348,80 10,80L260,80C262.652,80 265.196,78.946 267.072,77.071C268.946,75.196 270,72.652 270,70L270,10C270,7.348 268.946,4.804 267.072,2.929C265.196,1.054 262.652,0 260,0Z" fill="#A6A6A6"/>
</svg>
