<svg width="170" height="34" viewBox="0 0 170 34" fill="none" xmlns="http://www.w3.org/2000/svg" xmlns:xlink="http://www.w3.org/1999/xlink">
<path d="M54.28,9.5C52.595,9.504 50.949,10.007 49.55,10.947C48.151,11.886 47.062,13.22 46.421,14.778C45.78,16.336 45.615,18.05 45.948,19.702C46.28,21.354 47.095,22.87 48.29,24.058C49.484,25.247 51.004,26.055 52.657,26.38C54.311,26.705 56.024,26.532 57.579,25.884C59.134,25.235 60.462,24.14 61.395,22.737C62.328,21.333 62.824,19.685 62.82,18C62.836,16.876 62.626,15.76 62.202,14.719C61.778,13.677 61.149,12.732 60.352,11.939C59.556,11.146 58.607,10.521 57.564,10.102C56.521,9.683 55.404,9.478 54.28,9.5L54.28,9.5ZM54.28,23.16C53.247,23.232 52.216,22.992 51.322,22.471C50.427,21.949 49.71,21.171 49.264,20.237C48.818,19.303 48.663,18.256 48.819,17.232C48.976,16.209 49.437,15.256 50.142,14.498C50.847,13.74 51.764,13.211 52.773,12.981C53.783,12.751 54.838,12.83 55.802,13.208C56.766,13.586 57.594,14.245 58.179,15.099C58.763,15.954 59.077,16.964 59.08,18C59.112,18.656 59.013,19.312 58.787,19.929C58.562,20.546 58.216,21.111 57.768,21.592C57.321,22.073 56.782,22.46 56.183,22.729C55.583,22.998 54.937,23.145 54.28,23.16ZM35.64,9.5C33.955,9.504 32.309,10.007 30.91,10.947C29.511,11.886 28.422,13.22 27.781,14.778C27.14,16.336 26.975,18.05 27.308,19.702C27.64,21.354 28.455,22.87 29.65,24.058C30.844,25.247 32.364,26.055 34.017,26.38C35.671,26.705 37.384,26.532 38.939,25.884C40.494,25.235 41.822,24.14 42.755,22.737C43.688,21.333 44.184,19.685 44.18,18C44.196,16.876 43.986,15.76 43.562,14.719C43.138,13.677 42.509,12.732 41.712,11.939C40.916,11.146 39.967,10.521 38.924,10.102C37.881,9.683 36.764,9.478 35.64,9.5L35.64,9.5ZM35.64,23.16C34.607,23.232 33.576,22.992 32.682,22.471C31.787,21.949 31.07,21.171 30.624,20.237C30.178,19.303 30.023,18.256 30.179,17.232C30.336,16.209 30.797,15.256 31.502,14.498C32.207,13.74 33.124,13.211 34.133,12.981C35.143,12.751 36.198,12.83 37.162,13.208C38.126,13.586 38.954,14.245 39.539,15.099C40.123,15.954 40.437,16.964 40.44,18C40.472,18.656 40.373,19.312 40.147,19.929C39.922,20.546 39.576,21.111 39.128,21.592C38.681,22.073 38.142,22.46 37.543,22.729C36.943,22.998 36.297,23.145 35.64,23.16ZM13.48,12.12L13.48,15.72L22.12,15.72C21.984,17.415 21.28,19.015 20.12,20.26C19.253,21.143 18.211,21.834 17.06,22.289C15.909,22.744 14.676,22.952 13.44,22.9C10.894,22.9 8.452,21.888 6.652,20.088C4.851,18.288 3.84,15.846 3.84,13.3C3.84,10.754 4.851,8.312 6.652,6.512C8.452,4.711 10.894,3.7 13.44,3.7C15.881,3.664 18.238,4.59 20,6.28L22.54,3.74C21.348,2.561 19.933,1.632 18.377,1.007C16.821,0.382 15.156,0.073 13.48,0.1C11.702,0.031 9.928,0.321 8.265,0.954C6.602,1.586 5.084,2.548 3.801,3.782C2.519,5.015 1.499,6.495 0.802,8.132C0.105,9.769 -0.254,11.53 -0.254,13.31C-0.254,15.089 0.105,16.85 0.802,18.487C1.499,20.125 2.519,21.604 3.801,22.838C5.084,24.071 6.602,25.033 8.265,25.666C9.928,26.299 11.702,26.589 13.48,26.52C15.191,26.588 16.897,26.294 18.486,25.656C20.075,25.018 21.511,24.052 22.7,22.82C24.8,20.513 25.919,17.478 25.82,14.36C25.827,13.609 25.767,12.86 25.64,12.12L13.48,12.12ZM104.1,14.92C103.578,13.385 102.603,12.045 101.303,11.078C100.003,10.11 98.44,9.559 96.82,9.5C95.726,9.498 94.643,9.72 93.638,10.153C92.634,10.586 91.728,11.22 90.979,12.017C90.229,12.814 89.65,13.756 89.279,14.785C88.908,15.814 88.752,16.908 88.82,18C88.803,19.826 89.377,21.608 90.456,23.08C91.535,24.553 93.062,25.637 94.808,26.17C96.555,26.703 98.426,26.657 100.144,26.039C101.862,25.421 103.334,24.264 104.34,22.74L101.44,20.74C101.008,21.46 100.394,22.055 99.661,22.466C98.928,22.876 98.1,23.088 97.26,23.08C96.393,23.116 95.536,22.888 94.8,22.428C94.065,21.967 93.486,21.295 93.14,20.5L104.52,15.8L104.1,14.92ZM92.5,17.76C92.459,17.139 92.543,16.516 92.746,15.927C92.95,15.339 93.268,14.797 93.684,14.333C94.099,13.869 94.603,13.493 95.165,13.226C95.728,12.96 96.338,12.808 96.96,12.78C97.604,12.741 98.246,12.892 98.805,13.216C99.363,13.54 99.814,14.021 100.1,14.6L92.5,17.76ZM83.26,26L87,26L87,1L83.26,1L83.26,26ZM77.14,11.4L77,11.4C76.441,10.764 75.752,10.255 74.978,9.91C74.205,9.565 73.367,9.391 72.52,9.4C70.334,9.506 68.273,10.449 66.764,12.033C65.254,13.617 64.413,15.722 64.413,17.91C64.413,20.098 65.254,22.202 66.764,23.787C68.273,25.371 70.334,26.314 72.52,26.42C73.368,26.437 74.209,26.266 74.983,25.921C75.758,25.575 76.446,25.062 77,24.42L77.14,24.42L77.14,25.64C77.14,28.9 75.4,30.64 72.6,30.64C71.665,30.619 70.756,30.321 69.991,29.783C69.225,29.246 68.637,28.493 68.3,27.62L65.06,28.96C65.659,30.464 66.7,31.752 68.047,32.651C69.393,33.551 70.981,34.022 72.6,34C76.98,34 80.6,31.42 80.6,25.14L80.6,10L77.14,10L77.14,11.4ZM72.84,23.16C71.53,23.078 70.3,22.5 69.401,21.543C68.501,20.586 68.001,19.323 68.001,18.01C68.001,16.697 68.501,15.433 69.401,14.477C70.3,13.52 71.53,12.942 72.84,12.86C73.48,12.887 74.109,13.044 74.688,13.319C75.267,13.595 75.784,13.984 76.209,14.463C76.635,14.943 76.96,15.503 77.164,16.111C77.369,16.718 77.449,17.361 77.4,18C77.454,18.641 77.378,19.287 77.176,19.898C76.974,20.509 76.65,21.073 76.224,21.555C75.798,22.038 75.278,22.429 74.696,22.704C74.115,22.98 73.483,23.135 72.84,23.16L72.84,23.16ZM121.62,1L112.66,1L112.66,26L116.4,26L116.4,16.52L121.62,16.52C122.686,16.596 123.756,16.453 124.764,16.097C125.772,15.742 126.696,15.183 127.478,14.455C128.26,13.727 128.884,12.845 129.311,11.866C129.737,10.886 129.957,9.829 129.957,8.76C129.957,7.691 129.737,6.634 129.311,5.654C128.884,4.674 128.26,3.793 127.478,3.065C126.696,2.337 125.772,1.778 124.764,1.422C123.756,1.067 122.686,0.923 121.62,1L121.62,1ZM121.62,13L116.4,13L116.4,4.48L121.7,4.48C122.262,4.48 122.819,4.591 123.338,4.806C123.857,5.021 124.329,5.336 124.726,5.733C125.124,6.131 125.439,6.603 125.654,7.122C125.869,7.641 125.98,8.198 125.98,8.76C125.98,9.322 125.869,9.878 125.654,10.398C125.439,10.917 125.124,11.389 124.726,11.786C124.329,12.184 123.857,12.499 123.338,12.714C122.819,12.929 122.262,13.04 121.7,13.04L121.62,13ZM144.7,9.42C143.338,9.336 141.981,9.653 140.797,10.332C139.614,11.011 138.655,12.022 138.04,13.24L141.34,14.62C141.673,14.019 142.174,13.527 142.781,13.204C143.388,12.881 144.075,12.741 144.76,12.8C145.235,12.744 145.716,12.784 146.175,12.917C146.634,13.049 147.063,13.272 147.435,13.571C147.807,13.871 148.116,14.242 148.344,14.662C148.571,15.083 148.713,15.544 148.76,16.02L148.76,16.26C147.557,15.628 146.219,15.298 144.86,15.3C141.3,15.3 137.66,17.3 137.66,20.94C137.695,21.713 137.885,22.472 138.22,23.171C138.554,23.87 139.025,24.494 139.605,25.007C140.185,25.52 140.863,25.911 141.597,26.157C142.331,26.404 143.108,26.5 143.88,26.44C144.818,26.492 145.754,26.293 146.59,25.864C147.427,25.436 148.134,24.792 148.64,24L148.76,24L148.76,26L152.36,26L152.36,16.38C152.36,12 149.04,9.46 144.78,9.46L144.7,9.42ZM144.24,23.12C143.02,23.12 141.32,22.5 141.32,21C141.32,19 143.44,18.32 145.32,18.32C146.508,18.291 147.682,18.581 148.72,19.16C148.594,20.246 148.079,21.25 147.27,21.985C146.461,22.721 145.413,23.138 144.32,23.16L144.24,23.12ZM165.48,10L161.2,20.84L161.08,20.84L156.64,10L152.64,10L159.3,25.16L155.5,33.58L159.4,33.58L169.64,10L165.48,10ZM131.88,26L135.6,26L135.6,1L131.88,1L131.88,26Z" fill="#FFFFFF"/>
</svg>
