<svg width="128" height="144" viewBox="0 0 128 144" fill="none" xmlns="http://www.w3.org/2000/svg" xmlns:xlink="http://www.w3.org/1999/xlink">
<path d="M109.56,75.591C110.122,74.71 110.5,73.724 110.674,72.694C110.848,71.663 110.812,70.608 110.571,69.591C110.329,68.574 109.886,67.616 109.267,66.774C108.648,65.931 107.866,65.222 106.968,64.687L27.592,16.431C26.301,15.65 24.821,15.238 23.312,15.239C18.832,15.239 15.208,18.783 15.208,23.159L15.208,119.647C15.208,121.127 15.632,122.575 16.432,123.831C18.8,127.543 23.792,128.679 27.592,126.367L106.968,78.119C108.016,77.479 108.912,76.607 109.568,75.583L109.56,75.591ZM115.528,91.567L36.16,139.815C24.76,146.751 9.76,143.335 2.672,132.207C0.276,128.456 -0.998,124.098 -1,119.647L-1,23.167C-1,10.039 9.88,-0.593 23.32,-0.593C27.856,-0.593 32.304,0.647 36.16,2.991L115.528,51.247C126.928,58.175 130.424,72.815 123.328,83.951C121.36,87.039 118.688,89.647 115.528,91.567L115.528,91.567Z" fill="#FFFFFF"/>
</svg>
