<svg width="40" height="30" viewBox="0 0 40 30" fill="none" xmlns="http://www.w3.org/2000/svg" xmlns:xlink="http://www.w3.org/1999/xlink">
<path d="M30.624,0.441L7.29,0.441C2.71,0.441 -1,4.111 -1,8.639L-1,20.175C-1,24.703 2.712,28.375 7.29,28.375L30.624,28.375C35.204,28.375 38.914,24.703 38.914,20.175L38.914,8.639C38.914,4.111 35.202,0.439 30.624,0.439L30.624,0.441ZM25.018,14.967L14.104,20.117C14.037,20.149 13.964,20.164 13.89,20.16C13.816,20.156 13.745,20.133 13.682,20.094C13.619,20.055 13.568,20.001 13.532,19.936C13.496,19.872 13.476,19.799 13.476,19.725L13.476,9.107C13.477,9.033 13.497,8.96 13.534,8.896C13.571,8.831 13.624,8.777 13.688,8.739C13.751,8.7 13.823,8.679 13.898,8.675C13.972,8.672 14.046,8.688 14.112,8.721L25.028,14.191C25.101,14.227 25.162,14.283 25.204,14.353C25.246,14.422 25.268,14.502 25.267,14.583C25.266,14.665 25.242,14.744 25.198,14.812C25.154,14.88 25.092,14.935 25.018,14.969L25.018,14.967Z" fill="#E2E8F0"/>
</svg>
