<svg width="40" height="40" viewBox="0 0 40 40" fill="none" xmlns="http://www.w3.org/2000/svg" xmlns:xlink="http://www.w3.org/1999/xlink">
<path d="M39.918,23.438L39.918,38.196L31.362,38.196L31.362,24.426C31.362,20.966 30.124,18.606 27.028,18.606C24.664,18.606 23.256,20.198 22.638,21.736C22.412,22.286 22.354,23.052 22.354,23.822L22.354,38.196L13.794,38.196C13.794,38.196 13.91,14.876 13.794,12.458L22.354,12.458L22.354,16.106L22.298,16.19L22.354,16.19L22.354,16.106C23.49,14.356 25.52,11.854 30.066,11.854C35.696,11.854 39.918,15.534 39.918,23.438L39.918,23.438ZM4.842,0.052C1.916,0.052 0,1.972 0,4.498C0,6.968 1.86,8.946 4.73,8.946L4.786,8.946C7.772,8.946 9.626,6.968 9.626,4.498C9.574,1.972 7.774,0.052 4.844,0.052L4.842,0.052ZM0.508,38.196L9.064,38.196L9.064,12.458L0.508,12.458L0.508,38.196Z" fill="#E2E8F0"/>
</svg>
