<svg width="270" height="82" viewBox="0 0 270 82" fill="none" xmlns="http://www.w3.org/2000/svg" xmlns:xlink="http://www.w3.org/1999/xlink">
<path d="M260,2.007C262.228,2.007 264.364,2.892 265.94,4.468C267.516,6.043 268.4,8.179 268.4,10.407L268.4,70.407C268.4,72.635 267.516,74.772 265.94,76.347C264.364,77.922 262.228,78.807 260,78.807L10,78.807C7.772,78.807 5.636,77.922 4.06,76.347C2.485,74.772 1.6,72.635 1.6,70.407L1.6,10.407C1.6,8.179 2.485,6.043 4.06,4.468C5.636,2.892 7.772,2.007 10,2.007L260,2.007ZM260,0.407L10,0.407C7.348,0.407 4.804,1.461 2.929,3.336C1.054,5.212 0,7.755 0,10.407L0,70.407C0,73.059 1.054,75.603 2.929,77.478C4.804,79.354 7.348,80.407 10,80.407L260,80.407C262.652,80.407 265.196,79.354 267.072,77.478C268.946,75.603 270,73.059 270,70.407L270,10.407C270,7.755 268.946,5.212 267.072,3.336C265.196,1.461 262.652,0.407 260,0.407Z" fill="#A6A6A6"/>
</svg>
