<svg width="30" height="28" viewBox="0 0 30 28" fill="none" xmlns="http://www.w3.org/2000/svg" xmlns:xlink="http://www.w3.org/1999/xlink">
<path d="M21.172,11.314L13.272,3.414C12.908,3.037 12.706,2.531 12.711,2.007C12.715,1.483 12.926,0.981 13.296,0.61C13.667,0.239 14.169,0.029 14.693,0.024C15.218,0.02 15.723,0.222 16.1,0.586L27.414,11.9C27.6,12.085 27.748,12.305 27.849,12.548C27.95,12.791 28.002,13.051 28.002,13.314C28.002,13.577 27.95,13.837 27.849,14.08C27.748,14.322 27.6,14.543 27.414,14.728L16.1,26.042C15.916,26.233 15.695,26.385 15.451,26.49C15.207,26.595 14.944,26.65 14.679,26.652C14.413,26.655 14.15,26.604 13.904,26.503C13.658,26.403 13.435,26.254 13.247,26.067C13.059,25.879 12.911,25.656 12.81,25.41C12.71,25.164 12.659,24.901 12.661,24.635C12.664,24.369 12.719,24.107 12.824,23.863C12.929,23.619 13.081,23.398 13.272,23.214L21.172,15.314L2,15.314C1.47,15.314 0.961,15.103 0.586,14.728C0.211,14.353 0,13.844 0,13.314C0,12.783 0.211,12.275 0.586,11.9C0.961,11.525 1.47,11.314 2,11.314L21.172,11.314L21.172,11.314Z" fill="#0F172A"/>
</svg>
