<svg width="36" height="32" viewBox="0 0 36 32" fill="none" xmlns="http://www.w3.org/2000/svg" xmlns:xlink="http://www.w3.org/1999/xlink">
<path d="M13.333,32C12.272,32 11.255,31.579 10.505,30.828C9.755,30.078 9.333,29.061 9.333,28C9.333,26.939 9.755,25.922 10.505,25.172C11.255,24.421 12.272,24 13.333,24C14.394,24 15.412,24.421 16.162,25.172C16.912,25.922 17.333,26.939 17.333,28C17.333,29.061 16.912,30.078 16.162,30.828C15.412,31.579 14.394,32 13.333,32ZM27.333,32C26.273,32 25.255,31.579 24.505,30.828C23.755,30.078 23.333,29.061 23.333,28C23.333,26.939 23.755,25.922 24.505,25.172C25.255,24.421 26.273,24 27.333,24C28.394,24 29.412,24.421 30.162,25.172C30.912,25.922 31.333,26.939 31.333,28C31.333,29.061 30.912,30.078 30.162,30.828C29.412,31.579 28.394,32 27.333,32ZM1.257,3.846C0.758,3.83 0.285,3.62 -0.063,3.261C-0.41,2.903 -0.605,2.423 -0.605,1.923C-0.605,1.423 -0.41,0.944 -0.063,0.585C0.285,0.226 0.758,0.016 1.257,0L3.559,0C5.363,0 6.923,1.252 7.315,3.012L9.821,14.296C10.213,16.056 11.773,17.308 13.577,17.308L28.601,17.308L31.485,5.768L12.795,5.768C12.301,5.745 11.834,5.533 11.492,5.175C11.15,4.817 10.959,4.341 10.959,3.846C10.959,3.351 11.15,2.875 11.492,2.517C11.834,2.159 12.301,1.947 12.795,1.924L31.485,1.924C32.07,1.924 32.647,2.057 33.173,2.313C33.698,2.57 34.158,2.942 34.518,3.403C34.878,3.864 35.128,4.401 35.249,4.973C35.37,5.545 35.359,6.137 35.217,6.704L32.333,18.24C32.125,19.072 31.645,19.811 30.969,20.339C30.293,20.867 29.459,21.154 28.601,21.154L13.577,21.154C11.827,21.154 10.129,20.557 8.763,19.462C7.398,18.367 6.447,16.839 6.067,15.13L3.559,3.846L1.257,3.846Z" fill="#FFFFFF"/>
</svg>
