<svg width="32" height="42" viewBox="0 0 32 42" fill="none" xmlns="http://www.w3.org/2000/svg" xmlns:xlink="http://www.w3.org/1999/xlink">
<path d="M4,9.179L4,16.407C4,18.978 4.55,21.519 5.612,23.86C6.675,26.201 8.225,28.288 10.16,29.981L16,35.091L21.84,29.981C23.775,28.288 25.325,26.201 26.388,23.86C27.45,21.519 28,18.978 28,16.407L28,9.179L16,4.679L4,9.179ZM1.298,5.919L16,0.407L30.702,5.921C31.083,6.064 31.412,6.32 31.644,6.654C31.875,6.989 32,7.386 32,7.793L32,16.407C32,22.761 29.256,28.807 24.474,32.993L16,40.407L7.526,32.993C5.162,30.925 3.267,28.375 1.969,25.514C0.671,22.653 0,19.549 0,16.407L0,7.793C0,7.386 0.125,6.989 0.356,6.654C0.588,6.32 0.917,6.064 1.298,5.921L1.298,5.919ZM13.878,20.943L20.95,13.871C21.327,13.507 21.832,13.305 22.357,13.31C22.881,13.314 23.383,13.525 23.754,13.896C24.124,14.266 24.335,14.768 24.339,15.292C24.344,15.817 24.142,16.322 23.778,16.699L15.292,25.187C14.917,25.562 14.408,25.773 13.878,25.773C13.348,25.773 12.839,25.562 12.464,25.187L8.222,20.945C7.858,20.568 7.656,20.063 7.661,19.538C7.665,19.014 7.876,18.512 8.246,18.142C8.617,17.771 9.119,17.56 9.643,17.556C10.168,17.551 10.673,17.753 11.05,18.117L13.878,20.945L13.878,20.943Z" fill="#0F172A"/>
</svg>
