<svg width="36" height="34" viewBox="0 0 36 34" fill="none" xmlns="http://www.w3.org/2000/svg" xmlns:xlink="http://www.w3.org/1999/xlink">
<path d="M13,32.407C11.939,32.407 10.922,31.986 10.172,31.236C9.421,30.485 9,29.468 9,28.407C9,27.346 9.421,26.329 10.172,25.579C10.922,24.829 11.939,24.407 13,24.407C14.061,24.407 15.078,24.829 15.828,25.579C16.579,26.329 17,27.346 17,28.407C17,29.468 16.579,30.485 15.828,31.236C15.078,31.986 14.061,32.407 13,32.407ZM27,32.407C25.939,32.407 24.922,31.986 24.172,31.236C23.421,30.485 23,29.468 23,28.407C23,27.346 23.421,26.329 24.172,25.579C24.922,24.829 25.939,24.407 27,24.407C28.061,24.407 29.078,24.829 29.828,25.579C30.579,26.329 31,27.346 31,28.407C31,29.468 30.579,30.485 29.828,31.236C29.078,31.986 28.061,32.407 27,32.407ZM0.924,4.253C0.425,4.237 -0.049,4.027 -0.396,3.669C-0.744,3.31 -0.938,2.83 -0.938,2.33C-0.938,1.831 -0.744,1.351 -0.396,0.992C-0.049,0.633 0.425,0.423 0.924,0.407L3.226,0.407C5.03,0.407 6.59,1.659 6.982,3.419L9.488,14.703C9.88,16.463 11.44,17.715 13.244,17.715L28.268,17.715L31.152,6.175L12.462,6.175C11.967,6.153 11.501,5.94 11.159,5.582C10.817,5.224 10.626,4.748 10.626,4.253C10.626,3.758 10.817,3.282 11.159,2.924C11.501,2.566 11.967,2.354 12.462,2.331L31.152,2.331C31.737,2.331 32.314,2.464 32.839,2.72C33.365,2.977 33.825,3.35 34.185,3.81C34.544,4.271 34.794,4.808 34.916,5.38C35.037,5.952 35.026,6.544 34.884,7.111L32,18.647C31.792,19.48 31.312,20.219 30.636,20.747C29.959,21.275 29.126,21.561 28.268,21.561L13.244,21.561C11.494,21.561 9.795,20.965 8.43,19.869C7.065,18.774 6.114,17.246 5.734,15.537L3.226,4.253L0.924,4.253Z" fill="#FFFFFF"/>
</svg>
