<svg width="36" height="38" viewBox="0 0 36 38" fill="none" xmlns="http://www.w3.org/2000/svg" xmlns:xlink="http://www.w3.org/1999/xlink">
<path d="M18.616,25.349L18.768,23.221L20.622,22.163C22.402,21.132 24.038,19.869 25.486,18.407C30.766,13.125 32.378,6.915 30.436,4.971C28.492,3.031 22.282,4.639 17,9.921C15.48,11.441 14.206,13.101 13.244,14.785L12.184,16.639L10.058,16.791C8.313,16.914 6.658,17.608 5.348,18.767C7.848,19.867 10.121,21.424 12.05,23.357C14.01,25.317 15.554,27.591 16.64,30.059C17.799,28.749 18.494,27.094 18.616,25.349ZM12.67,31.007C12.268,31.554 11.825,32.07 11.344,32.549C9,34.893 5.464,35.599 0.736,34.669C-0.192,29.943 0.516,26.407 2.856,24.063C3.352,23.571 3.868,23.127 4.4,22.737C2.761,21.936 1.008,21.39 -0.796,21.117C-0.215,19.294 0.795,17.637 2.15,16.285C4.187,14.243 6.893,13.007 9.77,12.803C10.978,10.714 12.457,8.793 14.17,7.093C20.81,0.453 29.358,-1.761 33.264,2.143C37.168,6.049 34.952,14.597 28.314,21.235C26.614,22.948 24.694,24.428 22.604,25.635C22.401,28.512 21.164,31.218 19.122,33.255C17.772,34.612 16.114,35.623 14.29,36.203C14.017,34.399 13.471,32.647 12.67,31.007L12.67,31.007ZM9.22,26.187C8.898,25.864 8.535,25.585 8.14,25.357C7.276,25.657 6.26,26.317 5.33,27.245C4.892,27.685 4.356,29.163 4.35,31.055C6.242,31.049 7.726,30.507 8.16,30.075C9.09,29.143 9.75,28.129 10.048,27.265C9.821,26.87 9.542,26.507 9.22,26.185L9.22,26.187ZM24.776,10.627C24.581,10.444 24.424,10.223 24.316,9.978C24.208,9.733 24.15,9.468 24.146,9.2C24.141,8.932 24.191,8.666 24.292,8.418C24.392,8.17 24.542,7.944 24.732,7.755C24.921,7.565 25.147,7.416 25.395,7.315C25.644,7.215 25.91,7.165 26.178,7.17C26.446,7.174 26.71,7.232 26.955,7.341C27.2,7.449 27.421,7.606 27.604,7.801C27.949,8.182 28.134,8.68 28.122,9.193C28.11,9.706 27.9,10.195 27.537,10.558C27.174,10.921 26.686,11.131 26.173,11.144C25.659,11.157 25.161,10.972 24.78,10.627L24.776,10.627Z" fill="#0F172A"/>
</svg>
