<svg width="64" height="66" viewBox="0 0 64 66" fill="none" xmlns="http://www.w3.org/2000/svg" xmlns:xlink="http://www.w3.org/1999/xlink">
<path d="M32,64.407C49.673,64.407 64,50.08 64,32.407C64,14.734 49.673,0.407 32,0.407C14.327,0.407 0,14.734 0,32.407C0,50.08 14.327,64.407 32,64.407ZM41.983,15.314C42.469,13.588 40.794,12.567 39.264,13.657L17.909,28.871C16.25,30.052 16.511,32.407 18.301,32.407L23.924,32.407L23.924,32.364L34.884,32.364L25.954,35.515L22.017,49.5C21.531,51.226 23.206,52.247 24.736,51.157L46.091,35.944C47.75,34.762 47.489,32.407 45.699,32.407L37.171,32.407L41.983,15.314Z" clip-rule="evenodd" fill-rule="evenodd" fill="#475569"/>
</svg>
