<svg width="38" height="38" viewBox="0 0 38 38" fill="none" xmlns="http://www.w3.org/2000/svg" xmlns:xlink="http://www.w3.org/1999/xlink">
<path d="M17,29C18.576,29 20.136,28.69 21.592,28.087C23.048,27.484 24.371,26.6 25.485,25.485C26.6,24.371 27.484,23.048 28.087,21.592C28.69,20.136 29,18.576 29,17C29,15.424 28.69,13.864 28.087,12.408C27.484,10.952 26.6,9.629 25.485,8.515C24.371,7.4 23.048,6.517 21.592,5.913C20.136,5.31 18.576,5 17,5C13.817,5 10.765,6.264 8.515,8.515C6.264,10.765 5,13.817 5,17C5,20.183 6.264,23.235 8.515,25.485C10.765,27.736 13.817,29 17,29L17,29ZM29.64,26.812L36.8,33.972C36.991,34.157 37.143,34.377 37.248,34.622C37.352,34.866 37.407,35.128 37.409,35.394C37.412,35.659 37.361,35.923 37.26,36.168C37.159,36.414 37.011,36.637 36.823,36.825C36.635,37.012 36.411,37.161 36.166,37.261C35.92,37.362 35.656,37.412 35.391,37.409C35.125,37.407 34.863,37.352 34.619,37.247C34.375,37.142 34.154,36.989 33.97,36.798L26.81,29.638C23.595,32.134 19.55,33.31 15.498,32.928C11.445,32.546 7.691,30.635 4.999,27.582C2.307,24.53 0.879,20.566 1.007,16.498C1.134,12.43 2.807,8.563 5.685,5.685C8.563,2.807 12.43,1.134 16.498,1.007C20.566,0.879 24.53,2.307 27.582,4.999C30.635,7.691 32.546,11.445 32.928,15.498C33.31,19.55 32.134,23.595 29.638,26.81L29.64,26.812Z" fill="#0F172A"/>
</svg>
