<svg width="40" height="32" viewBox="0 0 40 32" fill="none" xmlns="http://www.w3.org/2000/svg" xmlns:xlink="http://www.w3.org/1999/xlink">
<path d="M18,24L18,2C18,1.47 18.211,0.961 18.586,0.586C18.961,0.211 19.47,0 20,0C20.53,0 21.039,0.211 21.414,0.586C21.789,0.961 22,1.47 22,2L22,24L24,24C24.53,24 25.039,24.211 25.414,24.586C25.789,24.961 26,25.47 26,26C26,26.53 25.789,27.039 25.414,27.414C25.039,27.789 24.53,28 24,28L22,28L22,30C22,30.53 21.789,31.039 21.414,31.414C21.039,31.789 20.53,32 20,32C19.47,32 18.961,31.789 18.586,31.414C18.211,31.039 18,30.53 18,30L18,28L16,28C15.47,28 14.961,27.789 14.586,27.414C14.211,27.039 14,26.53 14,26C14,25.47 14.211,24.961 14.586,24.586C14.961,24.211 15.47,24 16,24L18,24ZM32,4L32,2C32,1.47 32.211,0.961 32.586,0.586C32.961,0.211 33.47,0 34,0C34.53,0 35.039,0.211 35.414,0.586C35.789,0.961 36,1.47 36,2L36,4L38,4C38.53,4 39.039,4.211 39.414,4.586C39.789,4.961 40,5.47 40,6C40,6.53 39.789,7.039 39.414,7.414C39.039,7.789 38.53,8 38,8L36,8L36,30C36,30.53 35.789,31.039 35.414,31.414C35.039,31.789 34.53,32 34,32C33.47,32 32.961,31.789 32.586,31.414C32.211,31.039 32,30.53 32,30L32,8L30,8C29.47,8 28.961,7.789 28.586,7.414C28.211,7.039 28,6.53 28,6C28,5.47 28.211,4.961 28.586,4.586C28.961,4.211 29.47,4 30,4L32,4ZM8,10L10,10C10.53,10 11.039,10.211 11.414,10.586C11.789,10.961 12,11.47 12,12C12,12.53 11.789,13.039 11.414,13.414C11.039,13.789 10.53,14 10,14L8,14L8,30C8,30.53 7.789,31.039 7.414,31.414C7.039,31.789 6.53,32 6,32C5.47,32 4.961,31.789 4.586,31.414C4.211,31.039 4,30.53 4,30L4,14L2,14C1.47,14 0.961,13.789 0.586,13.414C0.211,13.039 0,12.53 0,12C0,11.47 0.211,10.961 0.586,10.586C0.961,10.211 1.47,10 2,10L4,10L4,2C4,1.47 4.211,0.961 4.586,0.586C4.961,0.211 5.47,0 6,0C6.53,0 7.039,0.211 7.414,0.586C7.789,0.961 8,1.47 8,2L8,10Z" fill="#0F172A"/>
</svg>
