<svg width="38" height="32" viewBox="0 0 38 32" fill="none" xmlns="http://www.w3.org/2000/svg" xmlns:xlink="http://www.w3.org/1999/xlink">
<path d="M14.667,32C13.606,32 12.588,31.579 11.838,30.828C11.088,30.078 10.667,29.061 10.667,28C10.667,26.939 11.088,25.922 11.838,25.172C12.588,24.421 13.606,24 14.667,24C15.727,24 16.745,24.421 17.495,25.172C18.245,25.922 18.667,26.939 18.667,28C18.667,29.061 18.245,30.078 17.495,30.828C16.745,31.579 15.727,32 14.667,32ZM28.667,32C27.606,32 26.588,31.579 25.838,30.828C25.088,30.078 24.667,29.061 24.667,28C24.667,26.939 25.088,25.922 25.838,25.172C26.588,24.421 27.606,24 28.667,24C29.727,24 30.745,24.421 31.495,25.172C32.245,25.922 32.667,26.939 32.667,28C32.667,29.061 32.245,30.078 31.495,30.828C30.745,31.579 29.727,32 28.667,32ZM2.591,3.846C2.091,3.83 1.618,3.62 1.27,3.261C0.923,2.903 0.729,2.423 0.729,1.923C0.729,1.423 0.923,0.944 1.27,0.585C1.618,0.226 2.091,0.016 2.591,0L4.893,0C6.697,0 8.257,1.252 8.649,3.012L11.155,14.296C11.547,16.056 13.107,17.308 14.911,17.308L29.935,17.308L32.819,5.768L14.129,5.768C13.634,5.745 13.167,5.533 12.825,5.175C12.483,4.817 12.292,4.341 12.292,3.846C12.292,3.351 12.483,2.875 12.825,2.517C13.167,2.159 13.634,1.947 14.129,1.924L32.819,1.924C33.403,1.924 33.98,2.057 34.506,2.313C35.031,2.57 35.491,2.942 35.851,3.403C36.211,3.864 36.461,4.401 36.582,4.973C36.703,5.545 36.693,6.137 36.551,6.704L33.667,18.24C33.459,19.072 32.978,19.811 32.302,20.339C31.626,20.867 30.793,21.154 29.935,21.154L14.911,21.154C13.16,21.154 11.462,20.557 10.097,19.462C8.731,18.367 7.78,16.839 7.401,15.13L4.893,3.846L2.591,3.846Z" fill="#FFFFFF"/>
</svg>
