<svg width="40" height="40" viewBox="0 0 40 40" fill="none" xmlns="http://www.w3.org/2000/svg" xmlns:xlink="http://www.w3.org/1999/xlink">
<path d="M20,40C8.954,40 0,31.046 0,20C0,8.954 8.954,0 20,0C31.046,0 40,8.954 40,20C40,31.046 31.046,40 20,40ZM20,36C24.243,36 28.313,34.314 31.314,31.314C34.314,28.313 36,24.243 36,20C36,15.757 34.314,11.687 31.314,8.686C28.313,5.686 24.243,4 20,4C15.757,4 11.687,5.686 8.686,8.686C5.686,11.687 4,15.757 4,20C4,24.243 5.686,28.313 8.686,31.314C11.687,34.314 15.757,36 20,36L20,36ZM28.252,23.492L20.142,29.288C18.332,30.58 15.882,30.066 14.668,28.136C14.23,27.434 13.998,26.623 14,25.796L14,14.204C14,11.884 15.766,10 17.944,10C18.726,10 19.492,10.248 20.142,10.712L28.252,16.508C30.062,17.802 30.544,20.412 29.332,22.342C29.05,22.792 28.683,23.183 28.252,23.492L28.252,23.492ZM17.944,14.204L17.944,25.796L26.054,20L17.944,14.204Z" fill="#78350F"/>
</svg>
