<svg width="40" height="34" viewBox="0 0 40 34" fill="none" xmlns="http://www.w3.org/2000/svg" xmlns:xlink="http://www.w3.org/1999/xlink">
<path d="M18,24.407L18,2.407C18,1.877 18.211,1.368 18.586,0.993C18.961,0.618 19.47,0.407 20,0.407C20.53,0.407 21.039,0.618 21.414,0.993C21.789,1.368 22,1.877 22,2.407L22,24.407L24,24.407C24.53,24.407 25.039,24.618 25.414,24.993C25.789,25.368 26,25.877 26,26.407C26,26.938 25.789,27.446 25.414,27.821C25.039,28.196 24.53,28.407 24,28.407L22,28.407L22,30.407C22,30.938 21.789,31.446 21.414,31.821C21.039,32.196 20.53,32.407 20,32.407C19.47,32.407 18.961,32.196 18.586,31.821C18.211,31.446 18,30.938 18,30.407L18,28.407L16,28.407C15.47,28.407 14.961,28.196 14.586,27.821C14.211,27.446 14,26.938 14,26.407C14,25.877 14.211,25.368 14.586,24.993C14.961,24.618 15.47,24.407 16,24.407L18,24.407ZM32,4.407L32,2.407C32,1.877 32.211,1.368 32.586,0.993C32.961,0.618 33.47,0.407 34,0.407C34.53,0.407 35.039,0.618 35.414,0.993C35.789,1.368 36,1.877 36,2.407L36,4.407L38,4.407C38.53,4.407 39.039,4.618 39.414,4.993C39.789,5.368 40,5.877 40,6.407C40,6.938 39.789,7.446 39.414,7.821C39.039,8.197 38.53,8.407 38,8.407L36,8.407L36,30.407C36,30.938 35.789,31.446 35.414,31.821C35.039,32.196 34.53,32.407 34,32.407C33.47,32.407 32.961,32.196 32.586,31.821C32.211,31.446 32,30.938 32,30.407L32,8.407L30,8.407C29.47,8.407 28.961,8.197 28.586,7.821C28.211,7.446 28,6.938 28,6.407C28,5.877 28.211,5.368 28.586,4.993C28.961,4.618 29.47,4.407 30,4.407L32,4.407ZM8,10.407L10,10.407C10.53,10.407 11.039,10.618 11.414,10.993C11.789,11.368 12,11.877 12,12.407C12,12.938 11.789,13.446 11.414,13.821C11.039,14.197 10.53,14.407 10,14.407L8,14.407L8,30.407C8,30.938 7.789,31.446 7.414,31.821C7.039,32.196 6.53,32.407 6,32.407C5.47,32.407 4.961,32.196 4.586,31.821C4.211,31.446 4,30.938 4,30.407L4,14.407L2,14.407C1.47,14.407 0.961,14.197 0.586,13.821C0.211,13.446 0,12.938 0,12.407C0,11.877 0.211,11.368 0.586,10.993C0.961,10.618 1.47,10.407 2,10.407L4,10.407L4,2.407C4,1.877 4.211,1.368 4.586,0.993C4.961,0.618 5.47,0.407 6,0.407C6.53,0.407 7.039,0.618 7.414,0.993C7.789,1.368 8,1.877 8,2.407L8,10.407Z" fill="#0F172A"/>
</svg>
