<svg width="40" height="36" viewBox="0 0 40 36" fill="none" xmlns="http://www.w3.org/2000/svg" xmlns:xlink="http://www.w3.org/1999/xlink">
<path d="M6,4C5.47,4 4.961,4.211 4.586,4.586C4.211,4.961 4,5.47 4,6L4,24C4,24.53 4.211,25.039 4.586,25.414C4.961,25.789 5.47,26 6,26L34,26C34.53,26 35.039,25.789 35.414,25.414C35.789,25.039 36,24.53 36,24L36,6C36,5.47 35.789,4.961 35.414,4.586C35.039,4.211 34.53,4 34,4L6,4ZM6,0L34,0C35.591,0 37.117,0.632 38.243,1.757C39.368,2.883 40,4.409 40,6L40,24C40,25.591 39.368,27.117 38.243,28.243C37.117,29.368 35.591,30 34,30L6,30C4.409,30 2.883,29.368 1.757,28.243C0.632,27.117 0,25.591 0,24L0,6C0,4.409 0.632,2.883 1.757,1.757C2.883,0.632 4.409,0 6,0L6,0ZM14,32L26,32C26.53,32 27.039,32.211 27.414,32.586C27.789,32.961 28,33.47 28,34C28,34.53 27.789,35.039 27.414,35.414C27.039,35.789 26.53,36 26,36L14,36C13.47,36 12.961,35.789 12.586,35.414C12.211,35.039 12,34.53 12,34C12,33.47 12.211,32.961 12.586,32.586C12.961,32.211 13.47,32 14,32Z" fill="#0F172A"/>
</svg>
