<svg width="40" height="42" viewBox="0 0 40 42" fill="none" xmlns="http://www.w3.org/2000/svg" xmlns:xlink="http://www.w3.org/1999/xlink">
<path d="M16,40.007C6.872,38.153 0,30.083 0,20.407C0,9.361 8.954,0.407 20,0.407C31.046,0.407 40,9.361 40,20.407C40,30.083 33.128,38.153 24,40.007L24,35.903C27.771,34.93 31.057,32.614 33.242,29.391C35.428,26.168 36.363,22.258 35.872,18.395C35.382,14.532 33.499,10.98 30.577,8.406C27.655,5.832 23.894,4.411 20,4.411C16.106,4.411 12.345,5.832 9.423,8.406C6.501,10.98 4.618,14.532 4.128,18.395C3.637,22.258 4.572,26.168 6.758,29.391C8.943,32.614 12.229,34.93 16,35.903L16,40.007ZM16,31.725C13.331,30.782 11.082,28.925 9.649,26.483C8.217,24.042 7.694,21.172 8.173,18.382C8.651,15.592 10.101,13.061 12.265,11.237C14.43,9.412 17.169,8.412 20,8.412C22.831,8.412 25.57,9.412 27.735,11.237C29.899,13.061 31.348,15.592 31.827,18.382C32.306,21.172 31.783,24.042 30.351,26.483C28.918,28.925 26.669,30.782 24,31.725L24,27.337C25.525,26.457 26.717,25.097 27.391,23.47C28.065,21.843 28.183,20.04 27.727,18.338C27.272,16.637 26.267,15.134 24.87,14.062C23.473,12.99 21.761,12.409 20,12.409C18.239,12.409 16.527,12.99 15.13,14.062C13.733,15.134 12.728,16.637 12.273,18.338C11.817,20.04 11.935,21.843 12.609,23.47C13.283,25.097 14.475,26.457 16,27.337L16,31.725L16,31.725ZM22,23.871L22,40.407L18,40.407L18,23.871C17.237,23.431 16.641,22.751 16.304,21.938C15.968,21.124 15.908,20.222 16.136,19.372C16.364,18.521 16.866,17.77 17.565,17.234C18.264,16.698 19.119,16.407 20,16.407C20.881,16.407 21.736,16.698 22.435,17.234C23.134,17.77 23.636,18.521 23.864,19.372C24.092,20.222 24.032,21.124 23.696,21.938C23.359,22.751 22.763,23.431 22,23.871L22,23.871Z" fill="#0F172A"/>
</svg>
