<svg width="32" height="40" viewBox="0 0 32 40" fill="none" xmlns="http://www.w3.org/2000/svg" xmlns:xlink="http://www.w3.org/1999/xlink">
<path d="M4,8.772L4,16C4,18.571 4.55,21.112 5.612,23.453C6.675,25.794 8.225,27.881 10.16,29.574L16,34.684L21.84,29.574C23.775,27.881 25.325,25.794 26.388,23.453C27.45,21.112 28,18.571 28,16L28,8.772L16,4.272L4,8.772ZM1.298,5.512L16,0L30.702,5.514C31.083,5.657 31.412,5.913 31.644,6.247C31.875,6.582 32,6.979 32,7.386L32,16C32,22.354 29.256,28.4 24.474,32.586L16,40L7.526,32.586C5.162,30.517 3.267,27.967 1.969,25.107C0.671,22.246 0,19.141 0,16L0,7.386C0,6.979 0.125,6.582 0.356,6.247C0.588,5.913 0.917,5.657 1.298,5.514L1.298,5.512ZM13.878,20.536L20.95,13.464C21.327,13.1 21.832,12.898 22.357,12.903C22.881,12.907 23.383,13.118 23.754,13.488C24.124,13.859 24.335,14.361 24.339,14.885C24.344,15.41 24.142,15.915 23.778,16.292L15.292,24.78C14.917,25.155 14.408,25.366 13.878,25.366C13.348,25.366 12.839,25.155 12.464,24.78L8.222,20.538C7.858,20.161 7.656,19.656 7.661,19.131C7.665,18.607 7.876,18.105 8.246,17.734C8.617,17.364 9.119,17.153 9.643,17.149C10.168,17.144 10.673,17.346 11.05,17.71L13.878,20.538L13.878,20.536Z" fill="#0F172A"/>
</svg>
