<svg width="170" height="36" viewBox="0 0 170 36" fill="none" xmlns="http://www.w3.org/2000/svg" xmlns:xlink="http://www.w3.org/1999/xlink">
<path d="M54.28,9.907C52.595,9.911 50.949,10.415 49.55,11.354C48.151,12.294 47.062,13.627 46.421,15.185C45.78,16.743 45.615,18.457 45.948,20.109C46.28,21.761 47.095,23.277 48.29,24.466C49.484,25.654 51.004,26.462 52.657,26.787C54.311,27.112 56.024,26.939 57.579,26.291C59.134,25.642 60.462,24.547 61.395,23.144C62.328,21.741 62.824,20.092 62.82,18.407C62.836,17.283 62.626,16.167 62.202,15.126C61.778,14.084 61.149,13.139 60.352,12.346C59.556,11.553 58.607,10.928 57.564,10.509C56.521,10.09 55.404,9.885 54.28,9.907L54.28,9.907ZM54.28,23.567C53.247,23.639 52.216,23.399 51.322,22.878C50.427,22.356 49.71,21.578 49.264,20.644C48.818,19.71 48.663,18.663 48.819,17.639C48.976,16.616 49.437,15.663 50.142,14.905C50.847,14.147 51.764,13.619 52.773,13.389C53.783,13.159 54.838,13.238 55.802,13.615C56.766,13.993 57.594,14.652 58.179,15.506C58.763,16.361 59.077,17.372 59.08,18.407C59.112,19.063 59.013,19.719 58.787,20.336C58.562,20.953 58.216,21.518 57.768,21.999C57.321,22.48 56.782,22.867 56.183,23.136C55.583,23.405 54.937,23.552 54.28,23.567ZM35.64,9.907C33.955,9.911 32.309,10.415 30.91,11.354C29.511,12.294 28.422,13.627 27.781,15.185C27.14,16.743 26.975,18.457 27.308,20.109C27.64,21.761 28.455,23.277 29.65,24.466C30.844,25.654 32.364,26.462 34.017,26.787C35.671,27.112 37.384,26.939 38.939,26.291C40.494,25.642 41.822,24.547 42.755,23.144C43.688,21.741 44.184,20.092 44.18,18.407C44.196,17.283 43.986,16.167 43.562,15.126C43.138,14.084 42.509,13.139 41.712,12.346C40.916,11.553 39.967,10.928 38.924,10.509C37.881,10.09 36.764,9.885 35.64,9.907L35.64,9.907ZM35.64,23.567C34.607,23.639 33.576,23.399 32.682,22.878C31.787,22.356 31.07,21.578 30.624,20.644C30.178,19.71 30.023,18.663 30.179,17.639C30.336,16.616 30.797,15.663 31.502,14.905C32.207,14.147 33.124,13.619 34.133,13.389C35.143,13.159 36.198,13.238 37.162,13.615C38.126,13.993 38.954,14.652 39.539,15.506C40.123,16.361 40.437,17.372 40.44,18.407C40.472,19.063 40.373,19.719 40.147,20.336C39.922,20.953 39.576,21.518 39.128,21.999C38.681,22.48 38.142,22.867 37.543,23.136C36.943,23.405 36.297,23.552 35.64,23.567ZM13.48,12.527L13.48,16.127L22.12,16.127C21.984,17.823 21.28,19.423 20.12,20.667C19.253,21.55 18.211,22.241 17.06,22.696C15.909,23.151 14.676,23.359 13.44,23.307C10.894,23.307 8.452,22.296 6.652,20.495C4.851,18.695 3.84,16.253 3.84,13.707C3.84,11.161 4.851,8.719 6.652,6.919C8.452,5.118 10.894,4.107 13.44,4.107C15.881,4.071 18.238,4.998 20,6.687L22.54,4.147C21.348,2.968 19.933,2.039 18.377,1.414C16.821,0.789 15.156,0.481 13.48,0.507C11.702,0.438 9.928,0.728 8.265,1.361C6.602,1.994 5.084,2.956 3.801,4.189C2.519,5.423 1.499,6.902 0.802,8.539C0.105,10.177 -0.254,11.938 -0.254,13.717C-0.254,15.496 0.105,17.257 0.802,18.895C1.499,20.532 2.519,22.011 3.801,23.245C5.084,24.478 6.602,25.44 8.265,26.073C9.928,26.706 11.702,26.996 13.48,26.927C15.191,26.995 16.897,26.701 18.486,26.063C20.075,25.426 21.511,24.459 22.7,23.227C24.8,20.92 25.919,17.885 25.82,14.767C25.827,14.017 25.767,13.267 25.64,12.527L13.48,12.527ZM104.1,15.327C103.578,13.793 102.603,12.453 101.303,11.485C100.003,10.517 98.44,9.967 96.82,9.907C95.726,9.905 94.643,10.127 93.638,10.56C92.634,10.993 91.728,11.627 90.979,12.424C90.229,13.221 89.65,14.163 89.279,15.192C88.908,16.221 88.752,17.315 88.82,18.407C88.803,20.233 89.377,22.015 90.456,23.488C91.535,24.96 93.062,26.044 94.808,26.577C96.555,27.111 98.426,27.065 100.144,26.446C101.862,25.828 103.334,24.671 104.34,23.147L101.44,21.147C101.008,21.868 100.394,22.463 99.661,22.873C98.928,23.284 98.1,23.495 97.26,23.487C96.393,23.523 95.536,23.296 94.8,22.835C94.065,22.375 93.486,21.702 93.14,20.907L104.52,16.207L104.1,15.327ZM92.5,18.167C92.459,17.546 92.543,16.923 92.746,16.334C92.95,15.746 93.268,15.204 93.684,14.74C94.099,14.276 94.603,13.9 95.165,13.633C95.728,13.367 96.338,13.215 96.96,13.187C97.604,13.148 98.246,13.299 98.805,13.623C99.363,13.947 99.814,14.428 100.1,15.007L92.5,18.167ZM83.26,26.407L87,26.407L87,1.407L83.26,1.407L83.26,26.407ZM77.14,11.807L77,11.807C76.441,11.171 75.752,10.663 74.978,10.317C74.205,9.972 73.367,9.798 72.52,9.807C70.334,9.913 68.273,10.856 66.764,12.44C65.254,14.025 64.413,16.129 64.413,18.317C64.413,20.505 65.254,22.61 66.764,24.194C68.273,25.778 70.334,26.721 72.52,26.827C73.368,26.844 74.209,26.674 74.983,26.328C75.758,25.982 76.446,25.47 77,24.827L77.14,24.827L77.14,26.047C77.14,29.307 75.4,31.047 72.6,31.047C71.665,31.026 70.756,30.728 69.991,30.191C69.225,29.653 68.637,28.9 68.3,28.027L65.06,29.367C65.659,30.871 66.7,32.159 68.047,33.059C69.393,33.959 70.981,34.429 72.6,34.407C76.98,34.407 80.6,31.827 80.6,25.547L80.6,10.407L77.14,10.407L77.14,11.807ZM72.84,23.567C71.53,23.485 70.3,22.907 69.401,21.95C68.501,20.993 68.001,19.73 68.001,18.417C68.001,17.104 68.501,15.841 69.401,14.884C70.3,13.927 71.53,13.349 72.84,13.267C73.48,13.295 74.109,13.451 74.688,13.726C75.267,14.002 75.784,14.391 76.209,14.87C76.635,15.35 76.96,15.91 77.164,16.518C77.369,17.125 77.449,17.768 77.4,18.407C77.454,19.048 77.378,19.694 77.176,20.305C76.974,20.916 76.65,21.48 76.224,21.963C75.798,22.445 75.278,22.836 74.696,23.112C74.115,23.387 73.483,23.542 72.84,23.567L72.84,23.567ZM121.62,1.407L112.66,1.407L112.66,26.407L116.4,26.407L116.4,16.927L121.62,16.927C122.686,17.004 123.756,16.86 124.764,16.505C125.772,16.149 126.696,15.59 127.478,14.862C128.26,14.134 128.884,13.253 129.311,12.273C129.737,11.293 129.957,10.236 129.957,9.167C129.957,8.098 129.737,7.041 129.311,6.061C128.884,5.082 128.26,4.2 127.478,3.472C126.696,2.744 125.772,2.185 124.764,1.83C123.756,1.474 122.686,1.33 121.62,1.407L121.62,1.407ZM121.62,13.407L116.4,13.407L116.4,4.887L121.7,4.887C122.262,4.887 122.819,4.998 123.338,5.213C123.857,5.428 124.329,5.743 124.726,6.141C125.124,6.538 125.439,7.01 125.654,7.529C125.869,8.048 125.98,8.605 125.98,9.167C125.98,9.729 125.869,10.286 125.654,10.805C125.439,11.324 125.124,11.796 124.726,12.193C124.329,12.591 123.857,12.906 123.338,13.121C122.819,13.336 122.262,13.447 121.7,13.447L121.62,13.407ZM144.7,9.827C143.338,9.743 141.981,10.06 140.797,10.739C139.614,11.418 138.655,12.429 138.04,13.647L141.34,15.027C141.673,14.426 142.174,13.934 142.781,13.611C143.388,13.288 144.075,13.148 144.76,13.207C145.235,13.152 145.716,13.191 146.175,13.324C146.634,13.456 147.063,13.679 147.435,13.978C147.807,14.278 148.116,14.649 148.344,15.07C148.571,15.49 148.713,15.951 148.76,16.427L148.76,16.667C147.557,16.035 146.219,15.705 144.86,15.707C141.3,15.707 137.66,17.707 137.66,21.347C137.695,22.121 137.885,22.879 138.22,23.578C138.554,24.277 139.025,24.901 139.605,25.414C140.185,25.927 140.863,26.318 141.597,26.565C142.331,26.811 143.108,26.907 143.88,26.847C144.818,26.899 145.754,26.7 146.59,26.272C147.427,25.843 148.134,25.199 148.64,24.407L148.76,24.407L148.76,26.407L152.36,26.407L152.36,16.787C152.36,12.407 149.04,9.867 144.78,9.867L144.7,9.827ZM144.24,23.527C143.02,23.527 141.32,22.907 141.32,21.407C141.32,19.407 143.44,18.727 145.32,18.727C146.508,18.698 147.682,18.988 148.72,19.567C148.594,20.653 148.079,21.657 147.27,22.392C146.461,23.128 145.413,23.545 144.32,23.567L144.24,23.527ZM165.48,10.407L161.2,21.247L161.08,21.247L156.64,10.407L152.64,10.407L159.3,25.567L155.5,33.987L159.4,33.987L169.64,10.407L165.48,10.407ZM131.88,26.407L135.6,26.407L135.6,1.407L131.88,1.407L131.88,26.407Z" fill="#FFFFFF"/>
</svg>
