<svg width="130" height="146" viewBox="0 0 130 146" fill="none" xmlns="http://www.w3.org/2000/svg" xmlns:xlink="http://www.w3.org/1999/xlink">
<path d="M110.56,77.184C111.122,76.302 111.5,75.317 111.674,74.286C111.848,73.256 111.812,72.201 111.571,71.184C111.329,70.167 110.886,69.209 110.267,68.366C109.648,67.524 108.866,66.815 107.968,66.28L28.592,18.024C27.301,17.243 25.821,16.83 24.312,16.832C19.832,16.832 16.208,20.376 16.208,24.752L16.208,121.24C16.208,122.72 16.632,124.168 17.432,125.424C19.8,129.136 24.792,130.272 28.592,127.96L107.968,79.712C109.016,79.072 109.912,78.2 110.568,77.176L110.56,77.184ZM116.528,93.16L37.16,141.408C25.76,148.344 10.76,144.928 3.672,133.8C1.276,130.049 0.002,125.691 0,121.24L0,24.76C0,11.632 10.88,1 24.32,1C28.856,1 33.304,2.24 37.16,4.584L116.528,52.84C127.928,59.768 131.424,74.408 124.328,85.544C122.36,88.632 119.688,91.24 116.528,93.16L116.528,93.16Z" fill="#FFFFFF"/>
</svg>
