<svg width="62" height="66" viewBox="0 0 62 66" fill="none" xmlns="http://www.w3.org/2000/svg" xmlns:xlink="http://www.w3.org/1999/xlink">
<path d="M0,33.104L0.003,32.783L0.009,32.462L0.019,32.141L0.032,31.821L0.048,31.5L0.068,31.179L0.091,30.858L0.117,30.538L0.146,30.217L0.179,29.897L0.215,29.577L0.254,29.257L0.297,28.937L0.343,28.618L0.392,28.299L0.445,27.98L0.5,27.662L0.559,27.344L0.622,27.027L0.687,26.71L0.756,26.393L0.828,26.077L0.904,25.762L0.983,25.447L1.065,25.133L1.15,24.82L1.238,24.507L1.33,24.196L1.425,23.884L1.523,23.574L1.624,23.265L1.729,22.956L1.837,22.648L1.948,22.342L2.062,22.036L2.179,21.731L2.3,21.428L2.424,21.125L2.55,20.823L2.68,20.523L2.813,20.224L2.95,19.925L3.089,19.629L3.231,19.333L3.377,19.039L3.525,18.746L3.677,18.454L3.832,18.164L3.99,17.875L4.15,17.587L4.314,17.301L4.481,17.017L4.651,16.734L4.823,16.452L4.999,16.172L5.178,15.894L5.359,15.618L5.544,15.343L5.731,15.069L5.921,14.798L6.114,14.528L6.31,14.26L6.509,13.994L6.71,13.73L6.914,13.468L7.121,13.207L7.331,12.948L7.544,12.692L7.759,12.437L7.977,12.185L8.198,11.934L8.421,11.685L8.647,11.439L8.875,11.195L9.106,10.953L9.34,10.713L9.576,10.475L9.815,10.239L10.056,10.006L10.3,9.775L10.546,9.546L10.795,9.32L11.046,9.096L11.3,8.874L11.555,8.655L11.813,8.438L12.074,8.224L12.337,8.012L12.602,7.802L12.869,7.595L13.139,7.391L13.41,7.189L13.684,6.99L13.96,6.794L14.238,6.6L14.519,6.408L14.801,6.22L15.085,6.034L15.372,5.85L15.66,5.67L15.95,5.492L16.243,5.317L16.537,5.145L16.833,4.976L17.131,4.809L17.43,4.646L17.732,4.485L18.035,4.327L18.34,4.172L18.647,4.02L18.955,3.871L19.265,3.725L19.577,3.582L19.89,3.442L20.205,3.305L20.521,3.17L20.839,3.039L21.158,2.912L21.479,2.787L21.801,2.665L22.124,2.546L22.449,2.431L22.775,2.318L23.102,2.209L23.431,2.103L23.76,2L24.092,1.9L24.424,1.804L24.757,1.711L25.091,1.621L25.427,1.534L25.763,1.45L26.1,1.37L26.439,1.293L26.778,1.219L27.118,1.149L27.459,1.082L27.8,1.018L28.143,0.958L28.486,0.9L28.83,0.847L29.175,0.796L29.52,0.749L29.866,0.705L30.213,0.665L30.56,0.628L30.907,0.595L31.255,0.564L31.604,0.538L31.953,0.514L33.828,0.407L33.936,9.445L33.997,9.444L34.256,9.444L34.515,9.446L34.774,9.451L35.033,9.458L35.292,9.468L35.552,9.48L35.811,9.495L36.071,9.513L36.33,9.533L36.589,9.555L36.848,9.581L37.107,9.608L37.366,9.639L37.625,9.671L37.883,9.707L38.141,9.745L38.399,9.785L38.657,9.828L38.914,9.874L39.171,9.922L39.428,9.973L39.684,10.026L39.94,10.082L40.196,10.14L40.45,10.201L40.705,10.264L40.959,10.33L41.212,10.399L41.465,10.47L41.717,10.543L41.969,10.619L42.22,10.698L42.47,10.779L42.72,10.862L42.968,10.948L43.216,11.037L43.464,11.128L43.71,11.221L43.956,11.317L44.2,11.415L44.444,11.516L44.687,11.619L44.929,11.725L45.17,11.833L45.41,11.944L45.649,12.057L45.888,12.172L46.124,12.29L46.36,12.41L46.595,12.533L46.829,12.657L47.061,12.785L47.292,12.914L47.522,13.046L47.751,13.181L47.979,13.317L48.205,13.456L48.43,13.597L48.653,13.741L48.876,13.886L49.096,14.034L49.316,14.185L49.534,14.337L49.751,14.492L49.966,14.648L50.179,14.807L50.391,14.969L50.602,15.132L50.811,15.298L51.018,15.465L51.224,15.635L51.428,15.807L51.63,15.981L51.831,16.157L52.03,16.335L52.227,16.515L52.422,16.697L52.616,16.881L52.808,17.068L52.998,17.256L53.187,17.446L53.373,17.638L53.558,17.832L53.74,18.028L53.921,18.225L54.1,18.425L54.276,18.627L54.451,18.83L54.624,19.035L54.795,19.242L54.964,19.451L55.131,19.661L55.295,19.873L55.458,20.087L55.618,20.303L55.776,20.52L55.933,20.739L56.087,20.96L56.238,21.182L56.388,21.406L56.535,21.631L56.68,21.858L56.823,22.087L56.964,22.317L57.102,22.548L57.238,22.781L57.372,23.016L57.503,23.251L57.632,23.489L57.759,23.727L57.883,23.967L58.004,24.208L58.124,24.451L58.241,24.695L58.355,24.94L58.467,25.187L58.577,25.434L58.684,25.683L58.788,25.933L58.891,26.184L58.99,26.436L59.087,26.69L59.181,26.944L59.273,27.2L59.363,27.456L59.449,27.714L59.533,27.972L59.615,28.232L59.694,28.492L59.77,28.753L59.844,29.015L59.914,29.278L59.983,29.542L60.048,29.807L60.111,30.072L60.171,30.338L60.229,30.605L60.284,30.872L60.336,31.141L60.385,31.41L60.432,31.679L60.476,31.949L60.517,32.22L60.555,32.491L60.591,32.762L60.623,33.034L60.653,33.307L60.681,33.58L60.705,33.853L60.727,34.127L60.746,34.401L60.762,34.675L60.775,34.95L60.786,35.225L60.793,35.5L60.798,35.775L60.8,36.051L60.799,36.327L60.796,36.602L60.789,36.878L60.78,37.154L60.768,37.43L60.753,37.706L60.735,37.982L60.714,38.258L60.691,38.534L60.664,38.81L60.635,39.086L60.603,39.361L60.568,39.636L60.53,39.911L60.49,40.186L60.446,40.461L60.4,40.735L60.351,41.009L60.299,41.283L60.244,41.556L60.187,41.829L60.126,42.101L60.063,42.373L59.997,42.644L59.928,42.915L59.857,43.185L59.782,43.455L59.705,43.724L59.625,43.993L59.542,44.261L59.456,44.528L59.368,44.794L59.277,45.06L59.183,45.325L59.086,45.589L58.987,45.852L58.884,46.115L58.779,46.376L58.672,46.637L58.561,46.897L58.448,47.156L58.332,47.413L58.214,47.67L58.092,47.926L57.969,48.18L57.842,48.434L57.713,48.686L57.581,48.937L57.446,49.187L57.309,49.436L57.169,49.684L57.027,49.93L56.882,50.175L56.735,50.419L56.584,50.662L56.432,50.903L56.276,51.142L56.119,51.38L55.959,51.617L55.796,51.853L55.631,52.087L55.463,52.319L55.293,52.55L55.12,52.779L54.945,53.007L54.768,53.233L54.588,53.457L54.405,53.68L54.221,53.901L54.034,54.12L53.844,54.338L53.653,54.554L53.459,54.768L53.263,54.98L53.064,55.19L52.864,55.399L52.661,55.606L52.455,55.81L52.248,56.013L52.039,56.214L51.827,56.413L51.613,56.61L51.397,56.805L51.179,56.998L50.959,57.189L50.737,57.378L50.513,57.565L50.286,57.749L50.058,57.932L49.828,58.112L49.596,58.29L49.362,58.466L49.126,58.64L48.888,58.811L48.648,58.98L48.407,59.147L48.163,59.312L47.918,59.474L47.671,59.634L47.422,59.792L47.172,59.947L46.92,60.1L46.666,60.251L46.41,60.399L46.153,60.544L45.895,60.687L45.634,60.828L45.372,60.966L45.109,61.102L44.844,61.235L44.578,61.366L44.31,61.494L44.041,61.619L43.77,61.742L43.498,61.863L43.224,61.98L42.95,62.095L42.674,62.208L42.396,62.317L42.118,62.424L41.838,62.529L41.557,62.631L41.275,62.73L40.992,62.826L40.707,62.919L40.422,63.01L40.135,63.098L39.848,63.183L39.559,63.266L39.27,63.345L38.979,63.422L38.688,63.496L38.396,63.568L38.102,63.636L37.808,63.701L37.514,63.764L37.218,63.824L36.922,63.881L36.625,63.935L36.327,63.986L36.029,64.034L35.73,64.08L35.43,64.122L35.13,64.162L34.83,64.198L34.528,64.232L34.227,64.263L33.925,64.291L33.622,64.315L33.319,64.337L33.016,64.356L32.712,64.372L32.409,64.385L32.105,64.395L31.8,64.402L31.496,64.406L31.191,64.407L30.886,64.405L30.581,64.4L30.276,64.392L29.971,64.381L29.666,64.368L29.361,64.351L29.056,64.331L28.751,64.308L28.446,64.282L28.141,64.253L27.836,64.221L27.532,64.186L27.228,64.148L26.924,64.107L26.62,64.063L26.317,64.016L26.014,63.967L25.712,63.914L25.409,63.858L25.108,63.799L24.806,63.737L24.506,63.672L24.205,63.604L23.906,63.534L23.607,63.46L23.308,63.383L23.011,63.303L22.714,63.221L22.417,63.135L22.122,63.047L21.827,62.955L21.533,62.861L21.24,62.764L20.948,62.663L20.656,62.56L20.366,62.454L20.076,62.345L19.788,62.233L19.501,62.119L19.214,62.001L18.929,61.88L18.645,61.757L18.362,61.631L18.08,61.502L17.799,61.37L17.52,61.236L17.242,61.098L16.965,60.958L16.689,60.815L16.415,60.67L16.142,60.521L15.871,60.37L15.601,60.216L15.332,60.06L15.065,59.9L14.8,59.738L14.536,59.573L14.274,59.406L14.013,59.236L13.754,59.064L13.496,58.888L13.241,58.711L12.987,58.53L12.734,58.347L12.484,58.162L12.235,57.974L11.988,57.783L11.743,57.59L11.5,57.394L11.259,57.196L11.019,56.996L10.782,56.793L10.546,56.588L10.313,56.38L10.082,56.17L9.852,55.958L9.625,55.743L9.4,55.526L9.177,55.306L8.956,55.085L8.738,54.861L8.521,54.635L8.307,54.406L8.095,54.176L7.885,53.943L7.678,53.708L7.473,53.471L7.27,53.232L7.07,52.991L6.872,52.747L6.676,52.502L6.483,52.255L6.293,52.005L6.105,51.754L5.919,51.501L5.736,51.246L5.555,50.988L5.377,50.73L5.202,50.469L5.029,50.206L4.859,49.942L4.691,49.676L4.526,49.408L4.364,49.138L4.204,48.866L4.047,48.593L3.893,48.319L3.742,48.042L3.593,47.764L3.448,47.485L3.305,47.204L3.165,46.921L3.027,46.637L2.893,46.352L2.761,46.065L2.632,45.776L2.507,45.487L2.384,45.196L2.264,44.903L2.147,44.609L2.033,44.314L1.922,44.018L1.814,43.721L1.709,43.422L1.607,43.123L1.508,42.822L1.412,42.52L1.319,42.217L1.229,41.913L1.142,41.608L1.059,41.301L0.978,40.995L0.901,40.687L0.826,40.378L0.755,40.068L0.687,39.758L0.622,39.447L0.561,39.135L0.502,38.822L0.447,38.508L0.395,38.194L0.346,37.88L0.3,37.564L0.258,37.248L0.218,36.932L0.182,36.615L0.149,36.297L0.12,35.98L0.093,35.661L0.07,35.343L0.05,35.024L0.034,34.704L0.02,34.384L0.01,34.065L0.004,33.744L0,33.424L0,33.104ZM31.005,9.634L30.932,3.474L30.863,3.481L30.545,3.515L30.227,3.552L29.91,3.592L29.594,3.635L29.279,3.681L28.964,3.73L28.649,3.782L28.336,3.838L28.023,3.896L27.71,3.958L27.4,4.022L27.089,4.09L26.779,4.16L26.47,4.234L26.163,4.31L25.856,4.389L25.55,4.472L25.244,4.557L24.941,4.645L24.638,4.737L24.336,4.831L24.035,4.928L23.736,5.028L23.437,5.131L23.14,5.236L22.844,5.345L22.55,5.456L22.256,5.571L21.965,5.688L21.674,5.808L21.384,5.93L21.096,6.056L20.81,6.184L20.525,6.315L20.242,6.448L19.959,6.585L19.679,6.724L19.4,6.865L19.123,7.01L18.847,7.157L18.573,7.306L18.301,7.459L18.03,7.614L17.761,7.771L17.494,7.931L17.228,8.093L16.965,8.258L16.703,8.426L16.443,8.596L16.185,8.768L15.929,8.943L15.675,9.12L15.422,9.3L15.172,9.482L14.924,9.666L14.677,9.853L14.433,10.042L14.191,10.234L13.951,10.427L13.713,10.623L13.477,10.821L13.243,11.022L13.012,11.224L12.782,11.429L12.555,11.636L12.33,11.845L12.108,12.055L11.887,12.269L11.669,12.484L11.454,12.701L11.24,12.92L11.029,13.141L10.821,13.364L10.614,13.589L10.41,13.816L10.209,14.045L10.01,14.276L9.813,14.508L9.619,14.742L9.428,14.978L9.239,15.216L9.052,15.456L8.868,15.697L8.687,15.94L8.508,16.185L8.332,16.431L8.158,16.679L7.987,16.928L7.819,17.179L7.653,17.431L7.49,17.685L7.33,17.94L7.173,18.197L7.018,18.455L6.866,18.715L6.716,18.976L6.57,19.238L6.426,19.502L6.284,19.767L6.146,20.033L6.011,20.3L5.878,20.568L5.748,20.838L5.621,21.109L5.497,21.381L5.375,21.653L5.257,21.928L5.141,22.203L5.028,22.478L4.918,22.755L4.811,23.033L4.707,23.312L4.606,23.592L4.508,23.872L4.413,24.153L4.32,24.436L4.231,24.718L4.144,25.002L4.061,25.286L3.98,25.571L3.902,25.857L3.828,26.143L3.756,26.43L3.687,26.717L3.621,27.005L3.559,27.293L3.499,27.582L3.442,27.871L3.388,28.16L3.337,28.45L3.29,28.741L3.245,29.031L3.203,29.322L3.164,29.613L3.128,29.905L3.095,30.196L3.066,30.488L3.039,30.78L3.015,31.072L2.994,31.364L2.976,31.656L2.962,31.948L2.95,32.24L2.941,32.532L2.935,32.824L2.932,33.116L2.933,33.408L2.936,33.7L2.942,33.991L2.951,34.282L2.963,34.573L2.978,34.864L2.996,35.154L3.017,35.444L3.041,35.734L3.068,36.023L3.098,36.312L3.131,36.6L3.167,36.888L3.206,37.176L3.247,37.463L3.292,37.749L3.339,38.035L3.389,38.32L3.443,38.604L3.499,38.888L3.558,39.171L3.62,39.453L3.684,39.735L3.752,40.016L3.822,40.296L3.896,40.575L3.972,40.853L4.05,41.13L4.132,41.407L4.217,41.682L4.304,41.957L4.394,42.23L4.487,42.503L4.582,42.774L4.68,43.045L4.781,43.314L4.885,43.582L4.991,43.849L5.1,44.115L5.212,44.379L5.326,44.642L5.443,44.904L5.563,45.165L5.685,45.424L5.809,45.683L5.937,45.939L6.067,46.195L6.199,46.448L6.334,46.701L6.471,46.952L6.611,47.201L6.754,47.449L6.899,47.696L7.046,47.941L7.196,48.184L7.348,48.426L7.503,48.666L7.66,48.904L7.819,49.141L7.98,49.376L8.144,49.61L8.311,49.841L8.479,50.071L8.65,50.3L8.823,50.526L8.998,50.75L9.176,50.973L9.355,51.194L9.537,51.413L9.721,51.63L9.907,51.845L10.095,52.058L10.286,52.269L10.478,52.478L10.672,52.685L10.869,52.89L11.067,53.094L11.267,53.295L11.469,53.494L11.674,53.691L11.88,53.885L12.088,54.078L12.298,54.269L12.509,54.457L12.723,54.643L12.938,54.827L13.155,55.009L13.374,55.188L13.594,55.366L13.816,55.541L14.04,55.713L14.266,55.884L14.493,56.052L14.721,56.218L14.952,56.381L15.183,56.543L15.417,56.701L15.652,56.858L15.888,57.012L16.126,57.164L16.365,57.313L16.605,57.46L16.847,57.604L17.091,57.746L17.335,57.885L17.581,58.022L17.828,58.156L18.076,58.288L18.326,58.418L18.577,58.545L18.829,58.669L19.082,58.791L19.336,58.911L19.591,59.027L19.847,59.141L20.105,59.253L20.363,59.362L20.622,59.469L20.882,59.572L21.144,59.674L21.406,59.772L21.668,59.868L21.932,59.962L22.197,60.052L22.462,60.14L22.728,60.226L22.995,60.309L23.262,60.389L23.53,60.466L23.799,60.541L24.068,60.613L24.338,60.683L24.609,60.749L24.88,60.813L25.152,60.875L25.424,60.933L25.696,60.989L25.969,61.043L26.242,61.093L26.516,61.141L26.79,61.186L27.064,61.228L27.338,61.268L27.613,61.305L27.888,61.34L28.163,61.371L28.439,61.4L28.714,61.426L28.99,61.449L29.266,61.47L29.541,61.488L29.817,61.504L30.093,61.516L30.368,61.526L30.644,61.533L30.92,61.537L31.195,61.539L31.471,61.538L31.746,61.535L32.021,61.528L32.295,61.519L32.57,61.508L32.844,61.493L33.118,61.476L33.392,61.456L33.665,61.434L33.938,61.409L34.21,61.381L34.482,61.351L34.753,61.318L35.024,61.282L35.295,61.244L35.565,61.203L35.834,61.159L36.103,61.113L36.371,61.064L36.638,61.013L36.905,60.959L37.171,60.902L37.436,60.843L37.701,60.781L37.965,60.717L38.228,60.65L38.49,60.581L38.751,60.509L39.011,60.435L39.271,60.358L39.529,60.278L39.787,60.196L40.043,60.112L40.299,60.025L40.553,59.936L40.807,59.844L41.059,59.75L41.31,59.653L41.56,59.555L41.809,59.453L42.057,59.349L42.303,59.243L42.548,59.135L42.792,59.024L43.035,58.911L43.277,58.796L43.517,58.678L43.756,58.558L43.993,58.436L44.229,58.311L44.464,58.184L44.696,58.055L44.928,57.924L45.158,57.791L45.387,57.655L45.614,57.517L45.84,57.377L46.064,57.236L46.286,57.091L46.507,56.945L46.727,56.797L46.944,56.647L47.16,56.494L47.374,56.34L47.586,56.183L47.797,56.025L48.006,55.865L48.214,55.702L48.419,55.538L48.622,55.372L48.824,55.204L49.024,55.034L49.222,54.862L49.419,54.688L49.613,54.513L49.805,54.336L49.996,54.156L50.184,53.976L50.371,53.793L50.556,53.609L50.738,53.423L50.919,53.235L51.097,53.046L51.274,52.855L51.448,52.662L51.62,52.468L51.791,52.273L51.959,52.076L52.125,51.877L52.289,51.676L52.45,51.475L52.61,51.271L52.767,51.067L52.923,50.861L53.076,50.653L53.226,50.444L53.375,50.234L53.521,50.023L53.665,49.81L53.807,49.596L53.946,49.38L54.084,49.164L54.219,48.946L54.351,48.727L54.481,48.506L54.609,48.285L54.735,48.063L54.858,47.839L54.979,47.615L55.097,47.389L55.213,47.162L55.327,46.935L55.438,46.706L55.547,46.476L55.654,46.246L55.758,46.015L55.859,45.782L55.958,45.549L56.055,45.315L56.149,45.08L56.241,44.845L56.33,44.608L56.417,44.372L56.501,44.134L56.583,43.895L56.663,43.656L56.739,43.417L56.814,43.176L56.886,42.935L56.955,42.694L57.022,42.452L57.086,42.209L57.148,41.967L57.207,41.723L57.264,41.479L57.318,41.235L57.37,40.99L57.419,40.745L57.465,40.5L57.509,40.255L57.551,40.008L57.589,39.762L57.626,39.516L57.66,39.269L57.691,39.023L57.72,38.775L57.746,38.529L57.769,38.281L57.79,38.035L57.809,37.787L57.825,37.54L57.838,37.293L57.849,37.045L57.858,36.798L57.864,36.551L57.867,36.304L57.868,36.057L57.866,35.81L57.861,35.564L57.855,35.317L57.845,35.071L57.833,34.825L57.819,34.579L57.802,34.334L57.783,34.089L57.761,33.844L57.736,33.6L57.709,33.356L57.68,33.113L57.648,32.869L57.614,32.627L57.577,32.384L57.538,32.143L57.496,31.902L57.452,31.662L57.405,31.422L57.356,31.183L57.305,30.943L57.251,30.706L57.195,30.468L57.136,30.232L57.075,29.996L57.012,29.761L56.946,29.526L56.878,29.292L56.807,29.06L56.735,28.828L56.659,28.597L56.582,28.367L56.502,28.137L56.42,27.909L56.336,27.682L56.249,27.456L56.16,27.23L56.069,27.005L55.975,26.782L55.88,26.56L55.782,26.338L55.682,26.119L55.579,25.899L55.475,25.682L55.368,25.465L55.26,25.249L55.149,25.035L55.036,24.822L54.92,24.61L54.804,24.4L54.684,24.19L54.563,23.982L54.439,23.776L54.314,23.571L54.186,23.366L54.057,23.164L53.925,22.963L53.792,22.763L53.656,22.565L53.519,22.368L53.38,22.172L53.238,21.979L53.095,21.786L52.95,21.595L52.803,21.406L52.655,21.218L52.504,21.032L52.352,20.848L52.198,20.665L52.042,20.484L51.884,20.304L51.725,20.126L51.564,19.95L51.4,19.775L51.236,19.602L51.07,19.431L50.902,19.262L50.733,19.094L50.562,18.928L50.389,18.764L50.215,18.602L50.039,18.441L49.862,18.282L49.683,18.126L49.503,17.971L49.321,17.817L49.138,17.666L48.953,17.517L48.767,17.369L48.58,17.224L48.391,17.081L48.2,16.939L48.009,16.799L47.816,16.662L47.622,16.526L47.427,16.392L47.23,16.26L47.033,16.131L46.834,16.003L46.634,15.877L46.432,15.754L46.23,15.632L46.026,15.513L45.822,15.396L45.616,15.28L45.409,15.167L45.201,15.056L44.992,14.947L44.783,14.84L44.572,14.735L44.36,14.633L44.148,14.532L43.934,14.434L43.72,14.338L43.505,14.244L43.282,14.149L43.072,14.063L42.854,13.975L42.637,13.89L42.417,13.807L42.198,13.726L41.977,13.647L41.756,13.571L41.534,13.497L41.312,13.425L41.089,13.355L40.866,13.287L40.642,13.222L40.417,13.159L40.192,13.098L39.967,13.04L39.741,12.984L39.514,12.929L39.288,12.878L39.06,12.828L38.833,12.781L38.605,12.736L38.377,12.693L38.149,12.653L37.92,12.615L37.691,12.579L37.462,12.545L37.233,12.514L37.003,12.484L36.774,12.458L36.544,12.433L36.314,12.411L36.084,12.391L35.854,12.373L35.624,12.357L35.394,12.344L35.165,12.333L34.934,12.325L34.705,12.318L34.475,12.314L34.245,12.312L34.016,12.312L33.969,12.313L34.042,18.428L34.172,18.428L34.34,18.429L34.508,18.431L34.676,18.436L34.844,18.441L35.012,18.449L35.18,18.458L35.349,18.469L35.517,18.482L35.685,18.496L35.854,18.512L36.022,18.53L36.19,18.549L36.358,18.57L36.526,18.593L36.694,18.617L36.862,18.643L37.03,18.671L37.198,18.7L37.365,18.731L37.532,18.764L37.699,18.798L37.866,18.834L38.033,18.872L38.199,18.912L38.365,18.953L38.531,18.996L38.696,19.04L38.861,19.086L39.026,19.134L39.19,19.183L39.354,19.234L39.518,19.287L39.681,19.342L39.844,19.398L40.006,19.456L40.168,19.515L40.329,19.576L40.49,19.639L40.651,19.703L40.811,19.769L40.97,19.837L41.128,19.906L41.287,19.977L41.444,20.049L41.601,20.123L41.757,20.199L41.913,20.276L42.068,20.355L42.222,20.435L42.375,20.517L42.528,20.601L42.68,20.686L42.831,20.773L42.982,20.861L43.132,20.951L43.28,21.042L43.428,21.135L43.576,21.23L43.722,21.326L43.867,21.423L44.012,21.522L44.156,21.623L44.298,21.725L44.44,21.828L44.581,21.933L44.721,22.04L44.86,22.148L44.998,22.257L45.134,22.368L45.27,22.48L45.405,22.594L45.539,22.709L45.671,22.826L45.803,22.944L45.933,23.063L46.062,23.184L46.191,23.306L46.317,23.429L46.443,23.554L46.568,23.68L46.691,23.807L46.813,23.936L46.934,24.066L47.054,24.197L47.172,24.33L47.289,24.464L47.405,24.599L47.52,24.735L47.633,24.873L47.745,25.012L47.856,25.152L47.965,25.293L48.072,25.436L48.179,25.579L48.284,25.724L48.388,25.87L48.49,26.017L48.59,26.165L48.69,26.314L48.787,26.464L48.884,26.616L48.979,26.768L49.072,26.922L49.164,27.076L49.254,27.232L49.343,27.389L49.43,27.546L49.516,27.705L49.6,27.864L49.682,28.025L49.763,28.186L49.843,28.349L49.92,28.512L49.996,28.676L50.071,28.841L50.144,29.007L50.215,29.173L50.284,29.341L50.352,29.509L50.418,29.678L50.482,29.848L50.545,30.019L50.606,30.19L50.665,30.362L50.723,30.535L50.779,30.709L50.833,30.883L50.885,31.058L50.936,31.233L50.984,31.409L51.031,31.586L51.077,31.764L51.12,31.941L51.162,32.12L51.201,32.299L51.239,32.478L51.276,32.658L51.31,32.839L51.342,33.02L51.373,33.201L51.402,33.383L51.429,33.566L51.454,33.748L51.477,33.931L51.498,34.115L51.518,34.299L51.535,34.483L51.551,34.667L51.565,34.852L51.577,35.037L51.587,35.222L51.595,35.407L51.601,35.593L51.606,35.779L51.608,35.965L51.608,36.151L51.607,36.337L51.604,36.524L51.598,36.71L51.591,36.897L51.582,37.084L51.571,37.27L51.558,37.457L51.543,37.644L51.526,37.831L51.508,38.017L51.487,38.204L51.464,38.391L51.44,38.577L51.413,38.763L51.384,38.95L51.354,39.136L51.322,39.322L51.287,39.507L51.251,39.693L51.213,39.878L51.173,40.063L51.131,40.248L51.087,40.433L51.041,40.617L50.993,40.801L50.943,40.984L50.892,41.168L50.838,41.35L50.783,41.533L50.725,41.715L50.666,41.896L50.604,42.077L50.541,42.258L50.476,42.438L50.409,42.618L50.34,42.797L50.269,42.975L50.197,43.153L50.122,43.331L50.046,43.507L49.968,43.683L49.887,43.859L49.805,44.034L49.721,44.208L49.636,44.381L49.548,44.554L49.459,44.726L49.367,44.897L49.274,45.067L49.179,45.237L49.083,45.406L48.984,45.573L48.884,45.741L48.782,45.907L48.678,46.072L48.572,46.236L48.465,46.4L48.356,46.562L48.245,46.724L48.132,46.885L48.018,47.044L47.901,47.203L47.784,47.36L47.664,47.517L47.543,47.672L47.42,47.826L47.295,47.98L47.169,48.132L47.041,48.283L46.912,48.432L46.78,48.581L46.648,48.728L46.513,48.875L46.377,49.02L46.24,49.164L46.101,49.306L45.96,49.447L45.818,49.587L45.674,49.726L45.528,49.863L45.382,49.999L45.233,50.134L45.084,50.267L44.932,50.399L44.78,50.529L44.625,50.658L44.47,50.786L44.313,50.912L44.154,51.036L43.994,51.16L43.833,51.281L43.671,51.402L43.507,51.52L43.342,51.638L43.175,51.753L43.007,51.867L42.838,51.98L42.668,52.091L42.496,52.2L42.323,52.308L42.149,52.413L41.974,52.518L41.797,52.621L41.619,52.722L41.44,52.821L41.26,52.919L41.079,53.015L40.897,53.109L40.714,53.201L40.529,53.292L40.344,53.381L40.157,53.468L39.97,53.554L39.781,53.638L39.592,53.72L39.401,53.8L39.21,53.878L39.018,53.954L38.824,54.029L38.63,54.102L38.435,54.172L38.24,54.241L38.043,54.308L37.845,54.374L37.647,54.437L37.448,54.498L37.248,54.558L37.047,54.615L36.846,54.671L36.644,54.725L36.441,54.776L36.238,54.826L36.034,54.874L35.829,54.92L35.624,54.964L35.418,55.005L35.212,55.045L35.005,55.083L34.797,55.119L34.589,55.153L34.381,55.184L34.172,55.214L33.963,55.242L33.753,55.268L33.543,55.291L33.332,55.313L33.121,55.332L32.91,55.35L32.699,55.365L32.487,55.378L32.275,55.389L32.062,55.399L31.85,55.406L31.637,55.411L31.424,55.413L31.211,55.414L30.997,55.413L30.784,55.409L30.57,55.404L30.357,55.396L30.143,55.387L29.929,55.375L29.716,55.361L29.502,55.345L29.288,55.327L29.075,55.306L28.861,55.284L28.648,55.259L28.435,55.233L28.221,55.204L28.008,55.173L27.796,55.14L27.583,55.105L27.37,55.068L27.158,55.029L26.946,54.987L26.735,54.944L26.524,54.898L26.313,54.85L26.102,54.8L25.892,54.748L25.682,54.694L25.473,54.638L25.264,54.58L25.055,54.52L24.847,54.457L24.64,54.393L24.433,54.326L24.227,54.257L24.021,54.187L23.816,54.114L23.611,54.039L23.407,53.962L23.204,53.883L23.001,53.802L22.8,53.719L22.598,53.634L22.398,53.547L22.199,53.457L22,53.366L21.802,53.273L21.605,53.178L21.408,53.08L21.213,52.981L21.018,52.88L20.825,52.777L20.632,52.672L20.44,52.565L20.25,52.456L20.06,52.345L19.871,52.232L19.684,52.117L19.497,52L19.312,51.882L19.127,51.761L18.944,51.639L18.762,51.514L18.581,51.388L18.401,51.26L18.223,51.13L18.046,50.999L17.869,50.865L17.695,50.73L17.521,50.592L17.349,50.453L17.178,50.313L17.009,50.17L16.84,50.026L16.674,49.88L16.508,49.732L16.344,49.583L16.182,49.432L16.021,49.279L15.861,49.124L15.703,48.968L15.547,48.811L15.392,48.651L15.238,48.49L15.086,48.327L14.936,48.163L14.787,47.997L14.64,47.83L14.494,47.661L14.35,47.491L14.208,47.319L14.068,47.145L13.929,46.97L13.792,46.794L13.656,46.616L13.523,46.436L13.391,46.256L13.261,46.073L13.132,45.89L13.006,45.705L12.881,45.519L12.758,45.331L12.638,45.142L12.518,44.952L12.401,44.76L12.286,44.568L12.173,44.374L12.061,44.178L11.952,43.982L11.844,43.784L11.738,43.586L11.635,43.386L11.533,43.184L11.434,42.982L11.336,42.779L11.241,42.575L11.147,42.369L11.056,42.163L10.966,41.955L10.879,41.746L10.794,41.537L10.711,41.327L10.63,41.115L10.551,40.903L10.474,40.69L10.399,40.475L10.327,40.26L10.257,40.045L10.189,39.828L10.123,39.611L10.059,39.392L9.998,39.174L9.938,38.954L9.881,38.733L9.826,38.512L9.774,38.291L9.724,38.068L9.675,37.845L9.63,37.622L9.586,37.398L9.545,37.173L9.506,36.948L9.469,36.722L9.435,36.496L9.403,36.269L9.373,36.042L9.346,35.814L9.32,35.586L9.298,35.358L9.277,35.129L9.259,34.9L9.243,34.67L9.23,34.441L9.219,34.211L9.21,33.981L9.204,33.75L9.2,33.52L9.198,33.289L9.199,33.058L9.202,32.827L9.207,32.596L9.215,32.365L9.226,32.133L9.238,31.902L9.253,31.671L9.271,31.44L9.29,31.208L9.313,30.977L9.337,30.746L9.364,30.515L9.393,30.284L9.425,30.053L9.459,29.823L9.496,29.593L9.535,29.363L9.576,29.133L9.62,28.903L9.666,28.674L9.714,28.445L9.765,28.216L9.818,27.988L9.874,27.76L9.932,27.533L9.992,27.306L10.054,27.08L10.12,26.854L10.187,26.628L10.257,26.403L10.329,26.179L10.403,25.955L10.48,25.732L10.559,25.509L10.64,25.288L10.724,25.066L10.81,24.846L10.899,24.626L10.989,24.407L11.082,24.189L11.178,23.971L11.275,23.754L11.375,23.539L11.477,23.324L11.582,23.109L11.688,22.896L11.797,22.684L11.908,22.473L12.022,22.262L12.137,22.053L12.255,21.845L12.375,21.637L12.498,21.431L12.622,21.226L12.749,21.022L12.877,20.819L13.008,20.618L13.141,20.417L13.276,20.218L13.414,20.02L13.553,19.823L13.695,19.627L13.838,19.433L13.984,19.24L14.132,19.048L14.281,18.858L14.433,18.669L14.587,18.481L14.743,18.295L14.901,18.11L15.061,17.927L15.222,17.745L15.386,17.565L15.552,17.386L15.72,17.209L15.889,17.033L16.06,16.859L16.234,16.686L16.409,16.515L16.586,16.346L16.765,16.178L16.946,16.012L17.128,15.847L17.312,15.685L17.498,15.524L17.686,15.365L17.876,15.207L18.067,15.052L18.26,14.898L18.455,14.746L18.651,14.595L18.849,14.447L19.049,14.301L19.25,14.156L19.452,14.013L19.657,13.872L19.863,13.733L20.07,13.597L20.279,13.462L20.49,13.329L20.702,13.198L20.915,13.069L21.13,12.942L21.346,12.817L21.564,12.694L21.783,12.573L22.003,12.455L22.225,12.338L22.448,12.224L22.672,12.111L22.898,12.001L23.125,11.893L23.353,11.787L23.582,11.683L23.813,11.582L24.045,11.483L24.277,11.386L24.511,11.291L24.746,11.198L24.982,11.108L25.22,11.02L25.458,10.934L25.697,10.851L25.937,10.77L26.178,10.691L26.42,10.614L26.663,10.54L26.907,10.468L27.152,10.399L27.397,10.332L27.644,10.267L27.891,10.205L28.139,10.145L28.388,10.087L28.637,10.032L28.887,9.979L29.138,9.929L29.389,9.881L29.641,9.836L29.894,9.793L30.147,9.752L30.401,9.714L30.655,9.679L30.91,9.646L31.005,9.634ZM31.112,18.705L31.039,12.522L30.83,12.551L30.606,12.585L30.381,12.621L30.158,12.659L29.935,12.699L29.712,12.741L29.49,12.786L29.269,12.833L29.048,12.881L28.828,12.932L28.609,12.985L28.39,13.04L28.172,13.098L27.962,13.155L27.739,13.219L27.523,13.282L27.308,13.348L27.094,13.415L26.881,13.485L26.668,13.557L26.457,13.631L26.246,13.706L26.037,13.784L25.828,13.864L25.62,13.946L25.414,14.029L25.208,14.115L25.003,14.203L24.8,14.293L24.597,14.384L24.396,14.478L24.195,14.573L23.996,14.67L23.797,14.77L23.601,14.871L23.405,14.974L23.211,15.078L23.017,15.185L22.825,15.294L22.634,15.404L22.444,15.516L22.256,15.63L22.068,15.746L21.883,15.863L21.698,15.982L21.516,16.103L21.334,16.225L21.154,16.349L20.974,16.476L20.797,16.603L20.621,16.732L20.446,16.863L20.273,16.996L20.102,17.129L19.931,17.265L19.763,17.402L19.596,17.541L19.43,17.682L19.266,17.823L19.104,17.967L18.943,18.112L18.784,18.258L18.626,18.406L18.47,18.555L18.316,18.706L18.163,18.858L18.012,19.011L17.863,19.166L17.715,19.322L17.569,19.48L17.425,19.638L17.282,19.799L17.141,19.96L17.003,20.123L16.866,20.287L16.73,20.452L16.596,20.618L16.465,20.785L16.335,20.954L16.206,21.124L16.08,21.295L15.956,21.467L15.833,21.641L15.712,21.815L15.593,21.99L15.476,22.167L15.361,22.344L15.248,22.522L15.137,22.702L15.027,22.882L14.92,23.063L14.814,23.246L14.711,23.429L14.609,23.612L14.509,23.797L14.412,23.983L14.316,24.17L14.222,24.357L14.131,24.545L14.041,24.734L13.953,24.924L13.867,25.114L13.784,25.305L13.702,25.497L13.622,25.689L13.545,25.882L13.469,26.076L13.396,26.27L13.324,26.465L13.255,26.66L13.187,26.856L13.122,27.052L13.059,27.249L12.997,27.447L12.938,27.644L12.881,27.843L12.826,28.041L12.773,28.24L12.723,28.44L12.674,28.64L12.627,28.84L12.583,29.04L12.54,29.241L12.5,29.442L12.462,29.643L12.425,29.845L12.391,30.046L12.359,30.248L12.329,30.45L12.302,30.652L12.276,30.854L12.252,31.057L12.231,31.259L12.211,31.462L12.194,31.664L12.179,31.867L12.166,32.069L12.155,32.272L12.146,32.474L12.139,32.677L12.134,32.879L12.131,33.081L12.131,33.284L12.132,33.485L12.136,33.687L12.141,33.889L12.149,34.09L12.158,34.291L12.17,34.492L12.184,34.693L12.2,34.893L12.218,35.093L12.238,35.293L12.26,35.492L12.284,35.691L12.31,35.89L12.338,36.088L12.368,36.286L12.4,36.483L12.434,36.68L12.47,36.877L12.508,37.072L12.548,37.268L12.59,37.463L12.634,37.657L12.68,37.85L12.728,38.044L12.777,38.236L12.829,38.428L12.883,38.619L12.939,38.809L12.996,38.999L13.056,39.188L13.117,39.377L13.18,39.564L13.245,39.751L13.312,39.937L13.381,40.122L13.452,40.307L13.524,40.49L13.598,40.673L13.674,40.855L13.752,41.036L13.832,41.216L13.914,41.395L13.997,41.573L14.082,41.751L14.169,41.927L14.257,42.102L14.348,42.276L14.44,42.45L14.533,42.622L14.629,42.793L14.726,42.963L14.825,43.132L14.925,43.3L15.027,43.467L15.131,43.632L15.236,43.797L15.343,43.96L15.452,44.122L15.562,44.284L15.673,44.443L15.787,44.602L15.901,44.759L16.018,44.915L16.135,45.07L16.255,45.223L16.375,45.376L16.498,45.526L16.621,45.676L16.746,45.824L16.873,45.971L17.001,46.117L17.13,46.261L17.261,46.404L17.393,46.545L17.526,46.685L17.661,46.824L17.797,46.961L17.935,47.096L18.073,47.231L18.213,47.363L18.354,47.495L18.497,47.624L18.64,47.753L18.785,47.879L18.931,48.005L19.078,48.128L19.227,48.251L19.376,48.371L19.527,48.49L19.678,48.608L19.831,48.724L19.985,48.838L20.14,48.95L20.296,49.061L20.453,49.171L20.611,49.279L20.77,49.385L20.929,49.489L21.09,49.592L21.252,49.694L21.415,49.793L21.578,49.891L21.743,49.987L21.908,50.082L22.074,50.174L22.241,50.265L22.408,50.355L22.577,50.443L22.746,50.528L22.916,50.613L23.087,50.695L23.258,50.776L23.43,50.855L23.603,50.932L23.777,51.007L23.951,51.081L24.125,51.153L24.301,51.223L24.476,51.291L24.653,51.358L24.83,51.423L25.007,51.486L25.185,51.547L25.364,51.606L25.543,51.664L25.722,51.72L25.902,51.774L26.082,51.826L26.263,51.876L26.444,51.925L26.625,51.972L26.806,52.016L26.988,52.059L27.171,52.101L27.353,52.14L27.536,52.178L27.719,52.213L27.902,52.247L28.085,52.28L28.269,52.31L28.453,52.338L28.636,52.365L28.82,52.39L29.004,52.413L29.189,52.434L29.373,52.453L29.557,52.471L29.741,52.486L29.926,52.5L30.11,52.512L30.294,52.522L30.478,52.531L30.663,52.537L30.847,52.542L31.031,52.545L31.214,52.546L31.398,52.546L31.582,52.543L31.765,52.539L31.948,52.533L32.131,52.525L32.314,52.515L32.496,52.504L32.678,52.491L32.86,52.476L33.041,52.459L33.223,52.44L33.404,52.42L33.584,52.398L33.764,52.374L33.944,52.348L34.123,52.321L34.302,52.292L34.48,52.261L34.659,52.229L34.836,52.194L35.013,52.159L35.19,52.121L35.365,52.081L35.541,52.04L35.715,51.998L35.89,51.953L36.063,51.907L36.236,51.859L36.408,51.81L36.58,51.759L36.751,51.706L36.921,51.652L37.091,51.596L37.26,51.538L37.428,51.479L37.595,51.418L37.762,51.356L37.928,51.292L38.093,51.226L38.257,51.159L38.42,51.09L38.583,51.02L38.744,50.948L38.905,50.875L39.065,50.8L39.224,50.724L39.382,50.646L39.539,50.567L39.695,50.486L39.851,50.404L40.005,50.32L40.158,50.235L40.31,50.149L40.461,50.061L40.612,49.971L40.761,49.88L40.908,49.788L41.056,49.695L41.201,49.6L41.346,49.504L41.49,49.406L41.632,49.307L41.773,49.207L41.914,49.105L42.053,49.003L42.191,48.899L42.328,48.793L42.463,48.687L42.597,48.579L42.73,48.47L42.862,48.36L42.992,48.248L43.122,48.135L43.249,48.022L43.376,47.906L43.502,47.79L43.626,47.673L43.749,47.555L43.87,47.435L43.99,47.315L44.109,47.193L44.226,47.07L44.342,46.947L44.457,46.822L44.57,46.696L44.682,46.57L44.793,46.442L44.902,46.313L45.009,46.183L45.116,46.052L45.22,45.921L45.324,45.789L45.426,45.655L45.526,45.521L45.625,45.386L45.722,45.25L45.818,45.113L45.913,44.976L46.006,44.837L46.097,44.698L46.187,44.558L46.276,44.417L46.363,44.276L46.448,44.134L46.532,43.991L46.614,43.847L46.695,43.703L46.774,43.558L46.852,43.412L46.928,43.266L47.002,43.119L47.075,42.972L47.146,42.824L47.216,42.676L47.284,42.526L47.351,42.377L47.416,42.226L47.479,42.076L47.541,41.925L47.601,41.773L47.659,41.621L47.716,41.469L47.772,41.316L47.825,41.163L47.877,41.009L47.927,40.855L47.976,40.7L48.023,40.546L48.069,40.391L48.113,40.235L48.155,40.08L48.195,39.924L48.234,39.768L48.272,39.611L48.307,39.454L48.341,39.298L48.374,39.141L48.404,38.984L48.433,38.826L48.461,38.668L48.486,38.511L48.511,38.353L48.533,38.196L48.554,38.038L48.573,37.88L48.591,37.722L48.606,37.564L48.621,37.406L48.633,37.248L48.644,37.09L48.654,36.932L48.661,36.774L48.668,36.617L48.672,36.459L48.675,36.302L48.676,36.144L48.676,35.987L48.674,35.829L48.67,35.673L48.665,35.516L48.658,35.359L48.649,35.203L48.639,35.047L48.628,34.891L48.614,34.735L48.6,34.58L48.583,34.425L48.565,34.27L48.545,34.116L48.524,33.962L48.502,33.808L48.477,33.654L48.452,33.502L48.424,33.349L48.395,33.197L48.365,33.045L48.333,32.894L48.299,32.743L48.264,32.593L48.228,32.443L48.19,32.294L48.15,32.145L48.109,31.997L48.066,31.849L48.022,31.702L47.977,31.555L47.93,31.409L47.882,31.264L47.832,31.12L47.78,30.975L47.728,30.832L47.674,30.689L47.618,30.547L47.561,30.405L47.503,30.264L47.443,30.125L47.382,29.985L47.319,29.847L47.256,29.709L47.19,29.572L47.124,29.436L47.056,29.3L46.986,29.165L46.916,29.032L46.844,28.899L46.771,28.766L46.697,28.635L46.621,28.505L46.544,28.375L46.465,28.246L46.386,28.119L46.305,27.992L46.224,27.866L46.14,27.741L46.056,27.617L45.97,27.494L45.884,27.372L45.796,27.251L45.707,27.13L45.616,27.011L45.525,26.893L45.433,26.776L45.339,26.66L45.244,26.544L45.148,26.43L45.052,26.317L44.954,26.206L44.855,26.095L44.755,25.985L44.654,25.876L44.552,25.769L44.449,25.662L44.345,25.557L44.24,25.453L44.134,25.35L44.027,25.248L43.919,25.147L43.81,25.048L43.7,24.949L43.59,24.852L43.478,24.756L43.366,24.661L43.253,24.568L43.139,24.475L43.024,24.384L42.908,24.294L42.791,24.205L42.674,24.118L42.556,24.032L42.437,23.946L42.318,23.863L42.197,23.78L42.076,23.7L41.954,23.62L41.832,23.541L41.708,23.463L41.585,23.388L41.46,23.313L41.335,23.239L41.209,23.167L41.083,23.096L40.956,23.027L40.828,22.959L40.7,22.892L40.572,22.827L40.443,22.762L40.313,22.699L40.183,22.638L40.052,22.578L39.92,22.519L39.789,22.462L39.657,22.406L39.524,22.351L39.391,22.297L39.258,22.246L39.124,22.195L38.99,22.146L38.856,22.098L38.72,22.051L38.585,22.006L38.45,21.963L38.314,21.92L38.178,21.879L38.041,21.84L37.905,21.802L37.768,21.765L37.631,21.729L37.494,21.695L37.356,21.663L37.218,21.632L37.08,21.602L36.942,21.573L36.804,21.546L36.666,21.521L36.527,21.496L36.389,21.473L36.25,21.452L36.112,21.432L35.972,21.413L35.834,21.396L35.695,21.38L35.556,21.365L35.417,21.352L35.278,21.34L35.14,21.33L35.001,21.321L34.862,21.313L34.724,21.307L34.585,21.302L34.447,21.299L34.308,21.296L34.17,21.296L34.076,21.296L34.147,27.337L34.19,27.337L34.269,27.338L34.349,27.34L34.429,27.342L34.508,27.346L34.588,27.35L34.668,27.356L34.748,27.362L34.828,27.368L34.908,27.376L34.988,27.385L35.068,27.394L35.149,27.404L35.229,27.415L35.309,27.427L35.39,27.44L35.47,27.453L35.55,27.468L35.63,27.483L35.711,27.499L35.791,27.516L35.871,27.534L35.951,27.553L36.031,27.572L36.111,27.593L36.191,27.614L36.27,27.636L36.35,27.659L36.43,27.683L36.509,27.707L36.588,27.733L36.667,27.759L36.746,27.787L36.825,27.815L36.904,27.844L36.982,27.873L37.06,27.904L37.138,27.935L37.216,27.968L37.294,28.001L37.371,28.035L37.448,28.07L37.525,28.105L37.602,28.142L37.678,28.179L37.754,28.218L37.83,28.257L37.906,28.297L37.981,28.337L38.056,28.379L38.13,28.421L38.204,28.465L38.278,28.509L38.352,28.554L38.425,28.599L38.498,28.646L38.57,28.693L38.642,28.741L38.714,28.79L38.785,28.84L38.856,28.891L38.926,28.942L38.996,28.994L39.065,29.047L39.134,29.101L39.203,29.156L39.271,29.211L39.339,29.267L39.406,29.324L39.472,29.381L39.538,29.44L39.604,29.499L39.669,29.559L39.733,29.62L39.797,29.681L39.861,29.743L39.924,29.806L39.986,29.87L40.048,29.934L40.108,29.999L40.169,30.065L40.229,30.132L40.288,30.199L40.347,30.267L40.405,30.336L40.462,30.405L40.519,30.475L40.575,30.546L40.63,30.617L40.685,30.689L40.739,30.762L40.792,30.835L40.845,30.909L40.897,30.984L40.948,31.059L40.998,31.135L41.048,31.212L41.097,31.289L41.145,31.367L41.193,31.445L41.24,31.524L41.285,31.604L41.331,31.684L41.375,31.765L41.419,31.846L41.462,31.928L41.504,32.01L41.545,32.093L41.585,32.177L41.625,32.261L41.663,32.345L41.701,32.431L41.738,32.516L41.775,32.602L41.81,32.689L41.844,32.776L41.878,32.863L41.911,32.951L41.943,33.04L41.973,33.129L42.004,33.218L42.033,33.308L42.061,33.398L42.088,33.489L42.115,33.58L42.14,33.671L42.165,33.763L42.188,33.855L42.211,33.948L42.233,34.041L42.253,34.134L42.273,34.228L42.292,34.321L42.31,34.416L42.327,34.51L42.343,34.605L42.358,34.7L42.372,34.796L42.385,34.891L42.397,34.987L42.408,35.084L42.418,35.18L42.427,35.277L42.435,35.374L42.442,35.471L42.448,35.568L42.453,35.666L42.457,35.764L42.46,35.862L42.461,35.96L42.462,36.058L42.462,36.156L42.461,36.255L42.459,36.353L42.455,36.452L42.451,36.551L42.446,36.65L42.439,36.749L42.432,36.848L42.423,36.947L42.413,37.046L42.403,37.146L42.391,37.245L42.378,37.344L42.364,37.444L42.35,37.543L42.334,37.642L42.316,37.741L42.298,37.84L42.279,37.94L42.259,38.039L42.238,38.138L42.215,38.236L42.192,38.335L42.167,38.434L42.142,38.533L42.115,38.631L42.087,38.73L42.058,38.828L42.028,38.926L41.998,39.024L41.966,39.121L41.932,39.219L41.898,39.316L41.863,39.413L41.827,39.51L41.789,39.607L41.751,39.703L41.712,39.799L41.671,39.895L41.629,39.99L41.587,40.086L41.543,40.181L41.498,40.275L41.452,40.37L41.406,40.464L41.358,40.557L41.309,40.65L41.259,40.743L41.208,40.836L41.156,40.928L41.102,41.02L41.048,41.111L40.993,41.202L40.937,41.292L40.88,41.382L40.821,41.472L40.762,41.561L40.702,41.649L40.641,41.737L40.578,41.825L40.515,41.912L40.451,41.998L40.386,42.084L40.319,42.17L40.252,42.255L40.184,42.339L40.115,42.423L40.045,42.506L39.974,42.588L39.902,42.67L39.829,42.752L39.755,42.832L39.68,42.912L39.604,42.992L39.527,43.071L39.45,43.149L39.371,43.226L39.292,43.303L39.211,43.379L39.13,43.454L39.048,43.529L38.965,43.603L38.881,43.676L38.796,43.748L38.711,43.82L38.624,43.89L38.537,43.96L38.449,44.03L38.36,44.098L38.27,44.166L38.179,44.233L38.088,44.299L37.996,44.364L37.903,44.428L37.809,44.492L37.714,44.554L37.619,44.616L37.523,44.677L37.426,44.737L37.328,44.796L37.23,44.854L37.131,44.911L37.031,44.968L36.93,45.023L36.829,45.077L36.727,45.131L36.624,45.184L36.521,45.235L36.417,45.286L36.313,45.335L36.207,45.384L36.102,45.432L35.995,45.478L35.888,45.524L35.78,45.569L35.672,45.612L35.563,45.655L35.454,45.696L35.344,45.737L35.233,45.776L35.122,45.815L35.01,45.852L34.898,45.888L34.785,45.923L34.672,45.957L34.559,45.991L34.444,46.022L34.33,46.053L34.215,46.083L34.099,46.112L33.983,46.139L33.867,46.165L33.75,46.19L33.633,46.215L33.516,46.237L33.398,46.259L33.279,46.28L33.161,46.299L33.042,46.318L32.922,46.335L32.803,46.351L32.683,46.366L32.563,46.379L32.442,46.392L32.321,46.403L32.2,46.413L32.079,46.422L31.958,46.429L31.836,46.436L31.714,46.441L31.592,46.445L31.47,46.448L31.347,46.449L31.225,46.45L31.102,46.449L30.979,46.447L30.856,46.444L30.733,46.439L30.61,46.433L30.486,46.426L30.363,46.418L30.24,46.409L30.116,46.398L29.993,46.386L29.869,46.373L29.746,46.358L29.623,46.343L29.499,46.326L29.376,46.308L29.252,46.288L29.129,46.268L29.006,46.246L28.883,46.222L28.76,46.198L28.637,46.172L28.514,46.145L28.392,46.117L28.269,46.088L28.147,46.057L28.025,46.025L27.903,45.992L27.781,45.957L27.66,45.922L27.539,45.885L27.418,45.847L27.297,45.807L27.177,45.767L27.057,45.725L26.937,45.681L26.817,45.637L26.698,45.591L26.579,45.544L26.461,45.496L26.343,45.447L26.225,45.396L26.108,45.345L25.991,45.292L25.875,45.237L25.759,45.182L25.643,45.125L25.528,45.067L25.413,45.008L25.299,44.948L25.186,44.887L25.073,44.824L24.96,44.76L24.848,44.695L24.737,44.629L24.626,44.561L24.516,44.493L24.406,44.423L24.297,44.352L24.188,44.28L24.08,44.207L23.973,44.132L23.867,44.057L23.761,43.98L23.656,43.902L23.551,43.823L23.448,43.743L23.344,43.662L23.242,43.58L23.141,43.496L23.04,43.412L22.94,43.326L22.841,43.24L22.742,43.152L22.645,43.063L22.548,42.973L22.452,42.882L22.357,42.79L22.262,42.697L22.169,42.603L22.077,42.508L21.985,42.412L21.894,42.315L21.804,42.217L21.716,42.118L21.628,42.018L21.541,41.917L21.455,41.815L21.37,41.712L21.286,41.608L21.203,41.503L21.12,41.397L21.039,41.29L20.959,41.183L20.88,41.074L20.803,40.965L20.726,40.854L20.65,40.743L20.575,40.631L20.501,40.518L20.429,40.404L20.357,40.29L20.287,40.175L20.218,40.058L20.15,39.941L20.083,39.823L20.017,39.705L19.953,39.585L19.889,39.465L19.827,39.344L19.766,39.223L19.706,39.1L19.648,38.977L19.59,38.854L19.534,38.729L19.479,38.604L19.425,38.478L19.373,38.352L19.322,38.224L19.272,38.097L19.223,37.968L19.176,37.839L19.13,37.71L19.085,37.58L19.041,37.449L18.999,37.318L18.959,37.186L18.919,37.053L18.881,36.92L18.844,36.787L18.809,36.653L18.774,36.519L18.742,36.384L18.71,36.249L18.68,36.113L18.652,35.977L18.624,35.84L18.599,35.703L18.574,35.566L18.551,35.428L18.529,35.29L18.509,35.151L18.49,35.012L18.473,34.873L18.457,34.734L18.442,34.594L18.429,34.454L18.418,34.314L18.407,34.173L18.399,34.032L18.391,33.892L18.385,33.75L18.381,33.609L18.378,33.467L18.376,33.326L18.376,33.184L18.378,33.042L18.381,32.9L18.385,32.757L18.391,32.615L18.398,32.473L18.407,32.33L18.417,32.188L18.429,32.045L18.443,31.903L18.457,31.76L18.474,31.617L18.491,31.475L18.511,31.332L18.531,31.19L18.554,31.048L18.577,30.905L18.603,30.763L18.629,30.621L18.658,30.479L18.687,30.337L18.719,30.196L18.751,30.054L18.785,29.913L18.821,29.772L18.858,29.631L18.897,29.491L18.937,29.351L18.979,29.21L19.022,29.071L19.067,28.931L19.113,28.792L19.16,28.653L19.21,28.515L19.26,28.377L19.312,28.239L19.366,28.102L19.421,27.965L19.477,27.828L19.535,27.692L19.595,27.556L19.656,27.421L19.718,27.286L19.782,27.152L19.847,27.019L19.913,26.885L19.981,26.753L20.051,26.621L20.122,26.489L20.194,26.358L20.268,26.228L20.343,26.098L20.42,25.969L20.498,25.841L20.577,25.713L20.658,25.586L20.741,25.459L20.824,25.333L20.909,25.208L20.996,25.084L21.083,24.961L21.172,24.838L21.263,24.716L21.354,24.595L21.448,24.474L21.542,24.355L21.638,24.236L21.735,24.118L21.833,24.001L21.933,23.884L22.034,23.769L22.136,23.655L22.24,23.541L22.344,23.429L22.45,23.317L22.558,23.206L22.666,23.096L22.776,22.988L22.887,22.88L22.999,22.773L23.113,22.667L23.227,22.563L23.343,22.459L23.46,22.356L23.578,22.255L23.697,22.154L23.818,22.055L23.939,21.956L24.062,21.859L24.186,21.763L24.311,21.668L24.436,21.575L24.564,21.482L24.692,21.391L24.821,21.3L24.951,21.211L25.082,21.123L25.215,21.037L25.348,20.952L25.482,20.867L25.617,20.784L25.754,20.703L25.891,20.623L26.029,20.544L26.168,20.466L26.308,20.389L26.449,20.314L26.591,20.241L26.734,20.168L26.877,20.097L27.022,20.027L27.167,19.959L27.313,19.892L27.46,19.826L27.608,19.762L27.756,19.699L27.905,19.638L28.055,19.578L28.206,19.519L28.358,19.462L28.51,19.407L28.663,19.353L28.817,19.3L28.971,19.249L29.126,19.199L29.281,19.15L29.438,19.104L29.595,19.058L29.752,19.015L29.91,18.973L30.069,18.932L30.228,18.893L30.388,18.855L30.548,18.819L30.708,18.784L30.87,18.751L31.031,18.72L31.112,18.705ZM33.1,30.321L31.255,30.762L31.147,21.627L31.06,21.646L30.929,21.677L30.799,21.709L30.669,21.743L30.539,21.777L30.41,21.813L30.282,21.85L30.154,21.888L30.026,21.928L29.9,21.969L29.773,22.011L29.648,22.054L29.523,22.098L29.398,22.144L29.274,22.19L29.151,22.238L29.028,22.287L28.906,22.337L28.785,22.389L28.664,22.441L28.544,22.495L28.425,22.549L28.306,22.605L28.189,22.662L28.071,22.72L27.955,22.779L27.839,22.839L27.724,22.901L27.61,22.963L27.497,23.026L27.384,23.091L27.273,23.156L27.161,23.223L27.051,23.29L26.942,23.359L26.834,23.428L26.726,23.499L26.619,23.57L26.513,23.643L26.408,23.716L26.304,23.79L26.201,23.865L26.098,23.942L25.997,24.019L25.896,24.097L25.797,24.176L25.698,24.256L25.6,24.336L25.503,24.418L25.408,24.5L25.313,24.584L25.219,24.668L25.126,24.753L25.034,24.839L24.943,24.925L24.853,25.012L24.764,25.101L24.676,25.189L24.589,25.279L24.503,25.369L24.418,25.461L24.335,25.553L24.252,25.645L24.17,25.739L24.09,25.832L24.01,25.927L23.932,26.022L23.854,26.119L23.778,26.215L23.703,26.313L23.628,26.411L23.556,26.509L23.484,26.608L23.413,26.708L23.343,26.808L23.274,26.909L23.207,27.011L23.141,27.112L23.076,27.215L23.012,27.318L22.949,27.421L22.887,27.526L22.826,27.63L22.767,27.735L22.708,27.84L22.652,27.946L22.596,28.052L22.541,28.159L22.487,28.267L22.435,28.374L22.383,28.482L22.333,28.59L22.284,28.699L22.237,28.808L22.19,28.917L22.145,29.027L22.101,29.137L22.058,29.247L22.016,29.357L21.975,29.468L21.936,29.579L21.898,29.691L21.861,29.802L21.825,29.914L21.79,30.026L21.757,30.138L21.725,30.25L21.694,30.363L21.664,30.476L21.636,30.588L21.608,30.701L21.582,30.815L21.557,30.928L21.533,31.041L21.511,31.155L21.489,31.268L21.469,31.382L21.45,31.495L21.432,31.609L21.416,31.723L21.4,31.836L21.386,31.95L21.373,32.064L21.362,32.177L21.351,32.291L21.342,32.405L21.333,32.518L21.326,32.632L21.32,32.745L21.316,32.858L21.312,32.972L21.31,33.085L21.309,33.198L21.309,33.311L21.31,33.423L21.312,33.536L21.316,33.648L21.321,33.76L21.326,33.872L21.333,33.984L21.342,34.096L21.351,34.207L21.361,34.318L21.373,34.429L21.385,34.539L21.399,34.65L21.414,34.76L21.43,34.869L21.447,34.979L21.466,35.088L21.485,35.197L21.505,35.305L21.527,35.413L21.55,35.521L21.573,35.628L21.598,35.735L21.624,35.842L21.651,35.948L21.679,36.054L21.708,36.159L21.738,36.264L21.769,36.368L21.802,36.473L21.835,36.576L21.869,36.679L21.904,36.782L21.941,36.884L21.978,36.985L22.016,37.087L22.056,37.187L22.096,37.287L22.137,37.387L22.179,37.486L22.223,37.584L22.267,37.682L22.312,37.78L22.358,37.876L22.405,37.972L22.453,38.068L22.502,38.163L22.552,38.257L22.602,38.351L22.654,38.444L22.706,38.536L22.76,38.628L22.814,38.719L22.869,38.809L22.925,38.899L22.982,38.988L23.04,39.077L23.098,39.164L23.157,39.252L23.217,39.337L23.278,39.423L23.34,39.508L23.402,39.592L23.466,39.676L23.53,39.758L23.595,39.84L23.66,39.921L23.727,40.001L23.794,40.081L23.862,40.16L23.93,40.238L23.999,40.315L24.069,40.391L24.14,40.467L24.211,40.542L24.283,40.616L24.356,40.689L24.429,40.761L24.503,40.833L24.578,40.903L24.653,40.973L24.729,41.042L24.805,41.11L24.882,41.177L24.96,41.244L25.038,41.309L25.116,41.374L25.196,41.438L25.276,41.501L25.356,41.563L25.437,41.624L25.518,41.684L25.6,41.744L25.683,41.802L25.766,41.86L25.849,41.916L25.933,41.972L26.017,42.027L26.102,42.08L26.187,42.134L26.272,42.185L26.358,42.237L26.445,42.287L26.532,42.336L26.619,42.384L26.706,42.432L26.794,42.478L26.882,42.524L26.971,42.568L27.06,42.612L27.149,42.654L27.239,42.696L27.328,42.737L27.418,42.777L27.509,42.816L27.6,42.853L27.69,42.89L27.782,42.926L27.873,42.961L27.965,42.995L28.056,43.028L28.149,43.061L28.241,43.092L28.333,43.122L28.426,43.151L28.518,43.18L28.611,43.207L28.704,43.233L28.797,43.258L28.891,43.283L28.984,43.306L29.077,43.329L29.171,43.35L29.264,43.371L29.358,43.39L29.452,43.409L29.546,43.427L29.64,43.443L29.733,43.459L29.827,43.474L29.921,43.488L30.015,43.501L30.109,43.512L30.203,43.524L30.296,43.534L30.39,43.543L30.484,43.551L30.578,43.558L30.671,43.564L30.765,43.569L30.858,43.574L30.951,43.577L31.044,43.58L31.137,43.581L31.23,43.582L31.323,43.582L31.415,43.58L31.508,43.578L31.6,43.575L31.692,43.571L31.784,43.566L31.876,43.561L31.967,43.554L32.059,43.546L32.149,43.538L32.24,43.529L32.331,43.518L32.421,43.507L32.511,43.495L32.601,43.482L32.69,43.468L32.78,43.454L32.868,43.438L32.957,43.422L33.045,43.405L33.133,43.387L33.22,43.368L33.308,43.348L33.395,43.328L33.481,43.306L33.567,43.284L33.653,43.261L33.738,43.237L33.824,43.212L33.908,43.187L33.992,43.161L34.076,43.133L34.159,43.106L34.242,43.077L34.324,43.048L34.406,43.017L34.488,42.986L34.569,42.955L34.65,42.922L34.73,42.889L34.81,42.855L34.889,42.82L34.967,42.785L35.046,42.749L35.123,42.712L35.2,42.674L35.277,42.636L35.353,42.597L35.429,42.558L35.504,42.517L35.578,42.476L35.652,42.435L35.725,42.392L35.798,42.349L35.87,42.305L35.942,42.261L36.013,42.216L36.083,42.171L36.153,42.124L36.222,42.078L36.291,42.03L36.359,41.982L36.426,41.934L36.493,41.884L36.559,41.835L36.624,41.784L36.689,41.733L36.753,41.682L36.817,41.63L36.88,41.578L36.942,41.524L37.003,41.471L37.064,41.417L37.124,41.362L37.184,41.307L37.242,41.252L37.3,41.195L37.358,41.139L37.415,41.082L37.471,41.024L37.526,40.966L37.58,40.908L37.635,40.849L37.688,40.79L37.74,40.73L37.792,40.67L37.843,40.61L37.893,40.548L37.943,40.487L37.992,40.426L38.04,40.364L38.087,40.301L38.134,40.238L38.179,40.176L38.224,40.112L38.269,40.048L38.312,39.984L38.355,39.92L38.398,39.855L38.439,39.79L38.479,39.725L38.519,39.659L38.558,39.593L38.597,39.527L38.634,39.461L38.671,39.394L38.707,39.327L38.742,39.26L38.776,39.193L38.81,39.125L38.843,39.058L38.875,38.989L38.907,38.921L38.937,38.853L38.967,38.785L38.996,38.716L39.024,38.647L39.052,38.578L39.079,38.509L39.105,38.44L39.13,38.371L39.154,38.301L39.178,38.232L39.2,38.162L39.223,38.092L39.244,38.023L39.264,37.952L39.284,37.883L39.303,37.812L39.321,37.743L39.339,37.672L39.355,37.602L39.371,37.532L39.386,37.462L39.401,37.392L39.414,37.322L39.427,37.251L39.439,37.181L39.45,37.111L39.461,37.041L39.471,36.971L39.48,36.901L39.488,36.831L39.496,36.761L39.502,36.691L39.508,36.622L39.514,36.552L39.518,36.482L39.522,36.413L39.525,36.344L39.527,36.275L39.529,36.205L39.53,36.136L39.53,36.067L39.529,35.999L39.528,35.93L39.526,35.862L39.523,35.793L39.52,35.726L39.516,35.657L39.511,35.59L39.505,35.523L39.499,35.455L39.492,35.388L39.484,35.321L39.476,35.254L39.467,35.188L39.457,35.122L39.447,35.056L39.436,34.99L39.424,34.924L39.412,34.86L39.399,34.795L39.385,34.73L39.371,34.666L39.356,34.601L39.34,34.538L39.324,34.475L39.307,34.411L39.289,34.348L39.271,34.285L39.252,34.224L39.233,34.162L39.213,34.1L39.192,34.039L39.171,33.978L39.15,33.918L39.127,33.858L39.104,33.797L39.081,33.738L39.056,33.679L39.032,33.621L39.007,33.562L38.981,33.504L38.955,33.447L38.928,33.39L38.9,33.333L38.872,33.277L38.844,33.221L38.815,33.165L38.785,33.11L38.755,33.056L38.725,33.001L38.694,32.948L38.662,32.894L38.63,32.842L38.598,32.789L38.565,32.737L38.531,32.686L38.497,32.635L38.463,32.584L38.428,32.534L38.393,32.484L38.357,32.435L38.321,32.387L38.284,32.338L38.248,32.291L38.21,32.243L38.172,32.197L38.134,32.151L38.095,32.105L38.056,32.06L38.017,32.015L37.977,31.971L37.937,31.927L37.897,31.884L37.856,31.841L37.815,31.799L37.773,31.757L37.731,31.716L37.689,31.676L37.647,31.636L37.603,31.596L37.56,31.557L37.517,31.519L37.473,31.481L37.429,31.444L37.385,31.407L37.34,31.371L37.295,31.335L37.25,31.3L37.205,31.265L37.159,31.231L37.113,31.197L37.067,31.164L37.021,31.132L36.974,31.1L36.928,31.069L36.88,31.038L36.833,31.008L36.786,30.978L36.738,30.949L36.69,30.921L36.643,30.893L36.594,30.866L36.546,30.839L36.498,30.812L36.449,30.787L36.4,30.762L36.352,30.737L36.302,30.713L36.253,30.69L36.204,30.667L36.155,30.644L36.105,30.623L36.056,30.601L36.006,30.581L35.956,30.561L35.907,30.541L35.857,30.523L35.807,30.504L35.757,30.486L35.707,30.469L35.657,30.452L35.607,30.436L35.557,30.421L35.506,30.406L35.456,30.391L35.406,30.377L35.356,30.364L35.306,30.351L35.256,30.339L35.205,30.327L35.155,30.316L35.105,30.305L35.055,30.295L35.005,30.286L34.955,30.277L34.905,30.268L34.855,30.26L34.805,30.253L34.756,30.246L34.706,30.24L34.656,30.234L34.607,30.229L34.557,30.224L34.508,30.22L34.459,30.216L34.409,30.213L34.36,30.21L34.311,30.208L34.263,30.207L34.214,30.205L34.166,30.205L34.117,30.204L34.069,30.205L34.021,30.206L33.973,30.207L33.925,30.209L33.878,30.211L33.83,30.214L33.783,30.217L33.736,30.221L33.689,30.225L33.643,30.23L33.596,30.235L33.55,30.241L33.504,30.247L33.458,30.253L33.412,30.26L33.367,30.268L33.322,30.276L33.277,30.284L33.232,30.293L33.188,30.302L33.143,30.311L33.1,30.321Z" clip-rule="evenodd" fill-rule="evenodd" fill="#475569"/>
</svg>
