<svg width="40" height="38" viewBox="0 0 40 38" fill="none" xmlns="http://www.w3.org/2000/svg" xmlns:xlink="http://www.w3.org/1999/xlink">
<path d="M6,4.407C5.47,4.407 4.961,4.618 4.586,4.993C4.211,5.368 4,5.877 4,6.407L4,24.407C4,24.938 4.211,25.446 4.586,25.821C4.961,26.196 5.47,26.407 6,26.407L34,26.407C34.53,26.407 35.039,26.196 35.414,25.821C35.789,25.446 36,24.938 36,24.407L36,6.407C36,5.877 35.789,5.368 35.414,4.993C35.039,4.618 34.53,4.407 34,4.407L6,4.407ZM6,0.407L34,0.407C35.591,0.407 37.117,1.039 38.243,2.165C39.368,3.29 40,4.816 40,6.407L40,24.407C40,25.998 39.368,27.525 38.243,28.65C37.117,29.775 35.591,30.407 34,30.407L6,30.407C4.409,30.407 2.883,29.775 1.757,28.65C0.632,27.525 0,25.998 0,24.407L0,6.407C0,4.816 0.632,3.29 1.757,2.165C2.883,1.039 4.409,0.407 6,0.407L6,0.407ZM14,32.407L26,32.407C26.53,32.407 27.039,32.618 27.414,32.993C27.789,33.368 28,33.877 28,34.407C28,34.938 27.789,35.446 27.414,35.821C27.039,36.196 26.53,36.407 26,36.407L14,36.407C13.47,36.407 12.961,36.196 12.586,35.821C12.211,35.446 12,34.938 12,34.407C12,33.877 12.211,33.368 12.586,32.993C12.961,32.618 13.47,32.407 14,32.407Z" fill="#0F172A"/>
</svg>
