<svg width="40" height="42" viewBox="0 0 40 42" fill="none" xmlns="http://www.w3.org/2000/svg" xmlns:xlink="http://www.w3.org/1999/xlink">
<path d="M3.504,16.407C3.168,17.714 2.999,19.058 3,20.407C3,21.787 3.176,23.127 3.504,24.407L9.2,24.407C8.93,21.747 8.93,19.067 9.2,16.407L3.504,16.407ZM5.14,12.407L9.832,12.407C10.364,9.973 11.132,7.793 12.074,5.979C9.17,7.378 6.754,9.618 5.14,12.407L5.14,12.407ZM34.496,16.407L28.8,16.407C29.07,19.067 29.07,21.747 28.8,24.407L34.496,24.407C35.169,21.783 35.169,19.031 34.496,16.407ZM32.86,12.407C31.246,9.618 28.83,7.378 25.926,5.979C26.87,7.793 27.636,9.973 28.168,12.407L32.86,12.407ZM13.224,16.407C13.074,17.735 12.999,19.071 13,20.407C13,21.777 13.076,23.117 13.224,24.407L24.776,24.407C25.077,21.749 25.077,19.065 24.776,16.407L13.224,16.407ZM13.94,12.407L24.06,12.407C23.696,10.904 23.171,9.444 22.494,8.053C21.238,5.543 19.894,4.407 19,4.407C18.104,4.407 16.762,5.543 15.506,8.053C14.876,9.317 14.346,10.787 13.94,12.407ZM5.14,28.407C6.754,31.197 9.17,33.436 12.074,34.835C11.13,33.021 10.364,30.841 9.832,28.407L5.14,28.407L5.14,28.407ZM32.86,28.407L28.168,28.407C27.636,30.841 26.868,33.021 25.926,34.835C28.83,33.436 31.246,31.197 32.86,28.407ZM13.94,28.407C14.346,30.027 14.876,31.497 15.506,32.761C16.762,35.271 18.106,36.407 19,36.407C19.896,36.407 21.238,35.271 22.494,32.761C23.124,31.497 23.654,30.027 24.06,28.407L13.94,28.407L13.94,28.407ZM19,40.407C7.954,40.407 -1,31.453 -1,20.407C-1,9.361 7.954,0.407 19,0.407C30.046,0.407 39,9.361 39,20.407C39,31.453 30.046,40.407 19,40.407Z" fill="#E2E8F0"/>
</svg>
