<svg width="40" height="34" viewBox="0 0 40 34" fill="none" xmlns="http://www.w3.org/2000/svg" xmlns:xlink="http://www.w3.org/1999/xlink">
<path d="M39,4.221C37.501,4.876 35.913,5.305 34.288,5.495C35.994,4.494 37.276,2.906 37.896,1.027C36.28,1.968 34.517,2.631 32.682,2.987C31.909,2.178 30.979,1.534 29.95,1.096C28.92,0.657 27.811,0.433 26.692,0.437C22.16,0.437 18.486,4.057 18.486,8.517C18.486,9.149 18.558,9.767 18.698,10.357C15.447,10.203 12.264,9.372 9.352,7.919C6.44,6.465 3.864,4.42 1.786,1.915C1.058,3.144 0.675,4.547 0.678,5.975C0.679,7.311 1.014,8.626 1.651,9.8C2.287,10.974 3.207,11.972 4.326,12.701C3.025,12.659 1.752,12.312 0.61,11.687L0.61,11.787C0.61,15.703 3.44,18.969 7.19,19.713C6.485,19.9 5.759,19.995 5.03,19.995C4.5,19.995 3.986,19.945 3.484,19.845C4.02,21.461 5.046,22.87 6.42,23.876C7.793,24.882 9.446,25.435 11.148,25.459C8.228,27.708 4.644,28.923 0.958,28.913C0.294,28.913 -0.358,28.873 -1,28.801C2.763,31.183 7.125,32.444 11.578,32.437C26.672,32.437 34.924,20.123 34.924,9.445L34.896,8.399C36.506,7.267 37.896,5.851 39,4.221L39,4.221Z" fill="#E2E8F0"/>
</svg>
