<svg width="28" height="18" viewBox="0 0 28 18" fill="none" xmlns="http://www.w3.org/2000/svg" xmlns:xlink="http://www.w3.org/1999/xlink">
<path d="M10.972,17.867C10.709,17.868 10.449,17.816 10.207,17.716C9.964,17.616 9.744,17.469 9.558,17.283L1.074,8.797C0.883,8.613 0.73,8.392 0.625,8.148C0.52,7.904 0.465,7.642 0.462,7.376C0.46,7.111 0.51,6.847 0.611,6.601C0.711,6.356 0.86,6.132 1.047,5.944C1.235,5.756 1.458,5.608 1.704,5.507C1.949,5.406 2.213,5.355 2.478,5.358C2.744,5.36 3.006,5.415 3.25,5.519C3.495,5.624 3.715,5.776 3.9,5.967L10.97,13.037L23.7,0.311C24.075,-0.064 24.584,-0.275 25.114,-0.275C25.645,-0.276 26.154,-0.065 26.529,0.31C26.904,0.685 27.115,1.194 27.115,1.724C27.116,2.255 26.905,2.764 26.53,3.139L12.386,17.283C12.2,17.469 11.98,17.616 11.737,17.716C11.495,17.816 11.235,17.868 10.972,17.867L10.972,17.867Z" fill="#15803D"/>
</svg>
