<svg width="28" height="18" viewBox="0 0 28 18" fill="none" xmlns="http://www.w3.org/2000/svg" xmlns:xlink="http://www.w3.org/1999/xlink">
<path d="M10.972,17.46C10.709,17.46 10.449,17.409 10.207,17.309C9.964,17.209 9.744,17.061 9.558,16.876L1.074,8.39C0.883,8.205 0.73,7.985 0.625,7.741C0.52,7.497 0.465,7.235 0.462,6.969C0.46,6.703 0.51,6.44 0.611,6.194C0.711,5.948 0.86,5.725 1.047,5.537C1.235,5.349 1.458,5.2 1.704,5.1C1.949,4.999 2.213,4.948 2.478,4.95C2.744,4.952 3.006,5.007 3.25,5.112C3.495,5.217 3.715,5.369 3.9,5.56L10.97,12.63L23.7,-0.096C24.075,-0.471 24.584,-0.682 25.114,-0.683C25.645,-0.683 26.154,-0.472 26.529,-0.097C26.904,0.278 27.115,0.787 27.115,1.317C27.116,1.848 26.905,2.357 26.53,2.732L12.386,16.876C12.2,17.061 11.98,17.209 11.737,17.309C11.495,17.409 11.235,17.46 10.972,17.46L10.972,17.46Z" fill="#15803D"/>
</svg>
