<svg width="36" height="36" viewBox="0 0 36 36" fill="none" xmlns="http://www.w3.org/2000/svg" xmlns:xlink="http://www.w3.org/1999/xlink">
<path d="M18.616,24.942L18.768,22.814L20.622,21.756C22.402,20.724 24.038,19.461 25.486,18C30.766,12.718 32.378,6.508 30.436,4.564C28.492,2.624 22.282,4.232 17,9.514C15.48,11.034 14.206,12.694 13.244,14.378L12.184,16.232L10.058,16.384C8.313,16.506 6.658,17.201 5.348,18.36C7.848,19.46 10.121,21.017 12.05,22.95C14.01,24.91 15.554,27.184 16.64,29.652C17.799,28.342 18.494,26.687 18.616,24.942ZM12.67,30.6C12.268,31.147 11.824,31.662 11.344,32.142C9,34.486 5.464,35.192 0.736,34.262C-0.192,29.536 0.516,26 2.856,23.656C3.352,23.164 3.868,22.72 4.4,22.33C2.76,21.529 1.008,20.983 -0.796,20.71C-0.215,18.887 0.795,17.229 2.15,15.878C4.187,13.836 6.893,12.599 9.77,12.396C10.978,10.306 12.457,8.386 14.17,6.686C20.81,0.046 29.358,-2.168 33.264,1.736C37.168,5.642 34.952,14.19 28.314,20.828C26.614,22.541 24.694,24.02 22.604,25.228C22.401,28.105 21.164,30.811 19.122,32.848C17.772,34.205 16.114,35.216 14.29,35.796C14.017,33.992 13.471,32.24 12.67,30.6L12.67,30.6ZM9.22,25.78C8.898,25.457 8.535,25.178 8.14,24.95C7.276,25.25 6.26,25.91 5.33,26.838C4.892,27.278 4.356,28.756 4.35,30.648C6.242,30.642 7.726,30.1 8.16,29.668C9.09,28.736 9.75,27.722 10.048,26.858C9.82,26.463 9.542,26.1 9.22,25.778L9.22,25.78ZM24.776,10.22C24.581,10.036 24.424,9.816 24.316,9.571C24.207,9.325 24.15,9.061 24.145,8.793C24.141,8.525 24.191,8.259 24.292,8.011C24.392,7.762 24.542,7.537 24.731,7.347C24.921,7.158 25.147,7.008 25.395,6.908C25.644,6.807 25.91,6.758 26.178,6.762C26.446,6.767 26.71,6.825 26.955,6.933C27.2,7.042 27.421,7.198 27.604,7.394C27.949,7.774 28.134,8.273 28.122,8.786C28.109,9.299 27.9,9.788 27.537,10.151C27.174,10.514 26.686,10.724 26.172,10.737C25.659,10.75 25.161,10.565 24.78,10.22L24.776,10.22Z" fill="#0F172A"/>
</svg>
