<svg width="38" height="36" viewBox="0 0 38 36" fill="none" xmlns="http://www.w3.org/2000/svg" xmlns:xlink="http://www.w3.org/1999/xlink">
<path d="M17,27.407C18.576,27.407 20.136,27.097 21.592,26.494C23.048,25.891 24.371,25.007 25.485,23.892C26.6,22.778 27.484,21.455 28.087,19.999C28.69,18.544 29,16.983 29,15.407C29,13.831 28.69,12.271 28.087,10.815C27.484,9.359 26.6,8.036 25.485,6.922C24.371,5.808 23.048,4.924 21.592,4.321C20.136,3.718 18.576,3.407 17,3.407C13.817,3.407 10.765,4.672 8.515,6.922C6.264,9.172 5,12.225 5,15.407C5,18.59 6.264,21.642 8.515,23.892C10.765,26.143 13.817,27.407 17,27.407L17,27.407ZM29.64,25.219L36.8,32.379C36.991,32.564 37.143,32.785 37.248,33.029C37.352,33.273 37.407,33.535 37.409,33.801C37.412,34.066 37.361,34.33 37.26,34.575C37.159,34.821 37.011,35.044 36.823,35.232C36.635,35.42 36.411,35.568 36.166,35.668C35.92,35.769 35.656,35.819 35.391,35.817C35.125,35.814 34.863,35.759 34.619,35.654C34.375,35.549 34.154,35.396 33.97,35.205L26.81,28.045C23.595,30.541 19.55,31.718 15.498,31.336C11.445,30.954 7.691,29.042 4.999,25.989C2.307,22.937 0.879,18.973 1.007,14.905C1.134,10.837 2.807,6.971 5.685,4.093C8.563,1.215 12.43,-0.458 16.498,-0.586C20.566,-0.713 24.53,0.714 27.582,3.406C30.635,6.098 32.546,9.853 32.928,13.905C33.31,17.957 32.134,22.002 29.638,25.217L29.64,25.219Z" fill="#0F172A"/>
</svg>
