<svg width="2880" height="1370" viewBox="0 0 2880 1370" fill="none" xmlns="http://www.w3.org/2000/svg" xmlns:xlink="http://www.w3.org/1999/xlink">
<path d="M416,1015.153C216.568,977.109 74,1064.081 0,1205.233L0,1368.407L2880,1368.407L2880,7.569C2794.76,-24.749 2692.98,60.112 2652.76,106.583C2585.1,188.962 2406.22,346.749 2231.98,318.867C2057.74,290.985 1908.536,450.357 1855.716,533.527C1783.114,644.951 1571.154,838.805 1304.126,722.841C1056,615.085 883,783.239 791.646,867.797C717.472,933.805 626.968,1055.399 416,1015.153Z" fill="#FDE68A"/>
<path d="M416,1077.129C216.568,1045.757 74,1117.471 0,1233.861L0,1368.407L2880,1368.407L2880,246.313C2794.76,219.665 2692.98,289.638 2652.76,327.955C2585.1,395.882 2406.22,525.987 2231.98,502.997C2057.74,480.007 1908.536,611.417 1855.716,679.997C1783.114,771.873 1571.154,931.717 1304.126,836.097C1056,747.247 883,885.901 791.646,955.623C717.472,1010.051 626.968,1110.313 416,1077.129Z" fill="#FEF3C7"/>
<path d="M416,1176.287C216.568,1155.595 74,1202.897 0,1279.663L0,1368.407L2880,1368.407L2880,628.302C2794.76,610.726 2692.98,656.878 2652.76,682.152C2585.1,726.954 2406.22,812.769 2231.98,797.605C2057.74,782.441 1908.536,869.117 1855.716,914.349C1783.114,974.949 1571.154,1080.377 1304.126,1017.309C1056,958.705 883,1050.159 791.646,1096.145C717.472,1132.045 626.968,1198.175 416,1176.287Z" fill="#78350F"/>
</svg>
