<svg width="2880" height="1368" viewBox="0 0 2880 1368" fill="none" xmlns="http://www.w3.org/2000/svg" xmlns:xlink="http://www.w3.org/1999/xlink">
<path d="M416,1014.746C216.568,976.702 74,1063.674 0,1204.826L0,1368L2880,1368L2880,7.162C2794.76,-25.156 2692.98,59.705 2652.76,106.175C2585.1,188.554 2406.22,346.342 2231.98,318.46C2057.74,290.578 1908.536,449.95 1855.716,533.12C1783.114,644.544 1571.154,838.398 1304.126,722.434C1056,614.678 883,782.832 791.646,867.39C717.472,933.398 626.968,1054.992 416,1014.746Z" fill="#FDE68A"/>
<path d="M416,1076.722C216.568,1045.35 74,1117.064 0,1233.454L0,1368L2880,1368L2880,245.906C2794.76,219.257 2692.98,289.231 2652.76,327.548C2585.1,395.475 2406.22,525.58 2231.98,502.59C2057.74,479.6 1908.536,611.01 1855.716,679.59C1783.114,771.466 1571.154,931.31 1304.126,835.69C1056,746.84 883,885.494 791.646,955.216C717.472,1009.644 626.968,1109.906 416,1076.722Z" fill="#FEF3C7"/>
<path d="M416,1175.88C216.568,1155.188 74,1202.49 0,1279.256L0,1368L2880,1368L2880,627.895C2794.76,610.319 2692.98,656.471 2652.76,681.744C2585.1,726.547 2406.22,812.361 2231.98,797.197C2057.74,782.033 1908.536,868.71 1855.716,913.942C1783.114,974.542 1571.154,1079.97 1304.126,1016.902C1056,958.298 883,1049.752 791.646,1095.738C717.472,1131.638 626.968,1197.768 416,1175.88Z" fill="#78350F"/>
</svg>
