<svg width="40" height="28" viewBox="0 0 40 28" fill="none" xmlns="http://www.w3.org/2000/svg" xmlns:xlink="http://www.w3.org/1999/xlink">
<path d="M31.624,0.034L8.29,0.034C3.71,0.034 0,3.704 0,8.232L0,19.768C0,24.296 3.712,27.968 8.29,27.968L31.624,27.968C36.204,27.968 39.914,24.296 39.914,19.768L39.914,8.232C39.914,3.704 36.202,0.032 31.624,0.032L31.624,0.034ZM26.018,14.56L15.104,19.71C15.037,19.742 14.964,19.757 14.89,19.753C14.816,19.749 14.745,19.726 14.682,19.687C14.619,19.648 14.568,19.593 14.532,19.529C14.496,19.464 14.476,19.392 14.476,19.318L14.476,8.7C14.477,8.626 14.497,8.553 14.534,8.489C14.571,8.424 14.624,8.37 14.688,8.332C14.751,8.293 14.823,8.271 14.898,8.268C14.972,8.265 15.046,8.281 15.112,8.314L26.028,13.784C26.101,13.82 26.162,13.876 26.204,13.946C26.246,14.015 26.268,14.095 26.267,14.176C26.266,14.257 26.242,14.337 26.198,14.405C26.154,14.473 26.092,14.528 26.018,14.562L26.018,14.56Z" fill="#E2E8F0"/>
</svg>
